<svg fill="none" height="65" viewBox="0 0 47 65" width="47" xmlns="http://www.w3.org/2000/svg"><path d="m23.1699 64.0479c-12.27 0-22.216775-9.9468-22.216775-22.2168v-18.6622c0-12.27 9.946775-22.216752 22.216775-22.216752s22.2168 9.946752 22.2168 22.216752v18.6622c0 12.27-9.9468 22.2168-22.2168 22.2168z" fill="#b0d8fd"/><path d="m1.12857 20.3662c-.11552.9181-.175445 1.8535-.175445 2.803v18.6621c0 12.27 9.946775 22.2168 22.216775 22.2168 7.4637 0 14.0674-3.6807 18.096-9.3257z" fill="#72bafd"/><path d="m23.1699 5.71289c-1.3146 0-2.3803-1.06577-2.3803-2.38037s1.0657-2.380372 2.3803-2.380372c-12.27 0-22.216775 9.946752-22.216775 22.216752v18.6622c0 12.27 9.946775 22.2168 22.216775 22.2168 5.6263 0 10.7632-2.0925 14.6776-5.5404l.0023-.0118-27.029-22.9776z" fill="#9ccefd"/><path d="m23.1693 40.6334c9.6452 0 17.4641-7.8189 17.4641-17.4641s-7.8189-17.46422-17.4641-17.46422-17.46422 7.81902-17.46422 17.46422 7.81902 17.4641 17.46422 17.4641z" fill="#ffdfcf"/><path d="m15.898 35.5177c-6.8093-6.8092-6.8093-17.8888 0-24.6981 2.7584-2.75855 6.2177-4.39916 9.81-4.92272-5.2753-.76883-10.8373.87179-14.8882 4.92272-6.80922 6.8093-6.80922 17.8889 0 24.6981 4.0509 4.0508 9.6129 5.6916 14.8882 4.9227-3.5923-.5236-7.0516-2.1642-9.81-4.9227z" fill="#ffcebf"/><path d="m13.0685 30.9756c2.0582 0 3.7267-1.3287 3.7267-2.9678 0-1.639-1.6685-2.9678-3.7267-2.9678s-3.7267 1.3288-3.7267 2.9678c0 1.6391 1.6685 2.9678 3.7267 2.9678z" fill="#fda0c1"/><path d="m33.2697 30.9756c2.0582 0 3.7267-1.3287 3.7267-2.9678 0-1.639-1.6685-2.9678-3.7267-2.9678s-3.7267 1.3288-3.7267 2.9678c0 1.6391 1.6685 2.9678 3.7267 2.9678z" fill="#fda0c1"/><g fill="#000"><path d="m15.2412 26.1025c-.5258 0-.9521-.4261-.9521-.9521v-1.5234c0-.526.4263-.9522.9521-.9522.5259 0 .9522.4262.9522.9522v1.5234c0 .526-.4263.9521-.9522.9521z"/><path d="m31.0967 26.1025c-.526 0-.9522-.4261-.9522-.9521v-1.5234c0-.526.4262-.9522.9522-.9522.5259 0 .9521.4262.9521.9522v1.5234c0 .526-.4262.9521-.9521.9521z"/><path d="m23.1694 27.0098c-1.0764 0-2.0999-.4661-2.8081-1.2787-.3455-.3965-.3042-.9979.0923-1.3434.3966-.3455.9978-.3042 1.3434.0923.3464.3976.8466.6256 1.3724.6256.5257 0 1.0259-.228 1.3723-.6255.3453-.3967.947-.4379 1.3433-.0924.3965.3454.4379.9469.0924 1.3433-.7082.8127-1.7316 1.2788-2.808 1.2788z"/><path d="m23.1689 0c-12.7754 0-23.1689 10.3935-23.1689 23.1689v18.6622c0 12.7754 10.3935 23.1689 23.1689 23.1689 5.8302 0 11.1637-2.1654 15.2403-5.7332.0472-.0348.0912-.0739.1315-.1168 4.7799-4.2472 7.7972-10.4368 7.7972-17.3189v-18.6622c0-12.7754-10.3935-23.1689-23.169-23.1689zm21.2647 41.8311c0 6.0502-2.54 11.5182-6.6093 15.394l-5.9838-5.0868c-.4007-.341-1.0017-.2919-1.342.1086-.3408.4006-.292 1.0016.1086 1.342l5.7638 4.8998c-3.6294 2.8826-8.2179 4.607-13.202 4.607-11.7253 0-21.2646-9.5394-21.2646-21.2646v-18.6622c0-11.7252 9.5393-21.2646 21.2646-21.2646s21.2647 9.5394 21.2647 21.2646z"/><path d="m23.1688 4.75293c-4.5613 0-8.9407 1.68657-12.3317 4.74894-3.36568 3.03953-5.48808 7.18063-5.97596 11.66003-.05688.5228.32068.9926.84347 1.0498.52292.0577.99278-.3209 1.04965-.8435.91343-8.3867 7.97024-14.71097 16.41454-14.71097 1.9556 0 3.8325.34264 5.5749.96941 1.619 1.89325 2.0409 4.49096 1.0975 6.79966-1.0631 2.602-4.0449 3.8539-6.6468 2.7908-1.9842-.811-2.9391-3.085-2.1283-5.0693.2949-.722.8534-1.2858 1.5724-1.5877.7192-.3017 1.5125-.3058 2.2348-.0106.5304.2166.9445.6269 1.1664 1.1553.2219.5283.2247 1.1116.008 1.642-.1542.3773-.4461.6718-.8219.8296-.4848.2036-.7128.7616-.5093 1.2464.2036.485.7617.7131 1.2464.5094.8448-.3546 1.5008-1.0171 1.8476-1.8652.409-1.0013.4037-2.102-.015-3.0993-.4188-.99738-1.2009-1.77192-2.2022-2.18096-1.1927-.48737-2.504-.48103-3.692.01777s-2.1107 1.43039-2.5981 2.62309c-1.208 2.9564.2146 6.3444 3.1709 7.5522.8643.3532 1.7588.5204 2.6394.5204 2.7609-.0001 5.3833-1.6439 6.4904-4.3536.8124-1.988.8387-4.1422.1443-6.08056 4.7531 2.90216 7.9326 8.13836 7.9326 14.10336 0 9.1048-7.4073 16.512-16.512 16.512-3.5462 0-6.8515-1.1198-9.5593-3.0411l-2.1731-1.8473c-.0053-.0045-.0109-.0082-.0162-.0125-2.52246-2.5501-4.22579-5.9296-4.65781-9.7365-.05929-.5224-.53067-.8978-1.05346-.8387-.52254.0593-.89807.5309-.83865 1.0535.46439 4.093 2.29594 7.8989 5.18992 10.8331.0413.0545.0885.1058.1427.1519l.0529.0448c.1986.1955.4021.3871.6105.5745.4621.4156.9432.8047 1.4399 1.1686l15.3896 13.0829c.179.1523.3983.2267.6162.2267.2697 0 .5376-.1139.726-.3355.3407-.4006.292-1.0016-.1087-1.3421l-10.1192-8.6026c1.4157.3454 2.8778.5245 4.359.5245 10.1548 0 18.4163-8.2615 18.4163-18.4163 0-10.1549-8.2617-18.41637-18.4166-18.41637z"/></g></svg>