<svg fill="none" height="62" viewBox="0 0 55 62" width="55" xmlns="http://www.w3.org/2000/svg"><path d="m42.7433 56.3332-.0003.0003-.6731-.8823.2731-.8821c-.3635-1.3291-.8324-2.5146-1.3502-3.5611l-1.1505-.7097.2432-.921c-1.9211-3.0875-4.05-4.5384-4.05-4.5384h-17.0708s-2.129 1.4511-4.05 4.5388l-.0071 1.0643-.8978.5642c-.5184 1.0474-.9887 2.2319-1.3527 3.5627l.4189 1.2263-.8188.5383c-.2279 1.2513-.3607 2.6099-.3607 4.0803h6.9036l.7537-.5946 1.0426.5946h6.0055l.8981-.5946.8982.5946h6.0055l1.0425-.5946.7537.5946h6.9037c.0001-1.4704-.1323-2.8295-.3603-4.0806z" fill="#ff889e"/><path d="m15.7018 55.552c0-4.3018 2.1184-8.6402 5.1805-10.7131h-1.9176s-2.129 1.4511-4.05 4.5388l-.0071 1.0643-.8978.5642c-.5184 1.0474-.9887 2.2319-1.3527 3.5627l.4189 1.2263-.8188.5383c-.2279 1.2513-.3607 2.6099-.3607 4.0803h4.1925c-.3127-1.4606-.3872-3.1123-.3872-4.8618z" fill="#ff748f"/><path d="m2.4707 25.928c0-13.8014 11.2283-25.029562 25.0296-25.029562s25.0296 11.228162 25.0296 25.029562z" fill="#5c586f"/><path d="m48.2441 33.0097c3.2349 0 5.8574-2.6225 5.8574-5.8574s-2.6225-5.8574-5.8574-5.8574-5.8574 2.6225-5.8574 5.8574 2.6225 5.8574 5.8574 5.8574z" fill="#ffbd86"/><path d="m10.2613 23.9211c0-8.8198 3.7798-16.69235 9.6965-21.86055-10.12661 3.2074-17.4871 12.69355-17.4871 23.86745h7.8577c-.0435-.6631-.0671-1.332-.0671-2.0069z" fill="#4f4c5f"/><path d="m47.732 21.3346c-.3618-1.5992-1.4906-2.9086-3.0174-3.5064-4.9335-1.9314-8.1885-6.7325-8.1885-6.7325-4.3273 7.33-14.0417 7.5066-14.0417 7.5066 2.9144-2.9144 1.148-7.5066 1.148-7.5066-3.3657 3.8756-8.471 5.366-12.185 5.9335-1.92234.2938-3.4997 1.6845-3.9987 3.5641-.46308 1.7441-.70461 3.5786-.6924 5.4714.07293 11.3001 9.297 20.5284 20.5971 20.6062 11.5234.0793 20.8896-9.238 20.8896-20.7431.0001-1.5786-.1766-3.1158-.511-4.5932z" fill="#fed2a4"/><path d="m18.8708 44.7813c-5.2897-5.1557-8.6105-12.5922-8.6105-20.8602 0-2.348.2696-4.6281.7742-6.8088-1.73255.4173-3.12321 1.7382-3.58593 3.4812-.06395.2409-.12275.484-.17819.7283-.15891-.0169-.32907-.0266-.51469-.0266-3.23495 0-5.857252 2.6224-5.857252 5.8574 0 3.2349 2.622422 5.8574 5.857252 5.8574.48643 0 .87634-.0604 1.19009-.1721 1.88308 5.2906 5.86142 9.6091 10.92502 11.9434z" fill="#ffbd86"/><path d="m14.9082 33.6924c2.5661 0 4.6464-1.6567 4.6464-3.7002 0-2.0436-2.0803-3.7002-4.6464-3.7002-2.5662 0-4.6465 1.6566-4.6465 3.7002 0 2.0435 2.0803 3.7002 4.6465 3.7002z" fill="#ff9db0"/><path d="m40.0918 33.6924c2.5661 0 4.6464-1.6567 4.6464-3.7002 0-2.0436-2.0803-3.7002-4.6464-3.7002-2.5662 0-4.6465 1.6566-4.6465 3.7002 0 2.0435 2.0803 3.7002 4.6465 3.7002z" fill="#ff9db0"/><g fill="#000"><path d="m16.7168 24.5309v1.8994c0 .496.4021.8981.8981.8981.4962 0 .8982-.4021.8982-.8981v-1.8994c0-.496-.402-.8981-.8982-.8981-.496 0-.8981.4021-.8981.8981z"/><path d="m37.3845 23.6328c-.496 0-.8982.4021-.8982.8981v1.8994c0 .496.4022.8981.8982.8981s.8981-.4021.8981-.8981v-1.8994c0-.496-.4021-.8981-.8981-.8981z"/><path d="m29.4273 25.7836c-.4869.5587-1.1899.8792-1.9289.8792s-1.4421-.3205-1.929-.8791c-.3258-.374-.8931-.4129-1.2672-.0871-.374.3259-.4129.8932-.087 1.2672.8282.9504 2.0247 1.4953 3.2832 1.4953 1.2583 0 2.4549-.5449 3.2832-1.4952.3258-.3739.2869-.9412-.0871-1.2672-.374-.3259-.9412-.287-1.2672.0869z"/><path d="m44.7794 6.61432c-4.7615-4.26529-10.8985-6.61432-17.2803-6.61432-5.0665 0-9.9791 1.46946-14.2068 4.24936-.4144.27255-.5294.82939-.2569 1.24385.2724.41446.8295.52966 1.2438.25699 3.9338-2.58674 8.5052-3.95394 13.2199-3.95394 5.9388 0 11.6501 2.18617 16.0817 6.15603 3.8772 3.47301 6.5119 8.06281 7.5508 13.09041-.8407-.3984-1.8007-.6245-2.7435-.6443-.5597-1.5129-1.7582-2.7846-3.3466-3.4066-2.9852-1.1688-6.0796-3.9379-7.7724-6.4001-.367-.5415-1.1795-.523-1.5169.0474-2.3586 3.996-6.8315 6.1496-11.3963 6.8662 1.4891-3.063.1818-6.5567.1143-6.7319-.2409-.6262-1.07-.78067-1.5164-.2665-2.8836 3.3206-7.3292 4.9754-11.6425 5.6346-2.3155.3538-4.16852 2.0435-4.74069 4.2579-.90412.0241-1.85326.2404-2.70421.6436 1.04662-5.0666 3.71227-9.684 7.6387-13.16747.371-.32919.4048-.89681.0758-1.26792-.3292-.37099-.8968-.40499-1.268-.0758-4.70269 4.17239-7.72041 9.86079-8.52239 16.04569-1.110565 1.2043-1.79051 2.8114-1.79051 4.5748 0 3.9553 3.40619 7.0945 7.38216 6.7249 1.90404 4.7724 5.46554 8.7254 9.95994 11.1373-3.7489 3.4466-6.3447 8.8918-6.3447 15.3998 0 .496.4022.8981.8982.8981h31.2072c.4961 0 .8981-.4021.8981-.8981 0-6.4384-2.5523-11.9012-6.3255-15.3821 1.6418-.8763 3.1782-1.9698 4.5695-3.2655.3629-.3381.3832-.9064.045-1.2694-.3381-.3629-.9063-.3832-1.2694-.045-4.1111 3.829-9.4368 5.5912-14.6675 5.288-12.3705-.7143-21.2782-12.6995-18.03654-24.9167.40488-1.525 1.68754-2.6653 3.26634-2.9066 4.2026-.6425 8.4565-2.1711 11.5691-5.0407.2239 1.4136.2268 3.5612-1.303 5.0909-.5588.5589-.1751 1.5399.6514 1.533 1.3332-.0245 3.602-.3829 5.6583-1.048 3.3378-1.0795 6.356-2.9671 8.4198-5.8028 2.047 2.5143 4.8009 4.8375 7.8085 6.015 2.134.8355 2.459 2.8437 2.466 2.8571 1.2606 5.3409.1752 11.4926-3.5244 16.3767-.2995.3954-.2218.9587.1736 1.2582.3953.2993.9588.2218 1.2583-.1737 1.2003-1.5849 2.1629-3.2983 2.8771-5.1039 6.1587.5511 9.723-6.7982 5.5703-11.3016-.7964-6.1404-3.7808-11.7996-8.4284-15.96288zm-10.3768 39.83018v2.9333h-6.0054v-1.8272c2.1208-.0864 4.1522-.481 6.0054-1.1061zm7.0119 8.1249h-5.2155v-3.3954h3.8717c.5556 1.0794 1.0048 2.2118 1.3438 3.3954zm-7.0119 0h-6.0054v-3.3954h6.0054zm-19.4751-3.3953h3.8717v3.3954h-5.2155c.339-1.1837.7882-2.3161 1.3438-3.3954zm5.668 0h6.0055v3.3954h-6.0055zm0-4.7388c1.9361.6578 3.9467 1.0302 6.0055 1.1143v1.8282h-6.0055zm6.0055 9.9304v3.1505h-6.0055v-3.1505zm1.7962 0h6.0054v3.1505h-6.0054zm-9.598-10.2433v3.2554h-2.8145c.884-1.3241 1.8494-2.4097 2.8145-3.2554zm-5.6376 10.2433h5.6376v3.1505h-5.9886c.0412-1.0827.1602-2.1327.351-3.1505zm23.0373 3.1505v-3.1505h5.6376c.1908 1.0178.3098 2.0678.351 3.1505zm2.8145-10.1384h-2.8145v-3.2554c.9552.8371 1.9279 1.9257 2.8145 3.2554zm-32.24999-17.2664c-4.5206 0-6.654437-5.5303-3.39254-8.5807.07472-.0512 1.05967-1.0996 2.80289-1.3025-.55182 3.203-.3953 6.6042.58965 9.8832zm41.48509-.0001c.9738-3.2772 1.1248-6.7095.5766-9.883 2.4641.2864 4.3766 2.3907 4.3766 4.924.0001 2.7326-2.2215 4.9559-4.9532 4.959z"/></g></svg>