<svg fill="none" height="69" viewBox="0 0 47 69" width="47" xmlns="http://www.w3.org/2000/svg" xmlns:xlink="http://www.w3.org/1999/xlink"><mask id="a" fill="#fff"><path d="m40.5725 23.8226c-.3815-9.7089-7.4482-17.45588-17.0894-17.46015v-.00015c-.0013 0-.0026 0-.0041 0-.0014 0-.0027 0-.0039 0v.00015c-9.6412.00427-16.70773 7.75145-17.0894 17.46015h-.01656v11.1746h.01656c.38154 9.7085 8.0301 14.3533 17.0894 14.3562h.0039.0041c9.0592-.0029 16.7079-4.6477 17.0894-14.3562h.0165v-11.1746z" fill="#fff"/></mask><mask id="b" fill="#fff"><path d="m40.5725 23.8226c-.3815-9.7089-7.4482-17.45588-17.0894-17.46015v-.00015c-.0013 0-.0026 0-.0041 0-.0014 0-.0027 0-.0039 0v.00015c-9.6412.00427-16.70773 7.75145-17.0894 17.46015h-.01656v11.1746h.01656c.38154 9.7085 8.0301 14.3533 17.0894 14.3562h.0039.0041c9.0592-.0029 16.7079-4.6477 17.0894-14.3562h.0165v-11.1746z" fill="#fff"/></mask><mask id="c" fill="#fff"><path d="m29.4503 48.6133c-.0183 3.4978-2.6843 6.3275-5.971 6.3275-3.2913 0-5.9604-2.8377-5.9711-6.3423-.4602-.1237-.9111-.2633-1.3522-.4178-.0062.1315-.0095.2637-.0095.3967 0 4.3155 3.2831 7.8139 7.3328 7.8139 4.0501 0 7.3331-3.4984 7.3331-7.8139 0-.1265-.0033-.252-.0088-.377-.4417.153-.893.2905-1.3533.4129z" fill="#fff"/></mask><g stroke="#000" stroke-width="2"><path d="m42.5761 21.4168c0 11.3366-8.6096 20.4167-19.0986 20.4167s-19.09859-9.0801-19.09859-20.4167c0-11.3367 8.60959-20.4168 19.09859-20.4168s19.0986 9.0801 19.0986 20.4168z" fill="#5c586f"/><path d="m37.5541 62.3461c0 1.5531-1.3233 2.9794-4.0762 4.0595-2.6739 1.0491-6.3091 1.5944-9.9987 1.5944-3.6897 0-7.3248-.5453-9.9988-1.5944-2.7529-1.0801-4.0761-2.5064-4.0761-4.0595 0-8.38 6.3604-15.0634 14.0747-15.0634 7.7146 0 14.0751 6.6834 14.0751 15.0634z" fill="#78a4e7"/><path d="m14.3124 62.6699c-2.492-.8266-4.0743-1.953-4.65148-3.1994 1.26168-6.9884 7.00888-12.1878 13.81788-12.1878 6.8093 0 12.5565 5.1994 13.818 12.1878-.5772 1.2464-2.1594 2.3728-4.6514 3.1994-2.5762.8545-5.8534 1.2944-9.1665 1.2944-3.313 0-6.5903-.4399-9.1665-1.2944z" fill="#88b8ff"/><path d="m28.4494 48.5773c0 3.0229-2.2849 5.3634-4.9718 5.3634s-4.9717-2.3405-4.9717-5.3634 2.2848-5.3634 4.9717-5.3634 4.9718 2.3405 4.9718 5.3634z" fill="#fed2a4"/><g fill="#f2c89b"><path d="m8.7587 31.5827c0 2.38-1.79573 4.1993-3.87935 4.1993-2.08361 0-3.87935-1.8193-3.87935-4.1993 0-2.3801 1.79574-4.1994 3.87935-4.1994 2.08362 0 3.87935 1.8193 3.87935 4.1994z"/><path d="m45.956 31.5827c0 2.38-1.7958 4.1993-3.8794 4.1993s-3.8793-1.8193-3.8793-4.1993c0-2.3801 1.7957-4.1994 3.8793-4.1994s3.8794 1.8193 3.8794 4.1994z"/></g></g><path d="m40.5725 23.8226c-.3815-9.7089-7.4482-17.45588-17.0894-17.46015v-.00015c-.0013 0-.0026 0-.0041 0-.0014 0-.0027 0-.0039 0v.00015c-9.6412.00427-16.70773 7.75145-17.0894 17.46015h-.01656v11.1746h.01656c.38154 9.7085 8.0301 14.3533 17.0894 14.3562h.0039.0041c9.0592-.0029 16.7079-4.6477 17.0894-14.3562h.0165v-11.1746z" fill="#fff2dc"/><path d="m40.5725 23.8226-1.9984.0785.0755 1.9215h1.9229zm-17.0894-17.46015h-2v1.99911l1.9991.00089zm0-.00015h2v-2h-2zm-.008 0v-2h-2v2zm0 .00015.0009 2 1.9991-.00089v-1.99911zm-17.0894 17.46015v2h1.92292l.07554-1.9214zm-.01656 0v-2h-2v2zm0 11.1746h-2v2h2zm.01656 0 1.99846-.0786-.07551-1.9214h-1.92295zm17.0894 14.3562-.0006 2h.0006zm.008 0v2h.0007zm17.0894-14.3562v-2h-1.9229l-.0755 1.9214zm.0165 0v2h2v-2zm0-11.1746h2v-2h-2zm1.982-.0785c-.4177-10.6281-8.2248-19.37684-19.087-19.38165l-.0018 4c8.4202.00373 14.7465 6.74905 15.0919 15.53865zm-17.0879-17.38165v-.00015h-4v.00015zm-2-2.00015h-.0001-.0001c-.0001 0-.0001 0-.0001 0s0 0-.0001 0 0 0-.0001 0-.0001 0-.0001 0c-.0001 0-.0001 0-.0001 0s0 0-.0001 0 0 0-.0001 0-.0001 0-.0001 0 0 0-.0001 0 0 0-.0001 0-.0001 0-.0001 0c-.0001 0-.0001 0-.0001 0h-.0001c-.0001 0-.0001 0-.0001 0s0 0-.0001 0-.0001 0-.0001 0 0 0-.0001 0-.0001 0-.0001 0 0 0-.0001 0-.0001 0-.0001 0 0 0-.0001 0 0 0-.0001 0-.0001 0-.0001 0h-.0001s0 0-.0001 0-.0001 0-.0001 0c-.0001 0-.0001 0-.0001 0h-.0001-.0001-.0001s0 0-.0001 0h-.0001-.0001-.0001-.0001c-.0001 0-.0001 0-.0001 0s0 0-.0001 0 0 0-.0001 0-.0001 0-.0001 0v4h.0001.0001.0001.0001.0001.0001.0001.0001.0001.0001.0001.0001.0001.0001.0001.0001.0001.0001.0001.0001.0001.0001.0001.0001.0001.0001.0001.0001.0001.0001.0001.0001.0001.0001.0001.0001.0001.0001.0001.0001.0001zm-.0041 0h-.0001c-.0001 0-.0001 0-.0001 0-.0001 0-.0001 0-.0001 0s0 0-.0001 0h-.0001c-.0001 0-.0001 0-.0001 0-.0001 0-.0001 0-.0001 0s0 0-.0001 0 0 0-.0001 0 0 0-.0001 0h-.0001c-.0001 0-.0001 0-.0001 0-.0001 0-.0001 0-.0001 0-.0001 0-.0001 0-.0001 0-.0001 0-.0001 0-.0001 0-.0001 0-.0001 0-.0001 0-.0001 0-.0001 0-.0001 0-.0001 0-.0001 0-.0001 0-.0001 0-.0001 0-.0001 0-.0001 0-.0001 0-.0001 0-.0001 0-.0001 0-.0001 0h-.0001-.0001s0 0-.0001 0-.0001 0-.0001 0c-.0001 0-.0001 0-.0001 0s0 0-.0001 0-.0001 0-.0001 0 0 0-.0001 0-.0001 0-.0001 0 0 0-.0001 0h-.0001s0 0-.0001 0 0 0-.0001 0h-.0001-.0001-.0001-.0001-.0001v4h.0001.0001.0001.0001.0001.0001.0001.0001.0001.0001.0001.0001.0001.0001.0001.0001.0001.0001.0001.0001.0001.0001.0001.0001.0001.0001.0001.0001.0001.0001.0001.0001.0001.0001.0001.0001.0001.0001.0001zm-2.0039 2v.00015h4v-.00015zm1.9991-1.99985c-10.8622.00481-18.66915 8.75365-19.08696 19.38155l3.99692.1572c.34553-8.7895 6.67164-15.53502 15.09184-15.53875zm-17.0885 17.46015h-.01656v4h.01656zm-2.01656 2v11.1746h4v-11.1746zm2 13.1746h.01656v-4h-.01656zm-1.9819-1.9215c.21309 5.4221 2.48748 9.5731 6.07076 12.3253 3.5285 2.7102 8.1704 3.9508 13.0165 3.9524l.0012-4c-4.2132-.0014-7.9252-1.0846-10.5812-3.1246-2.6012-1.998-4.34189-5.0237-4.51034-9.3102zm19.08786 16.2777h.0001.0001.0001.0001.0001.0001.0001.0001.0001.0001.0001.0001.0001.0001.0001.0001.0001.0001.0001.0001.0001.0001.0001.0001.0001.0001.0001.0001.0001.0001.0001.0001.0001.0001.0001.0001.0001.0001.0001v-4s0 0-.0001 0 0 0-.0001 0-.0001 0-.0001 0 0 0-.0001 0 0 0-.0001 0 0 0-.0001 0h-.0001c-.0001 0-.0001 0-.0001 0s0 0-.0001 0h-.0001s0 0-.0001 0-.0001 0-.0001 0 0 0-.0001 0 0 0-.0001 0h-.0001-.0001s0 0-.0001 0-.0001 0-.0001 0c-.0001 0-.0001 0-.0001 0h-.0001c-.0001 0-.0001 0-.0001 0h-.0001-.0001-.0001-.0001c-.0001 0-.0001 0-.0001 0-.0001 0-.0001 0-.0001 0-.0001 0-.0001 0-.0001 0-.0001 0-.0001 0-.0001 0s0 0-.0001 0 0 0-.0001 0h-.0001c-.0001 0-.0001 0-.0001 0-.0001 0-.0001 0-.0001 0s0 0-.0001 0 0 0-.0001 0h-.0001-.0001c-.0001 0-.0001 0-.0001 0zm.0039 0h.0001.0001.0001.0001.0001.0001.0001.0001.0001.0001.0001.0001.0001.0001.0001.0001.0001.0001.0001.0001.0001.0001.0001.0001.0001.0001.0001.0001.0001.0001.0001.0001.0001.0001.0001.0001.0001.0001.0001.0001.0001v-4h-.0001-.0001c-.0001 0-.0001 0-.0001 0-.0001 0-.0001 0-.0001 0-.0001 0-.0001 0-.0001 0-.0001 0-.0001 0-.0001 0h-.0001-.0001-.0001-.0001-.0001s0 0-.0001 0 0 0-.0001 0-.0001 0-.0001 0 0 0-.0001 0-.0001 0-.0001 0 0 0-.0001 0 0 0-.0001 0 0 0-.0001 0h-.0001-.0001s0 0-.0001 0 0 0-.0001 0-.0001 0-.0001 0h-.0001s0 0-.0001 0-.0001 0-.0001 0h-.0001-.0001-.0001c-.0001 0-.0001 0-.0001 0s0 0-.0001 0h-.0001c-.0001 0-.0001 0-.0001 0s0 0-.0001 0 0 0-.0001 0-.0001 0-.0001 0c-.0001 0-.0001 0-.0001 0-.0001 0-.0001 0-.0001 0-.0001 0-.0001 0-.0001 0s0 0-.0001 0zm.0048 0c4.8459-.0016 9.4879-1.2422 13.0164-3.9524 3.5833-2.7522 5.8577-6.9032 6.0708-12.3253l-3.9969-.1571c-.1685 4.2865-1.9092 7.3122-4.5104 9.3102-2.656 2.04-6.368 3.1232-10.5812 3.1246zm17.0887-14.3562h.0165v-4h-.0165zm2.0165-2v-11.1746h-4v11.1746zm-2-13.1746h-.0165v4h.0165z" fill="#000" mask="url(#a)"/><path d="m40.5725 23.8226c-.3815-9.7089-7.4482-17.45588-17.0894-17.46015v-.00015c-.0013 0-.0026 0-.0041 0-.0014 0-.0027 0-.0039 0v.00015c-9.6412.00427-16.70773 7.75145-17.0894 17.46015h-.01656v11.1746h.01656c.38154 9.7085 8.0301 14.3533 17.0894 14.3562h.0039.0041c9.0592-.0029 16.7079-4.6477 17.0894-14.3562h.0165v-11.1746z" fill="#fed2a4"/><path d="m40.5725 23.8226-1.9984.0785.0755 1.9215h1.9229zm-17.0894-17.46015h-2v1.99911l1.9991.00089zm0-.00015h2v-2h-2zm-.008 0v-2h-2v2zm0 .00015.0009 2 1.9991-.00089v-1.99911zm-17.0894 17.46015v2h1.92292l.07554-1.9214zm-.01656 0v-2h-2v2zm0 11.1746h-2v2h2zm.01656 0 1.99846-.0786-.07551-1.9214h-1.92295zm17.0894 14.3562-.0006 2h.0006zm.008 0v2h.0007zm17.0894-14.3562v-2h-1.9229l-.0755 1.9214zm.0165 0v2h2v-2zm0-11.1746h2v-2h-2zm1.982-.0785c-.4177-10.6281-8.2248-19.37684-19.087-19.38165l-.0018 4c8.4202.00373 14.7465 6.74905 15.0919 15.53865zm-17.0879-17.38165v-.00015h-4v.00015zm-2-2.00015h-.0001-.0001c-.0001 0-.0001 0-.0001 0s0 0-.0001 0 0 0-.0001 0-.0001 0-.0001 0c-.0001 0-.0001 0-.0001 0s0 0-.0001 0 0 0-.0001 0-.0001 0-.0001 0 0 0-.0001 0 0 0-.0001 0-.0001 0-.0001 0c-.0001 0-.0001 0-.0001 0h-.0001c-.0001 0-.0001 0-.0001 0s0 0-.0001 0-.0001 0-.0001 0 0 0-.0001 0-.0001 0-.0001 0 0 0-.0001 0-.0001 0-.0001 0 0 0-.0001 0 0 0-.0001 0-.0001 0-.0001 0h-.0001s0 0-.0001 0-.0001 0-.0001 0c-.0001 0-.0001 0-.0001 0h-.0001-.0001-.0001s0 0-.0001 0h-.0001-.0001-.0001-.0001c-.0001 0-.0001 0-.0001 0s0 0-.0001 0 0 0-.0001 0-.0001 0-.0001 0v4h.0001.0001.0001.0001.0001.0001.0001.0001.0001.0001.0001.0001.0001.0001.0001.0001.0001.0001.0001.0001.0001.0001.0001.0001.0001.0001.0001.0001.0001.0001.0001.0001.0001.0001.0001.0001.0001.0001.0001.0001.0001zm-.0041 0h-.0001c-.0001 0-.0001 0-.0001 0-.0001 0-.0001 0-.0001 0s0 0-.0001 0h-.0001c-.0001 0-.0001 0-.0001 0-.0001 0-.0001 0-.0001 0s0 0-.0001 0 0 0-.0001 0 0 0-.0001 0h-.0001c-.0001 0-.0001 0-.0001 0-.0001 0-.0001 0-.0001 0-.0001 0-.0001 0-.0001 0-.0001 0-.0001 0-.0001 0-.0001 0-.0001 0-.0001 0-.0001 0-.0001 0-.0001 0-.0001 0-.0001 0-.0001 0-.0001 0-.0001 0-.0001 0-.0001 0-.0001 0-.0001 0-.0001 0-.0001 0-.0001 0h-.0001-.0001s0 0-.0001 0-.0001 0-.0001 0c-.0001 0-.0001 0-.0001 0s0 0-.0001 0-.0001 0-.0001 0 0 0-.0001 0-.0001 0-.0001 0 0 0-.0001 0h-.0001s0 0-.0001 0 0 0-.0001 0h-.0001-.0001-.0001-.0001-.0001v4h.0001.0001.0001.0001.0001.0001.0001.0001.0001.0001.0001.0001.0001.0001.0001.0001.0001.0001.0001.0001.0001.0001.0001.0001.0001.0001.0001.0001.0001.0001.0001.0001.0001.0001.0001.0001.0001.0001.0001zm-2.0039 2v.00015h4v-.00015zm1.9991-1.99985c-10.8622.00481-18.66915 8.75365-19.08696 19.38155l3.99692.1572c.34553-8.7895 6.67164-15.53502 15.09184-15.53875zm-17.0885 17.46015h-.01656v4h.01656zm-2.01656 2v11.1746h4v-11.1746zm2 13.1746h.01656v-4h-.01656zm-1.9819-1.9215c.21309 5.4221 2.48748 9.5731 6.07076 12.3253 3.5285 2.7102 8.1704 3.9508 13.0165 3.9524l.0012-4c-4.2132-.0014-7.9252-1.0846-10.5812-3.1246-2.6012-1.998-4.34189-5.0237-4.51034-9.3102zm19.08786 16.2777h.0001.0001.0001.0001.0001.0001.0001.0001.0001.0001.0001.0001.0001.0001.0001.0001.0001.0001.0001.0001.0001.0001.0001.0001.0001.0001.0001.0001.0001.0001.0001.0001.0001.0001.0001.0001.0001.0001.0001v-4s0 0-.0001 0 0 0-.0001 0-.0001 0-.0001 0 0 0-.0001 0 0 0-.0001 0 0 0-.0001 0h-.0001c-.0001 0-.0001 0-.0001 0s0 0-.0001 0h-.0001s0 0-.0001 0-.0001 0-.0001 0 0 0-.0001 0 0 0-.0001 0h-.0001-.0001s0 0-.0001 0-.0001 0-.0001 0c-.0001 0-.0001 0-.0001 0h-.0001c-.0001 0-.0001 0-.0001 0h-.0001-.0001-.0001-.0001c-.0001 0-.0001 0-.0001 0-.0001 0-.0001 0-.0001 0-.0001 0-.0001 0-.0001 0-.0001 0-.0001 0-.0001 0s0 0-.0001 0 0 0-.0001 0h-.0001c-.0001 0-.0001 0-.0001 0-.0001 0-.0001 0-.0001 0s0 0-.0001 0 0 0-.0001 0h-.0001-.0001c-.0001 0-.0001 0-.0001 0zm.0039 0h.0001.0001.0001.0001.0001.0001.0001.0001.0001.0001.0001.0001.0001.0001.0001.0001.0001.0001.0001.0001.0001.0001.0001.0001.0001.0001.0001.0001.0001.0001.0001.0001.0001.0001.0001.0001.0001.0001.0001.0001.0001v-4h-.0001-.0001c-.0001 0-.0001 0-.0001 0-.0001 0-.0001 0-.0001 0-.0001 0-.0001 0-.0001 0-.0001 0-.0001 0-.0001 0h-.0001-.0001-.0001-.0001-.0001s0 0-.0001 0 0 0-.0001 0-.0001 0-.0001 0 0 0-.0001 0-.0001 0-.0001 0 0 0-.0001 0 0 0-.0001 0 0 0-.0001 0h-.0001-.0001s0 0-.0001 0 0 0-.0001 0-.0001 0-.0001 0h-.0001s0 0-.0001 0-.0001 0-.0001 0h-.0001-.0001-.0001c-.0001 0-.0001 0-.0001 0s0 0-.0001 0h-.0001c-.0001 0-.0001 0-.0001 0s0 0-.0001 0 0 0-.0001 0-.0001 0-.0001 0c-.0001 0-.0001 0-.0001 0-.0001 0-.0001 0-.0001 0-.0001 0-.0001 0-.0001 0s0 0-.0001 0zm.0048 0c4.8459-.0016 9.4879-1.2422 13.0164-3.9524 3.5833-2.7522 5.8577-6.9032 6.0708-12.3253l-3.9969-.1571c-.1685 4.2865-1.9092 7.3122-4.5104 9.3102-2.656 2.04-6.368 3.1232-10.5812 3.1246zm17.0887-14.3562h.0165v-4h-.0165zm2.0165-2v-11.1746h-4v11.1746zm-2-13.1746h-.0165v4h.0165z" fill="#000" mask="url(#b)"/><path d="m29.4503 48.6133c-.0183 3.4978-2.6843 6.3275-5.971 6.3275-3.2913 0-5.9604-2.8377-5.9711-6.3423-.4602-.1237-.9111-.2633-1.3522-.4178-.0062.1315-.0095.2637-.0095.3967 0 4.3155 3.2831 7.8139 7.3328 7.8139 4.0501 0 7.3331-3.4984 7.3331-7.8139 0-.1265-.0033-.252-.0088-.377-.4417.153-.893.2905-1.3533.4129z" fill="#fff"/><path d="m29.4503 48.6133-.5139-1.9329-1.4781.393-.008 1.5294zm-11.9421-.0148 2-.0061-.0046-1.5287-1.4763-.3967zm-1.3522-.4178.6613-1.8875-2.5339-.8878-.1253 2.6819zm14.6476.0197 1.9981-.0875-.1174-2.6802-2.5351.8778zm-3.3533.4024c-.0132 2.5191-1.9026 4.338-3.971 4.338v4c4.5051 0 7.9475-3.8405 7.971-8.3171zm-3.971 4.338c-2.0713 0-3.9634-1.8243-3.9711-4.3484l-3.9999.0122c.0136 4.4851 3.4596 8.3362 7.971 8.3362zm-5.452-6.2738c-.4122-.1108-.8157-.2357-1.21-.3738l-1.3226 3.775c.4878.1709.9863.3252 1.4945.4618zm-3.8692 1.4203c-.0074.1602-.0116.3236-.0116.4901h4c0-.0996.0025-.2006.0073-.3034zm-.0116.4901c0 5.2985 4.0607 9.8139 9.3328 9.8139v-4c-2.8274 0-5.3328-2.4813-5.3328-5.8139zm9.3328 9.8139c5.2724 0 9.3331-4.5154 9.3331-9.8139h-4c0 3.3325-2.5054 5.8139-5.3331 5.8139zm9.3331-9.8139c0-.1615-.0042-.3168-.0107-.4645l-3.9962.1751c.0045.1022.0069.1979.0069.2894zm-2.6632-2.2669c-.3939.1364-.7982.2597-1.2128.3699l1.0277 3.8657c.5061-.1345 1.0043-.2862 1.494-.4558z" fill="#000" mask="url(#c)"/><g stroke="#000" stroke-width="2"><path d="m22.9642 4.55762c3.9082 0 6.4061.95556 8.3782 2.27854 1.0027.67273 1.8899 1.45428 2.7785 2.30046.3083.29356.6243.60258.9469.91798.5815.5686 1.1842 1.1579 1.8005 1.7143 1.8001 1.6254 3.9758 2.0603 5.6223 2.1256.3395.0135.6605.0115.9557.0003-.288.257-.6607.5257-1.1213.8002-1.3515.8053-3.2849 1.5587-5.5246 2.2047-4.4731 1.2901-9.934 2.0861-13.8362 2.0861-3.8844 0-7.1375-.7895-9.3817-2.0047-2.2692-1.2287-3.3247-2.772-3.3247-4.2516 0-1.5591 1.1493-3.58968 3.4429-5.28452 2.2528-1.6648 5.4711-2.88736 9.2635-2.88736z" fill="#393648"/><path d="m12.8042 52.3674v13.8113c-.9559-.4216-1.7409-.9035-2.3255-1.4325-.81855-.7406-1.20917-1.535-1.20917-2.4003 0-3.836 1.33947-7.3263 3.53467-9.9785z" fill="#e5e5e5"/><path d="m35.1035 53.6493c1.6245 2.4527 2.583 5.4511 2.583 8.6962 0 1.2388-.8408 2.3967-2.583 3.3642z" fill="#e5e5e5"/><path d="m12.804 52.367v9.7765c-1.7069-.7526-2.81529-1.6746-3.27784-2.6732.48704-2.6963 1.64594-5.1314 3.27784-7.1033z" fill="#fff"/><path d="m35.1035 61.671v-8.0215c1.1317 1.7088 1.94 3.6824 2.326 5.8197-.3675.7935-1.1448 1.5438-2.326 2.2018z" fill="#fff"/></g><path d="m16.4297 27.7564v2.0737c0 .5416.412.9806.9202.9806.5083 0 .9202-.439.9202-.9806v-2.0737c0-.5415-.4119-.9805-.9202-.9805-.5082 0-.9202.439-.9202.9805z" fill="#000"/><path d="m29.9144 26.7759c-.5082 0-.9203.439-.9203.9805v2.0737c0 .5416.4121.9806.9203.9806s.9202-.439.9202-.9806v-2.0737c0-.5415-.412-.9805-.9202-.9805z" fill="#000"/><path d="m23.5507 37.81c-1.2122 0-2.4243-.4917-3.3473-1.475-.3129-.3336-.3129-.8742 0-1.2076.3129-.3333.8204-.3333 1.1332 0 1.2211 1.3014 3.2076 1.3011 4.4283 0 .3131-.3333.8204-.3333 1.1333 0 .313.3336.313.8742 0 1.2076-.9228.9833-2.1351 1.475-3.3475 1.475z" fill="#000"/></svg>