<svg enable-background="new 0 0 450 450" viewBox="0 0 450 450" xmlns="http://www.w3.org/2000/svg"><g fill="#9c0921"><path d="m143.78 445.39c-8.11-7.92-17.51-14.25-26.6-20.38-8.32-5.61-16.19-10.91-23.2-17.35l-1.27-1.17c-7.6-7-14.78-13.61-25.13-16.25-10.42-2.66-19.15-5.37-28.65-13.86-1.46-1.31-2.9-2.58-4.32-3.82-15.03-13.23-26.9-23.68-24.57-46.54 2.22-21.79-.05-45.01-6.38-65.36-1.46-4.7-2.64-9.67-3.67-14.79v4.83c.8 3.52 1.69 6.96 2.71 10.26 6.29 20.23 8.54 43.3 6.34 64.97-2.38 23.37 9.66 33.97 24.91 47.39 1.41 1.24 2.85 2.51 4.31 3.82 9.66 8.64 18.51 11.39 29.07 14.08 10.1 2.58 17.19 9.11 24.7 16.02l1.27 1.17c7.07 6.49 15.33 12.06 23.32 17.44 9.06 6.1 18.42 12.42 26.46 20.27 1.23 1.2 2.44 2.51 3.69 3.89h1.35c-1.48-1.65-2.89-3.2-4.34-4.62zm111.38-442.77c4.32 1.23 8.61 2.05 12.75 2.85 6.79 1.31 13.82 2.67 20.97 5.82 4.65 2.05 8.52 4.74 12.26 7.35 4.91 3.41 9.98 6.95 16.68 8.85.95.27 1.88.54 2.79.81 4.85 1.43 9.43 2.78 14.49 2.78h.13c.86 0 2.07-.08 3.47-.16 1.96-.12 4.4-.27 6.72-.27 5.75 0 8.76.94 8.96 2.8l.03.28.26.12c3.87 1.79 7.85 2.69 11.7 3.57 5.75 1.31 11.19 2.54 16.4 6.49 5.94 4.5 10.48 10.89 14.87 17.07.98 1.38 1.95 2.74 2.92 4.06 2.69 3.67 5.7 7.28 8.61 10.77 3.4 4.08 6.92 8.29 9.97 12.66 2.37 3.39 4.42 6.88 6.4 10.25 3.21 5.47 6.25 10.64 10.6 15.55 5.62 6.34 10.61 12.27 13.88 18.78v-2.15c-3.3-5.95-7.96-11.46-13.13-17.3-4.29-4.84-7.3-9.96-10.48-15.39-1.99-3.39-4.05-6.9-6.45-10.32-3.08-4.4-6.61-8.63-10.02-12.73-2.9-3.48-5.9-7.07-8.57-10.72-.97-1.32-1.93-2.68-2.91-4.05-4.43-6.24-9.01-12.69-15.08-17.29-5.39-4.08-11.18-5.39-16.78-6.67-3.72-.84-7.55-1.72-11.26-3.39-.63-3.05-5.93-3.41-9.91-3.41-2.36 0-4.81.15-6.79.27-1.38.09-2.58.16-3.41.16h-.13c-4.91 0-9.43-1.33-14.2-2.74-.92-.27-1.85-.54-2.8-.81-6.54-1.86-11.32-5.19-16.38-8.71-3.78-2.63-7.69-5.35-12.43-7.44-7.25-3.19-14.33-4.56-21.18-5.88-4.12-.8-8.38-1.62-12.67-2.83-1.56-.44-3.1-1.01-4.62-1.66h-2.46c2.21 1.05 4.48 1.97 6.8 2.63zm-123.32 252.63c.78 4.02 1.08 8.39 1.37 12.62.35 5.06.71 10.3 1.89 15.01 1.63 6.49 8.04 11.11 13.71 15.19 1.05.75 2.07 1.49 3.02 2.21 3.58 2.71 7.2 5.69 11.04 8.84 10.51 8.64 21.37 17.57 32.91 22.23 6.77 2.74 14.01 4.13 21.5 4.13 12.44 0 24.87-3.93 34.99-11.07 5.35-3.77 10.73-5.63 15.94-7.42 6.72-2.32 13.07-4.5 19.04-10.44 7.87-7.82 13.02-18.57 18-28.96 2.56-5.35 4.99-10.41 7.74-15.03 2.2-3.69 4.49-7.25 6.71-10.69 6.73-10.42 13.09-20.27 16.48-33.2 3.37-12.85-4.79-25.23-11.98-36.16-2.31-3.51-4.49-6.82-6.29-10.08-10.1-18.3-24.88-30.14-39.51-31.67-8.25-.86-17-1.44-27.52-1.81-7.97-.28-12.68-2.43-18.63-5.15-1.48-.68-3.03-1.39-4.74-2.12-3.04-1.3-6.38-1.93-10.21-1.93-4.19 0-8.48.75-12.63 1.48-1.09.19-2.18.38-3.26.56-2.84.46-5.75.8-8.56 1.12-6.25.72-12.72 1.46-19.01 3.69-19.65 6.96-34.04 27.6-37.98 33.76l-.47.73c-9.05 14.14-16.87 26.36-16.87 43.54 0 10.46 3.24 16.7 6.67 23.3 2.59 4.95 5.25 10.07 6.65 17.32zm4.41-83.63.47-.73c3.9-6.09 18.12-26.5 37.47-33.36 6.19-2.19 12.6-2.93 18.79-3.64 2.82-.32 5.74-.66 8.61-1.13 1.09-.18 2.18-.37 3.27-.56 4.11-.72 8.35-1.47 12.46-1.47 3.69 0 6.9.61 9.82 1.85 1.7.73 3.24 1.43 4.71 2.11 6.05 2.77 10.83 4.95 19.01 5.24 10.5.37 19.22.95 27.45 1.81 14.31 1.5 28.79 13.15 38.74 31.16 1.82 3.3 4.01 6.63 6.33 10.15 7.43 11.28 15.11 22.94 11.85 35.35-3.35 12.77-9.66 22.55-16.35 32.91-2.23 3.45-4.53 7.01-6.73 10.72-2.77 4.67-5.21 9.74-7.78 15.11-4.94 10.32-10.06 20.98-17.81 28.68-5.81 5.78-12.05 7.93-18.66 10.21-5.27 1.82-10.73 3.7-16.19 7.55-9.96 7.02-22.18 10.89-34.42 10.89-7.36 0-14.47-1.36-21.12-4.06-11.4-4.61-22.2-13.49-32.65-22.08-3.84-3.16-7.48-6.15-11.07-8.86-.96-.73-1.99-1.47-3.04-2.22-5.52-3.98-11.79-8.49-13.32-14.62-1.16-4.63-1.52-9.82-1.86-14.84-.29-4.26-.6-8.66-1.39-12.74-1.43-7.39-4.12-12.58-6.73-17.6-3.37-6.5-6.56-12.63-6.56-22.84-.01-16.88 7.73-28.98 16.7-42.99z"/><path d="m241.47 3.55c4.16 2.23 8.45 4.53 12.98 5.81 4.19 1.19 8.35 1.99 12.37 2.77 6.59 1.27 13.41 2.59 20.34 5.64 4.5 1.98 8.26 4.6 11.89 7.12 4.76 3.31 9.68 6.74 16.18 8.59.92.26 1.82.53 2.71.79 4.71 1.39 9.15 2.7 14.06 2.7h.13c.83 0 2.01-.08 3.36-.16 1.9-.12 4.27-.26 6.52-.26 5.57 0 8.49.91 8.68 2.71l.03.28.26.12c3.76 1.74 7.62 2.61 11.35 3.46 5.58 1.27 10.85 2.46 15.9 6.29 5.76 4.37 10.17 10.56 14.42 16.56.95 1.33 1.89 2.66 2.83 3.94 2.61 3.56 5.53 7.06 8.35 10.44 3.3 3.95 6.71 8.04 9.67 12.28 2.3 3.29 4.29 6.67 6.21 9.95 2.98 5.07 6.06 10.32 10.28 15.09 7.05 7.96 13.1 15.25 15.81 23.96.76 2.44 1.48 4.88 2.21 7.33.66 2.21 1.33 4.45 2.02 6.7v-3.43c-.36-1.19-.71-2.37-1.06-3.55-.73-2.45-1.45-4.9-2.21-7.34-2.76-8.9-8.89-16.28-16.01-24.32-4.16-4.69-7.08-9.66-10.17-14.93-1.93-3.29-3.93-6.69-6.25-10.01-2.99-4.27-6.41-8.37-9.72-12.34-2.81-3.37-5.72-6.86-8.31-10.4-.94-1.28-1.88-2.6-2.82-3.93-4.3-6.05-8.75-12.31-14.63-16.77-5.23-3.96-10.85-5.23-16.28-6.47-3.6-.82-7.32-1.66-10.91-3.28-.62-2.96-5.76-3.31-9.63-3.31-2.29 0-4.67.15-6.58.27-1.34.08-2.5.15-3.3.16h-.12c-4.76 0-9.14-1.29-13.78-2.65-.89-.26-1.79-.53-2.72-.79-6.34-1.8-10.98-5.03-15.88-8.45-3.67-2.55-7.46-5.19-12.06-7.22-7.03-3.1-13.9-4.43-20.55-5.71-4-.77-8.13-1.57-12.28-2.75-4.42-1.26-8.67-3.53-12.78-5.73-1.69-.9-3.4-1.82-5.13-2.67h-2.34c2.33 1.04 4.67 2.28 6.96 3.51zm-90.39 440.24c-1.59-1.78-3.1-3.45-4.66-4.97-7.87-7.68-16.98-13.83-25.8-19.77-8.07-5.44-15.7-10.58-22.5-16.83l-1.23-1.13c-7.37-6.79-14.34-13.2-24.38-15.76-10.11-2.58-18.57-5.21-27.78-13.44-1.42-1.27-2.82-2.5-4.19-3.71-14.57-12.83-26.08-22.96-23.83-45.13 2.15-21.14-.05-43.66-6.19-63.41-4.27-13.73-6.26-29.8-8.18-45.35-.75-6.03-1.45-11.72-2.28-17.28l-.06-.37v7.15c.46 3.45.9 6.97 1.35 10.63 1.93 15.59 3.93 31.71 8.22 45.52 6.1 19.62 8.28 42 6.15 63.01-2.31 22.68 9.37 32.96 24.16 45.99 1.37 1.21 2.77 2.44 4.18 3.7 9.38 8.39 17.96 11.05 28.2 13.66 9.79 2.5 16.67 8.83 23.95 15.53l1.23 1.13c6.86 6.29 14.87 11.7 22.62 16.92 8.78 5.92 17.86 12.04 25.67 19.66 1.53 1.5 3.03 3.16 4.61 4.93 1.7 1.89 3.41 3.8 5.22 5.54h1.46c-2.07-1.92-4.02-4.08-5.94-6.22zm-13.87-189.81c.73 3.79 1.02 7.92 1.29 11.91.33 4.78.67 9.72 1.79 14.18 1.54 6.14 7.6 10.5 12.95 14.36.99.71 1.95 1.4 2.85 2.08 3.38 2.55 6.8 5.36 10.42 8.34 9.92 8.15 20.17 16.58 31.07 20.99 6.39 2.59 13.22 3.9 20.3 3.9 11.75 0 23.48-3.71 33.04-10.45 5.04-3.56 10.12-5.31 15.04-7 6.34-2.19 12.34-4.25 17.98-9.86 7.43-7.39 12.29-17.53 17-27.34 2.42-5.05 4.71-9.82 7.3-14.19 2.07-3.49 4.24-6.84 6.34-10.09 6.35-9.84 12.35-19.13 15.55-31.33 3.18-12.14-4.52-23.83-11.31-34.15-2.18-3.31-4.24-6.43-5.94-9.51-9.54-17.28-23.49-28.46-37.31-29.9-7.79-.81-16.05-1.36-25.98-1.71-7.52-.27-11.95-2.29-17.57-4.86-1.39-.64-2.86-1.31-4.47-2-2.87-1.23-6.03-1.83-9.64-1.83-3.96 0-8.01.71-11.92 1.4-1.03.18-2.06.36-3.08.53-2.68.44-5.42.75-8.08 1.06-5.9.68-12 1.38-17.95 3.48-18.56 6.57-32.13 26.06-35.85 31.87l-.44.69c-8.54 13.35-15.92 24.88-15.92 41.1 0 9.87 3.06 15.77 6.3 22.01 2.41 4.65 4.92 9.49 6.24 16.32zm4.21-78.91.44-.69c3.68-5.75 17.09-25 35.35-31.47 5.84-2.07 11.88-2.76 17.73-3.43 2.67-.31 5.42-.62 8.13-1.06 1.03-.17 2.06-.35 3.09-.53 3.87-.68 7.88-1.38 11.75-1.38 3.48 0 6.51.57 9.25 1.74 1.6.68 3.06 1.35 4.45 1.99 5.71 2.61 10.23 4.68 17.95 4.95 9.9.35 18.14.89 25.91 1.7 13.5 1.41 27.16 12.4 36.54 29.39 1.72 3.12 3.79 6.26 5.98 9.58 7 10.64 14.25 21.63 11.18 33.34-3.16 12.05-9.12 21.27-15.43 31.04-2.1 3.25-4.28 6.62-6.36 10.12-2.62 4.41-4.91 9.19-7.34 14.26-4.67 9.73-9.49 19.8-16.8 27.06-5.48 5.45-11.37 7.48-17.6 9.63-4.98 1.72-10.13 3.49-15.29 7.13-9.39 6.62-20.92 10.27-32.46 10.27-6.94 0-13.65-1.29-19.92-3.83-10.75-4.35-20.95-12.73-30.81-20.83-3.63-2.98-7.05-5.8-10.45-8.36-.91-.69-1.87-1.38-2.87-2.1-5.21-3.75-11.12-8.01-12.57-13.79-1.09-4.37-1.43-9.27-1.76-14-.28-4.02-.56-8.18-1.31-12.03-1.35-6.98-3.89-11.88-6.35-16.61-3.18-6.13-6.18-11.91-6.18-21.54-.01-15.92 7.29-27.33 15.75-40.55z"/><path d="m28.03 377.7c1.46 1.28 2.94 2.59 4.44 3.93 9.95 8.9 19.06 11.73 29.93 14.5 10.41 2.66 17.71 9.38 25.45 16.5l1.3 1.2c7.28 6.68 15.79 12.42 24.02 17.96 8.27 5.58 16.79 11.32 24.39 18.19h1.46c-7.85-7.24-16.7-13.23-25.29-19.02-8.57-5.78-16.67-11.24-23.9-17.87l-1.3-1.2c-7.83-7.21-15.22-14.02-25.88-16.74-10.74-2.74-19.73-5.53-29.51-14.28-1.51-1.35-2.99-2.65-4.45-3.94-15.48-13.61-27.71-24.37-25.31-47.93 1.86-18.29.65-37.54-3.38-55.39v4.86c3.22 16.41 4.07 33.82 2.38 50.43-2.44 24.07 9.96 34.98 25.65 48.8zm-28.03-366.44c2.8-2.95 5.41-6.08 7.96-9.15.58-.7 1.17-1.4 1.76-2.11h-1.3c-.41.49-.83.99-1.23 1.47-2.32 2.79-4.68 5.62-7.19 8.32zm111.86 225.61c3.02 8.78 6.14 17.86 6.61 27.68.12 2.42.17 4.87.22 7.24.31 14.32.59 27.84 14.64 37.14 4.19 2.78 8.84 4.91 13.33 6.96 3.95 1.81 8.04 3.68 11.82 5.99 6.32 3.86 11.71 8.33 17.41 13.07.94.78 1.89 1.57 2.84 2.35 9.13 7.52 23.81 16.49 41.86 16.49 1.74 0 3.5-.09 5.23-.26 17.45-1.73 31.12-10.2 44.74-19.47 3.85-2.62 7.7-4.89 11.43-7.09 10.14-5.98 19.71-11.63 26.93-22.9 3.09-4.82 4.84-9.82 6.7-15.11 1.1-3.14 2.24-6.38 3.68-9.56 2.24-4.94 5.22-9.72 8.1-14.35 2.15-3.46 4.38-7.03 6.27-10.64 2.27-4.32 4.83-8.22 7.31-11.99 6.58-10.01 12.8-19.47 11.37-33.98-1.21-12.18-7.75-20.87-14.69-30.08-2.41-3.19-4.89-6.5-7.14-9.96-1.98-3.05-3.77-6.07-5.5-8.99-6.98-11.78-13-21.95-27.33-27.84-7.03-2.89-15.09-3.25-22.88-3.59-.85-.04-1.7-.07-2.53-.11-1.14-.05-2.3-.08-3.47-.1-3.37-.06-6.85-.12-9.91-1.05-2.08-.63-3.97-1.72-5.97-2.87-1.76-1.01-3.58-2.06-5.53-2.76-9.15-3.28-16.63-4.74-24.26-4.74-4.53 0-8.93-.4-13.19-.79-4.21-.38-8.57-.78-13-.78-15.82 0-28.98 4.69-45.42 16.18-12.28 8.59-20.94 16.63-27.24 25.32-2.64 3.64-4.42 7.41-6.3 11.4-.45.95-.9 1.9-1.36 2.86-1.19 2.44-2.66 4.81-4.08 7.11-2.03 3.27-4.14 6.66-5.48 10.36-2.8 7.72-2.51 18.93-1.3 26.84 1.17 7.69 3.67 14.98 6.09 22.02zm-3.85-48.52c1.31-3.6 3.38-6.95 5.39-10.18 1.44-2.31 2.93-4.71 4.13-7.2.47-.96.92-1.92 1.37-2.87 1.86-3.95 3.62-7.67 6.21-11.24 6.24-8.59 14.82-16.57 27.01-25.09 16.26-11.37 29.25-16 44.85-16 4.38 0 8.71.4 12.9.78 4.28.39 8.71.79 13.28.79 7.5 0 14.88 1.45 23.92 4.68 1.87.67 3.65 1.7 5.37 2.69 1.96 1.13 3.99 2.3 6.18 2.96 3.19.97 6.75 1.03 10.18 1.09 1.16.02 2.31.04 3.44.1.84.04 1.69.08 2.54.11 7.71.34 15.67.69 22.55 3.52 14.02 5.77 19.96 15.8 26.85 27.43 1.74 2.93 3.53 5.96 5.52 9.02 2.26 3.49 4.76 6.81 7.18 10.01 6.85 9.09 13.32 17.68 14.49 29.58 1.4 14.16-4.72 23.47-11.21 33.33-2.49 3.79-5.07 7.71-7.36 12.07-1.87 3.57-4.09 7.13-6.24 10.57-2.9 4.65-5.9 9.46-8.16 14.46-1.46 3.22-2.6 6.48-3.71 9.64-1.84 5.24-3.57 10.19-6.6 14.91-7.09 11.07-16.57 16.66-26.6 22.58-3.74 2.21-7.61 4.49-11.49 7.13-13.51 9.2-27.06 17.6-44.28 19.3-1.69.17-3.42.25-5.13.25-17.75 0-32.22-8.84-41.22-16.26-.95-.78-1.89-1.57-2.84-2.35-5.73-4.76-11.15-9.26-17.53-13.16-3.83-2.34-7.94-4.22-11.92-6.05-4.46-2.04-9.07-4.16-13.2-6.89-13.61-9.01-13.89-22.28-14.19-36.33-.05-2.38-.1-4.83-.22-7.27-.48-9.96-3.62-19.11-6.66-27.95-2.4-7-4.89-14.24-6.05-21.85-1.2-7.75-1.49-18.77 1.25-26.31zm-86.24 260.88c-2.14-.59-4.36-1.2-6.44-2.2l-.68-.33c-4.91-2.36-9.76-4.69-14.65-7.01v1.11c4.74 2.26 9.46 4.52 14.22 6.81l.68.33c1.93.93 3.94 1.52 5.91 2.07h3.64c-.89-.29-1.79-.54-2.68-.78z"/><path d="m188.39 449.63c4.57-.45 9.3-.92 13.74-.7 4.36.21 8.77.6 13.03.97.38.03.77.07 1.15.1h17c-5.95-.05-12.1-.57-18.06-1.09-4.27-.37-8.69-.76-13.07-.97-.8-.04-1.6-.06-2.41-.06-3.76 0-7.69.39-11.48.76-3.79.38-7.71.76-11.45.76-2.94 0-5.51-.24-7.84-.73-6.14-1.28-10.85-6.53-15.41-11.61-1.54-1.72-3-3.35-4.51-4.82-7.62-7.44-16.46-13.4-25.01-19.16-7.82-5.27-15.21-10.26-21.8-16.3l-1.2-1.1c-7.15-6.58-13.9-12.79-23.63-15.28-9.79-2.5-18-5.04-26.91-13.02-1.37-1.23-2.73-2.42-4.06-3.59-14.12-12.43-25.27-22.25-23.09-43.72 2.08-20.49-.05-42.31-6-61.45-4.14-13.3-6.06-28.88-7.93-43.94-.72-5.84-1.41-11.36-2.21-16.74-.26-1.74-.74-3.96-1.3-6.53-2.92-13.46-7.8-35.99 4.41-51.94 4.37-5.7 7.8-12.52 11.43-19.74 5.37-10.68 10.93-21.73 19.71-28.65 10.2-8.04 19.69-17.22 28.87-26.1 11.06-10.7 22.5-21.75 35.21-30.86 16.34-11.7 33.82-19.48 56.67-25.21 11.34-2.85 23.06-3.68 33.15-4.23 2.18-.12 4.43-.29 6.8-.48 4.52-.35 9.2-.72 13.76-.72 4.92 0 8.97.44 12.37 1.33 4.43 1.17 8.69 3.45 12.82 5.66 4.03 2.16 8.19 4.39 12.58 5.63 4.06 1.15 8.09 1.93 11.98 2.68 6.39 1.23 12.99 2.51 19.71 5.47 4.36 1.92 8 4.45 11.52 6.9 4.61 3.21 9.38 6.53 15.69 8.33.89.25 1.76.51 2.62.76 4.56 1.34 8.87 2.61 13.63 2.61h.12c.81 0 1.94-.07 3.26-.15 1.84-.11 4.13-.25 6.32-.25 5.39 0 8.21.88 8.39 2.61l.03.28.26.12c3.64 1.69 7.38 2.53 11 3.36 5.4 1.23 10.51 2.39 15.4 6.09 5.58 4.23 9.85 10.23 13.97 16.04.92 1.29 1.83 2.57 2.74 3.82 2.53 3.45 5.36 6.84 8.09 10.12 3.2 3.83 6.5 7.79 9.37 11.9 2.23 3.19 4.16 6.47 6.02 9.64 2.89 4.92 5.87 10 9.96 14.62 6.83 7.71 12.69 14.77 15.31 23.21.73 2.36 1.44 4.73 2.14 7.1 2.22 7.5 4.53 15.25 7.89 22.96.28.64.56 1.3.84 1.96v-2.53c-3.3-7.6-5.57-15.26-7.77-22.68-.7-2.38-1.41-4.75-2.14-7.11-2.68-8.63-8.61-15.78-15.52-23.58-4.03-4.54-6.85-9.36-9.85-14.46-1.87-3.19-3.81-6.48-6.06-9.7-2.89-4.14-6.21-8.11-9.42-11.96-2.73-3.27-5.54-6.65-8.05-10.07-.91-1.24-1.82-2.52-2.73-3.81-4.17-5.87-8.48-11.93-14.18-16.26-5.07-3.84-10.52-5.08-15.79-6.27-3.49-.79-7.09-1.61-10.56-3.18-.61-2.87-5.59-3.21-9.34-3.21-2.22 0-4.53.14-6.38.26-1.3.08-2.42.15-3.2.15h-.12c-4.61 0-8.86-1.25-13.35-2.57-.86-.25-1.74-.51-2.63-.77-6.14-1.75-10.63-4.87-15.39-8.18-3.55-2.48-7.23-5.03-11.68-7-6.82-3-13.48-4.29-19.92-5.53-3.87-.75-7.88-1.52-11.9-2.66-4.28-1.22-8.4-3.42-12.38-5.55-4.17-2.24-8.49-4.55-13.03-5.74-3.49-.92-7.62-1.37-12.63-1.37-4.6 0-9.3.37-13.84.72-2.37.18-4.61.36-6.78.48-10.14.54-21.91 1.37-33.34 4.24-22.98 5.77-40.57 13.59-57.01 25.37-12.77 9.15-24.24 20.23-35.33 30.95-9.16 8.86-18.63 18.02-28.79 26.03-8.96 7.07-14.56 18.21-19.99 28.98-3.61 7.17-7.02 13.95-11.33 19.58-12.49 16.32-7.54 39.13-4.59 52.76.55 2.55 1.03 4.76 1.29 6.46.8 5.37 1.49 10.88 2.21 16.72 1.87 15.11 3.8 30.73 7.97 44.12 5.91 19.01 8.03 40.69 5.96 61.05-2.24 21.99 9.09 31.95 23.42 44.58 1.33 1.17 2.68 2.36 4.05 3.59 9.09 8.13 17.4 10.71 27.33 13.25 9.49 2.42 16.15 8.55 23.2 15.04l1.2 1.1c6.64 6.1 14.41 11.33 21.92 16.4 8.51 5.74 17.31 11.67 24.87 19.05 1.49 1.45 2.94 3.07 4.47 4.77 4.67 5.2 9.49 10.57 15.95 11.92.64.13 1.31.25 1.99.35h13.7c1.3-.13 2.61-.25 3.9-.38zm-188.39-432.4v1.38c3.84-3.69 7.28-7.81 10.62-11.83 1.88-2.25 3.82-4.58 5.79-6.78h-1.32c-1.78 2.02-3.54 4.1-5.23 6.14-3.13 3.75-6.33 7.6-9.86 11.09zm26.09 425.65c-2.54-1.6-5.38-2.38-8.11-3.13-2.14-.59-4.36-1.2-6.44-2.2l-.68-.33c-3.64-1.75-7.24-3.48-10.86-5.21v1.11c3.47 1.66 6.93 3.32 10.42 5l.68.33c2.16 1.04 4.42 1.66 6.61 2.26 2.79.77 5.43 1.49 7.85 3.01 3.08 1.94 6.08 4.06 9.05 6.27h1.67c-3.33-2.51-6.72-4.92-10.19-7.11zm25.44-422.96c-6.92 4.73-14.08 9.61-20.09 16.25-2.14 2.37-4.23 4.88-6.26 7.31-4.12 4.95-8.38 10.08-13.35 14.3-3.58 3.06-7.72 5.7-11.83 8.22v1.17c4.31-2.64 8.69-5.39 12.49-8.63 5.03-4.28 9.32-9.44 13.47-14.43 2.02-2.42 4.1-4.93 6.23-7.28 5.92-6.55 13.03-11.4 19.91-16.09 8.38-5.72 17.04-11.63 23.46-20.59.04-.05.07-.1.11-.15h-1.24c-6.29 8.58-14.73 14.34-22.9 19.92z"/><path d="m290.6 4.81c4.79 2.11 8.77 4.88 12.63 7.57 5.05 3.52 10.28 7.15 17.17 9.12.98.28 1.93.56 2.88.84 5 1.47 9.71 2.86 14.92 2.86h.14c.88 0 2.13-.08 3.57-.17 2.02-.12 4.53-.28 6.93-.28 5.93 0 9.04.98 9.24 2.9l.03.28.26.12c3.99 1.84 8.08 2.77 12.04 3.67 5.93 1.35 11.52 2.62 16.9 6.69 6.12 4.64 10.8 11.22 15.32 17.58 1.01 1.42 2 2.82 3.01 4.19 2.77 3.78 5.87 7.5 8.87 11.09 3.5 4.2 7.12 8.54 10.27 13.04 2.45 3.5 4.56 7.09 6.6 10.56 3.31 5.63 6.43 10.96 10.91 16.01 2.76 3.12 5.38 6.14 7.73 9.18v-1.62c-2.16-2.72-4.51-5.43-6.98-8.22-4.42-4.98-7.52-10.27-10.8-15.86-2.05-3.49-4.17-7.1-6.64-10.63-3.17-4.53-6.8-8.89-10.32-13.11-2.99-3.58-6.08-7.29-8.83-11.04-1-1.36-1.99-2.76-3-4.17-4.56-6.42-9.28-13.07-15.53-17.8-5.55-4.2-11.51-5.55-17.28-6.86-3.83-.87-7.79-1.77-11.6-3.5-.64-3.14-6.09-3.51-10.19-3.51-2.43 0-4.96.16-6.99.28-1.42.09-2.66.16-3.51.17h-.13c-5.06 0-9.71-1.37-14.63-2.82-.94-.28-1.9-.56-2.88-.84-6.74-1.92-11.66-5.35-16.88-8.98-3.9-2.71-7.92-5.52-12.8-7.66-3.93-1.73-7.82-2.94-11.65-3.89h-4.45c5.11 1.09 10.36 2.47 15.67 4.81zm-164.61 251.82c.83 4.27 1.15 8.91 1.46 13.4.37 5.37.75 10.93 2.01 15.93 1.72 6.88 8.53 11.78 14.54 16.11 1.11.8 2.19 1.58 3.21 2.34 3.8 2.87 7.65 6.04 11.72 9.38 11.15 9.17 22.68 18.64 34.93 23.59 7.19 2.91 14.86 4.38 22.8 4.38 13.2 0 26.38-4.17 37.12-11.74 5.68-4 11.4-5.98 16.93-7.88 7.13-2.46 13.86-4.78 20.2-11.08 8.35-8.3 13.82-19.7 19.1-30.73 2.72-5.68 5.29-11.05 8.21-15.96 2.33-3.92 4.77-7.7 7.13-11.35 7.14-11.06 13.89-21.51 17.49-35.22 3.57-13.63-5.08-26.76-12.71-38.35-2.45-3.72-4.77-7.24-6.68-10.7-10.72-19.42-26.39-31.98-41.91-33.6-8.76-.92-18.04-1.53-29.21-1.92-8.47-.3-13.46-2.58-19.78-5.47-1.58-.72-3.22-1.47-5.03-2.25-3.22-1.38-6.76-2.05-10.82-2.05-4.45 0-9 .8-13.4 1.57-1.15.2-2.31.4-3.46.59-3.01.49-6.1.85-9.08 1.19-6.64.76-13.5 1.55-20.18 3.91-20.85 7.38-36.11 29.28-40.29 35.82l-.49.77c-9.6 15.01-17.9 27.97-17.9 46.19 0 11.09 3.44 17.71 7.07 24.72 2.7 5.28 5.53 10.72 7.02 18.41zm4.62-88.77.49-.77c4.14-6.47 19.23-28.14 39.78-35.42 6.57-2.33 13.38-3.11 19.96-3.86 3-.34 6.1-.7 9.13-1.19 1.15-.19 2.31-.39 3.47-.6 4.36-.77 8.87-1.56 13.23-1.56 3.92 0 7.34.64 10.43 1.97 1.8.77 3.43 1.52 5.01 2.24 6.42 2.94 11.49 5.25 20.16 5.56 11.14.39 20.4 1 29.14 1.92 15.2 1.59 30.58 13.96 41.14 33.09 1.93 3.5 4.26 7.03 6.72 10.77 7.89 11.97 16.04 24.35 12.58 37.55-3.55 13.56-10.26 23.94-17.36 34.94-2.36 3.66-4.81 7.44-7.15 11.38-2.94 4.95-5.53 10.34-8.26 16.04-5.25 10.95-10.67 22.27-18.9 30.45-6.17 6.14-12.8 8.42-19.82 10.84-5.6 1.93-11.38 3.92-17.18 8.01-10.57 7.45-23.55 11.56-36.55 11.56-7.82 0-15.36-1.45-22.43-4.31-12.1-4.89-23.57-14.32-34.67-23.44-4.08-3.35-7.93-6.52-11.75-9.41-1.02-.77-2.11-1.55-3.23-2.36-5.87-4.23-12.52-9.02-14.15-15.54-1.23-4.92-1.61-10.43-1.98-15.76-.31-4.52-.63-9.19-1.47-13.52-1.52-7.84-4.37-13.34-7.14-18.67-3.58-6.9-6.96-13.41-6.96-24.26.02-17.93 8.24-30.77 17.76-45.65z"/><path d="m223.4 228.75c.85 1.03 1.36 2.24 1.91 3.53.3.72.62 1.46 1 2.18 1.09 2.04 2.52 4.12 4.94 4.12.08 0 .16 0 .24-.01 2.63-.15 4.47-2.17 5.33-3.37 2.1-2.92 2.85-5.85 1.99-7.86-.67-1.56-2.19-2.51-4.53-2.84-1.51-.21-2.85-.69-4.27-1.2-.81-.29-1.65-.59-2.54-.85l-.16-.05c-.94-.27-2.51-.72-3.88-.72-1 0-1.73.25-2.19.74-1.65 1.79.76 4.65 1.91 6.03zm-1.42-5.64c.26-.28.75-.42 1.45-.42 1.23 0 2.71.43 3.6.68l.16.05c.85.24 1.68.54 2.47.83 1.41.51 2.86 1.03 4.47 1.25 1.97.27 3.23 1.03 3.75 2.24.72 1.68.01 4.25-1.88 6.88-.76 1.05-2.36 2.83-4.58 2.95-2.01.09-3.22-1.66-4.24-3.58-.36-.68-.67-1.4-.96-2.1-.55-1.29-1.11-2.63-2.06-3.77l-.25-.3c-.96-1.16-2.99-3.57-1.93-4.71z"/><path d="m215.21 230.59c2.11 1.84 3.34 4.82 4.53 7.71 2.03 4.93 4.13 10.02 10.62 10.02.48 0 .99-.03 1.5-.09 8.06-.88 14.59-8.69 14.56-17.4-.01-1.55.4-3.19.84-4.92.7-2.8 1.42-5.7.3-8.29-1.14-2.61-3.77-2.95-5.94-2.95-.93 0-1.9.07-2.84.14-1.58.11-3.09.19-4.12.03-1.11-.18-2.18-.4-3.22-.62-2.13-.44-4.15-.87-6.31-.87-1.46 0-2.85.2-4.24.6-3.77 1.09-7.79 2.83-8.96 7.46-1.16 4.56-.39 5.98 3.28 9.18zm-2.32-8.94c1.04-4.13 4.59-5.68 8.27-6.74 1.3-.38 2.6-.56 3.96-.56 2.06 0 4.03.41 6.11.84 1.05.22 2.14.45 3.27.63 1.12.18 2.77.1 4.35-.02.92-.07 1.87-.13 2.77-.13 2.81 0 4.31.7 5.03 2.35.99 2.28.31 5.01-.35 7.65-.43 1.72-.87 3.49-.87 5.17.03 8.21-6.1 15.57-13.67 16.4-.48.05-.95.08-1.39.08-5.82 0-7.7-4.57-9.69-9.4-1.23-2.99-2.51-6.09-4.8-8.08-3.41-2.97-4.04-4-2.99-8.19z"/><path d="m171.82 222.74c0 5.18 1.02 8.97 2.58 14.17l.5 1.67c1.11 3.75 2.17 7.3 3.84 10.97.77 1.69 1.23 3.48 1.66 5.2.66 2.62 1.35 5.32 3.17 7.78 7.57 10.22 15.87 16.21 26.13 18.86 3.26.84 6.85 1.27 10.67 1.27 5.3 0 11.24-.81 18.18-2.47.7-.17 1.4-.33 2.11-.49 5.99-1.39 12.19-2.82 16.95-7.37 1.67-1.6 2.74-3.54 3.77-5.42.47-.86.96-1.76 1.51-2.62.86-1.35 1.88-2.62 2.87-3.86 1-1.25 2.04-2.55 2.93-3.94.69-1.09 1.15-2.3 1.6-3.46.42-1.12.82-2.17 1.42-3.14.74-1.22 1.93-2.32 3.08-3.37.7-.64 1.42-1.31 2.03-1.99 2.51-2.82 3.93-6.24 5.3-9.55.47-1.14.96-2.32 1.48-3.44 4.64-9.97 4.13-19.47-1.47-27.48-1.08-1.55-2.45-2.98-3.78-4.37-1.44-1.51-2.81-2.94-3.72-4.41-.51-.83-.95-1.61-1.37-2.36-1.57-2.82-2.93-5.25-6.87-7.07-4.12-1.9-8.11-2.83-13.35-3.11-5.42-.29-8.15-.95-12.69-3.1-4.3-2.03-8.53-3.11-13.57-4.11-2.13-.42-3.71-.61-5.13-.61-2.77 0-5.07.76-8.11 2.06-2.56 1.1-5.48 1.37-8.3 1.63-1.75.16-3.55.33-5.28.69-4.41.92-9.09 2.07-13.64 5.01-6.38 4.13-8.62 11.44-10.43 17.32-.58 1.9-1.42 3.7-2.22 5.44-.53 1.13-1.02 2.21-1.45 3.3-1.08 2.75-.84 5.85-.61 8.85.12 1.24.21 2.4.21 3.52zm1.35-12c.42-1.07.91-2.13 1.43-3.25.82-1.77 1.67-3.6 2.27-5.57 2.23-7.27 4.39-13.12 10.01-16.77 4.4-2.85 8.8-3.93 13.3-4.88 1.67-.35 3.44-.51 5.16-.67 2.9-.27 5.9-.54 8.61-1.71 2.99-1.29 5.11-1.98 7.72-1.98 1.35 0 2.87.18 4.93.59 4.96.98 9.13 2.05 13.33 4.03 4.69 2.21 7.5 2.9 13.07 3.19 5.1.27 8.99 1.17 12.98 3.02 3.65 1.68 4.87 3.87 6.42 6.65.42.76.87 1.56 1.39 2.4.97 1.56 2.37 3.03 3.85 4.58 1.3 1.36 2.64 2.76 3.68 4.25 5.39 7.7 5.86 16.85 1.38 26.48-.53 1.14-1.02 2.33-1.5 3.48-1.34 3.23-2.73 6.57-5.13 9.27-.58.65-1.25 1.27-1.96 1.92-1.2 1.1-2.44 2.24-3.26 3.59-.64 1.05-1.08 2.2-1.5 3.31-.45 1.17-.87 2.28-1.51 3.28-.86 1.34-1.88 2.62-2.87 3.85-1.01 1.25-2.05 2.55-2.94 3.94-.56.89-1.06 1.8-1.55 2.67-1.04 1.9-2.03 3.69-3.59 5.18-4.56 4.36-10.62 5.76-16.48 7.12-.71.16-1.41.33-2.12.5-6.86 1.64-12.73 2.44-17.94 2.44-3.74 0-7.25-.42-10.42-1.24-10.02-2.59-18.15-8.46-25.57-18.49-1.7-2.29-2.33-4.79-3-7.43-.45-1.77-.91-3.59-1.72-5.37-1.65-3.61-2.69-7.12-3.79-10.84l-.5-1.68c-1.53-5.11-2.54-8.84-2.54-13.88 0-1.16-.09-2.34-.19-3.59-.21-2.87-.45-5.85.55-8.39z"/><path d="m164.69 221.98c0 5.82 1.15 10.09 2.9 15.93l.56 1.88c1.25 4.22 2.44 8.21 4.32 12.34.87 1.91 1.38 3.92 1.88 5.86.75 2.94 1.52 5.98 3.56 8.73 8.51 11.49 17.85 18.23 29.38 21.21 3.66.95 7.7 1.43 12 1.43 5.96 0 12.64-.91 20.45-2.78.79-.19 1.58-.37 2.37-.55 6.74-1.56 13.7-3.17 19.05-8.28 1.87-1.79 3.02-3.88 4.23-6.09.53-.97 1.09-1.98 1.7-2.95.97-1.52 2.12-2.96 3.24-4.35 1.13-1.41 2.3-2.86 3.29-4.42.78-1.22 1.29-2.58 1.79-3.89.46-1.2.93-2.45 1.6-3.55.84-1.38 2.18-2.62 3.48-3.81.79-.72 1.6-1.47 2.28-2.24 2.82-3.17 4.42-7.01 5.96-10.73.53-1.28 1.08-2.6 1.67-3.87 5.22-11.2 4.65-21.88-1.65-30.87-1.22-1.74-2.76-3.35-4.24-4.91-1.63-1.7-3.16-3.31-4.2-4.98-.58-.93-1.07-1.81-1.54-2.66-1.76-3.16-3.28-5.89-7.7-7.93-4.63-2.14-9.12-3.18-15-3.49-6.11-.32-9.19-1.08-14.31-3.5-4.83-2.28-9.59-3.5-15.26-4.62-2.39-.47-4.17-.69-5.76-.69-3.1 0-5.69.85-9.11 2.32-2.9 1.24-6.18 1.55-9.37 1.84-1.96.18-4 .37-5.93.77-4.96 1.04-10.22 2.33-15.33 5.64-7.16 4.64-9.68 12.86-11.71 19.46-.66 2.15-1.6 4.17-2.51 6.13-.59 1.28-1.15 2.48-1.63 3.71-1.21 3.08-.94 6.57-.68 9.94.12 1.4.22 2.7.22 3.97zm1.4-13.53c.47-1.2 1.02-2.39 1.61-3.66.92-1.99 1.88-4.05 2.55-6.26 2.52-8.2 4.94-14.8 11.3-18.91 4.96-3.22 9.92-4.43 14.99-5.5 1.88-.39 3.88-.58 5.82-.76 3.26-.3 6.63-.61 9.67-1.91 3.38-1.45 5.76-2.24 8.71-2.24 1.52 0 3.24.21 5.56.67 5.59 1.11 10.29 2.31 15.03 4.54 5.26 2.49 8.42 3.26 14.68 3.59 5.75.3 10.13 1.32 14.64 3.4 4.12 1.9 5.5 4.38 7.25 7.51.48.86.97 1.75 1.56 2.7 1.09 1.76 2.66 3.4 4.32 5.14 1.46 1.53 2.97 3.11 4.15 4.79 6.08 8.68 6.62 19.01 1.56 29.87-.6 1.28-1.15 2.62-1.69 3.91-1.51 3.64-3.08 7.41-5.78 10.45-.65.73-1.41 1.43-2.21 2.17-1.35 1.24-2.74 2.52-3.66 4.03-.72 1.18-1.21 2.47-1.68 3.71-.5 1.32-.98 2.57-1.7 3.71-.97 1.51-2.12 2.95-3.23 4.33-1.13 1.41-2.31 2.87-3.3 4.44-.63 1-1.2 2.02-1.74 3.01-1.18 2.14-2.29 4.17-4.05 5.85-5.15 4.92-11.98 6.5-18.58 8.03-.8.18-1.59.37-2.38.56-7.73 1.85-14.34 2.75-20.21 2.75-4.21 0-8.17-.47-11.75-1.39-11.29-2.92-20.45-9.54-28.82-20.83-1.92-2.59-2.63-5.4-3.39-8.38-.5-1.99-1.03-4.04-1.94-6.03-1.86-4.07-3.03-8.02-4.27-12.21l-.56-1.88c-1.73-5.76-2.86-9.96-2.86-15.64 0-1.3-.1-2.63-.21-4.03-.26-3.29-.52-6.66.61-9.53z"/><path d="m163.91 249.5c.72 2.28.8 4.43.88 6.71.07 1.85.14 3.76.59 5.72.68 2.96 2.92 5.79 4.89 8.28.39.49.76.96 1.12 1.43 5.76 7.53 11.81 11.06 19.47 15.54l.87.51c13.28 7.77 23.87 11.23 34.33 11.23 5.82 0 11.52-1.06 17.45-3.25 16.74-6.17 29.25-17.64 36.18-33.18 3.65-8.19 7.08-14.76 10.77-20.69.73-1.17 1.49-2.34 2.25-3.51 3.57-5.48 7.26-11.15 8.24-17.66 2.12-14.16-7.1-24.28-16.03-34.07-1.52-1.67-3.09-3.39-4.57-5.1-.47-.54-.91-1.08-1.33-1.6-1.72-2.1-3.2-3.91-5.86-5.08-1.77-.77-3.75-1.05-5.66-1.32-1.69-.24-3.44-.48-5.05-1.07-1.34-.48-2.54-1.23-3.8-2.01-1.47-.91-2.98-1.85-4.74-2.36-2.39-.7-5-.78-7.53-.87-1.7-.06-3.46-.12-5.09-.36-3.15-.48-6.36-1.21-9.46-1.91-4.81-1.09-9.78-2.21-14.7-2.46-5.17-.26-10.52 1.12-15.67 2.45-2.27.59-4.41 1.14-6.52 1.56-11.41 2.26-20.49 8.9-27.76 20.3-1.04 1.64-2.31 3.25-3.54 4.8-2.28 2.89-4.64 5.87-5.84 9.36-1.99 5.81-1.55 12.43-.92 18.71 1.06 10.48 3.69 19.36 7.03 29.9zm-5.16-48.27c1.14-3.33 3.45-6.24 5.68-9.07 1.24-1.57 2.53-3.2 3.6-4.88 7.21-11.32 15.83-17.63 27.11-19.86 2.14-.42 4.3-.98 6.58-1.57 4.66-1.21 9.49-2.45 14.13-2.45.41 0 .82.01 1.23.03 4.83.24 9.76 1.36 14.52 2.44 3.12.71 6.34 1.44 9.53 1.92 1.69.26 3.48.32 5.2.37 2.46.08 5.01.17 7.28.83 1.63.47 3.08 1.38 4.49 2.25 1.26.78 2.56 1.58 3.99 2.1 1.71.62 3.51.87 5.25 1.12 1.93.27 3.75.53 5.39 1.25 2.45 1.07 3.86 2.8 5.49 4.8.43.52.87 1.06 1.35 1.62 1.49 1.72 3.07 3.45 4.59 5.12 8.76 9.62 17.83 19.56 15.78 33.25-.94 6.29-4.57 11.87-8.08 17.26-.77 1.18-1.53 2.35-2.26 3.53-3.72 5.97-7.17 12.58-10.84 20.81-6.82 15.28-19.13 26.57-35.62 32.65-5.81 2.14-11.4 3.18-17.1 3.18-10.28 0-20.71-3.42-33.83-11.09l-.87-.51c-7.86-4.59-13.54-7.91-19.18-15.28-.36-.47-.74-.95-1.13-1.44-1.91-2.41-4.07-5.14-4.7-7.88-.43-1.86-.5-3.72-.56-5.53-.08-2.25-.17-4.57-.93-6.98-3.32-10.48-5.94-19.31-6.98-29.68-.6-6.2-1.04-12.69.89-18.31z"/><path d="m205.74 239.79c2.33 2.13 2.93 3.99 3.81 7.09 1.16 4.13 2.74 7.29 6.63 9.33 3.44 1.8 6.67 1.93 10.4 2.08.55.02 1.1.04 1.67.07.48.02.96.04 1.43.04 9.18 0 17.51-4.37 21.75-11.4 1.74-2.89 2.41-5.55 3.13-8.37.22-.86.44-1.74.7-2.65.55-1.94 1.5-3.78 2.52-5.74.86-1.65 1.74-3.36 2.36-5.14 1.53-4.43 1.19-8.79-.97-12.28-2.35-3.79-6.61-6.26-11.98-6.95-1.52-.19-3.02-.22-4.29-.22-.55 0-1.1.01-1.65.01-.55.01-1.09.01-1.64.01-1.54 0-3.34-.04-5.07-.35-1.25-.23-2.49-.53-3.69-.83-2.6-.65-5.29-1.32-8.3-1.18-6.76.31-13.31 2.65-17.51 6.25-3.36 2.88-4.34 6.86-5.3 10.71-.33 1.35-.68 2.75-1.12 4.06-1.04 3.08.2 6.02 1.56 8.77 1.35 2.71 3.32 4.63 5.56 6.69zm-6.17-15.14c.46-1.35.81-2.77 1.15-4.14.96-3.86 1.86-7.51 4.98-10.19 4.04-3.47 10.36-5.72 16.91-6.01.25-.01.5-.02.75-.02 2.55 0 4.84.57 7.26 1.17 1.21.3 2.47.61 3.75.84 1.81.33 3.66.37 5.24.37.55 0 1.1-.01 1.65-.01.55-.01 1.09-.01 1.64-.01 1.24 0 2.7.03 4.16.21 5.07.65 9.07 2.96 11.26 6.49 2 3.23 2.31 7.29.88 11.42-.59 1.71-1.46 3.38-2.3 5-.99 1.91-2.01 3.88-2.59 5.92-.26.92-.49 1.81-.71 2.68-.73 2.87-1.35 5.34-3.02 8.1-4.27 7.08-12.95 11.33-22.28 10.88-.57-.03-1.13-.05-1.68-.07-3.61-.14-6.73-.27-9.98-1.97-3.58-1.87-5.04-4.84-6.13-8.72-.9-3.18-1.57-5.24-4.09-7.56-2.17-1.99-4.06-3.84-5.33-6.39-1.33-2.65-2.43-5.26-1.52-7.99z"/><path d="m179 223.5c0 4.53.89 7.85 2.26 12.39l.43 1.46c.97 3.28 1.89 6.38 3.36 9.59.67 1.47 1.07 3.03 1.45 4.53.58 2.29 1.18 4.66 2.78 6.81 6.62 8.94 13.89 14.18 22.86 16.5 2.85.74 5.99 1.11 9.34 1.11 4.63 0 9.83-.71 15.89-2.16.61-.15 1.23-.29 1.84-.43 5.24-1.21 10.66-2.47 14.83-6.45 1.46-1.4 2.4-3.1 3.3-4.75.41-.75.84-1.54 1.32-2.29.75-1.17 1.64-2.29 2.5-3.36.88-1.09 1.79-2.23 2.56-3.44.61-.96 1.01-2.01 1.4-3.04.37-.97.72-1.89 1.23-2.74.65-1.06 1.68-2.01 2.68-2.93.61-.56 1.25-1.15 1.78-1.75 2.2-2.47 3.44-5.47 4.65-8.36.41-.99.84-2.02 1.29-3 4.06-8.73 3.62-17.05-1.29-24.07-.95-1.36-2.15-2.61-3.3-3.82-1.26-1.32-2.45-2.56-3.24-3.84-.45-.72-.83-1.41-1.19-2.06-1.38-2.47-2.57-4.6-6.03-6.2-3.61-1.66-7.1-2.48-11.68-2.72-4.72-.25-7.1-.83-11.06-2.7-3.76-1.77-7.46-2.72-11.87-3.59-1.86-.37-3.25-.53-4.49-.53-2.43 0-4.45.66-7.11 1.81-2.23.96-4.77 1.19-7.23 1.42-1.53.14-3.11.29-4.62.6-3.86.81-7.96 1.81-11.93 4.39-5.59 3.62-7.56 10.02-9.13 15.16-.51 1.66-1.24 3.23-1.94 4.75-.46.99-.89 1.93-1.27 2.88-.95 2.42-.74 5.13-.54 7.76.09 1.08.17 2.1.17 3.07zm1.3-10.46c.37-.93.79-1.85 1.25-2.83.72-1.55 1.46-3.15 1.99-4.87 1.95-6.34 3.82-11.44 8.72-14.62 3.83-2.48 7.67-3.43 11.59-4.25 1.45-.3 3-.45 4.5-.58 2.54-.23 5.16-.47 7.54-1.49 2.61-1.12 4.45-1.73 6.72-1.73 1.18 0 2.5.16 4.29.51 4.33.86 7.97 1.79 11.63 3.52 4.1 1.94 6.56 2.54 11.44 2.8 4.45.24 7.83 1.02 11.32 2.63 3.17 1.46 4.23 3.37 5.58 5.78.37.66.76 1.36 1.21 2.1.85 1.37 2.07 2.65 3.37 4.01 1.13 1.18 2.3 2.41 3.21 3.71 5.93 8.47 3.92 17.22 1.2 23.07-.46 1-.9 2.03-1.31 3.04-1.17 2.82-2.38 5.73-4.47 8.08-.5.56-1.09 1.1-1.71 1.68-1.05.97-2.14 1.96-2.85 3.15-.56.92-.94 1.93-1.31 2.9-.39 1.02-.75 1.98-1.31 2.85-.75 1.17-1.64 2.28-2.5 3.35-.88 1.1-1.79 2.23-2.57 3.45-.5.78-.93 1.57-1.35 2.34-.91 1.65-1.76 3.22-3.12 4.51-3.97 3.79-9.25 5.02-14.37 6.2-.62.14-1.24.29-1.85.43-5.99 1.43-11.11 2.13-15.66 2.13-3.26 0-6.32-.36-9.09-1.08-8.74-2.26-15.83-7.38-22.3-16.13-1.48-1.99-2.03-4.16-2.61-6.46-.39-1.55-.8-3.14-1.51-4.7-1.44-3.15-2.35-6.22-3.31-9.46l-.44-1.46c-1.34-4.46-2.22-7.71-2.22-12.11 0-1.01-.08-2.09-.16-3.14-.2-2.52-.4-5.12.46-7.33z"/><path d="m195.8 252.3c3.56 10.1 13.23 17 24.63 17.58 1.13.06 2.25.09 3.34.09 22.52 0 30.72-12.09 33.41-16.06.17-.25.32-.47.44-.64 1.27-1.77 2.16-3.97 3.02-6.1.39-.98.77-1.9 1.17-2.78 1.2-2.61 6.6-11.75 8.04-13.98 3.27-5.08 3.1-10.24 2.57-15.98-.67-7.27-3.93-13.31-8.71-16.14-4.88-2.89-8.73-3.52-13.74-3.64-5.03-.12-9.93-.74-15.73-1.65-2.07-.32-4.03-1.16-5.93-1.96-2.43-1.03-4.93-2.1-7.69-2.1-.57 0-1.13.05-1.69.13-3.32.54-6.83 1.34-11.02 2.55-1.04.3-2.1.56-3.15.81-2.08.51-4.24 1.04-6.25 1.88-2.45 1.03-4.31 1.94-6.06 4.43-1.13 1.61-1.75 3.36-2.34 5.04-.23.67-.47 1.33-.74 2-.38.94-.73 1.93-1.06 2.88-.53 1.51-1.08 3.07-1.78 4.54-1.3 2.72-1.9 4.52-2.03 7.97-.22 6.03 2.33 11.24 5.18 16.49 2.52 4.62 4.48 9.98 6.12 14.64zm-10.3-31.09c.12-3.27.69-4.98 1.93-7.57.73-1.52 1.28-3.11 1.82-4.64.35-.99.67-1.92 1.05-2.84.27-.68.51-1.36.75-2.04.6-1.7 1.16-3.3 2.21-4.8 1.6-2.27 3.27-3.1 5.63-4.09 1.94-.81 4.06-1.33 6.1-1.83 1.06-.26 2.13-.52 3.19-.82 4.16-1.19 7.62-1.99 10.91-2.52.5-.08 1.02-.12 1.53-.12 2.55 0 4.86.98 7.3 2.02 1.95.83 3.97 1.69 6.16 2.03 5.84.91 10.77 1.54 15.86 1.66 4.96.12 8.53.71 13.25 3.5 4.51 2.67 7.59 8.42 8.23 15.37.51 5.55.68 10.53-2.41 15.34-1.45 2.25-6.89 11.46-8.11 14.1-.41.9-.79 1.83-1.19 2.82-.83 2.07-1.7 4.21-2.9 5.88-.13.18-.28.4-.46.66-2.62 3.86-10.59 15.62-32.58 15.62-1.07 0-2.18-.03-3.29-.08-11-.56-20.31-7.2-23.74-16.92-1.66-4.7-3.63-10.1-6.19-14.79-2.78-5.09-5.26-10.16-5.05-15.94z"/><path d="m147.48 254.26c.91 2.87 1.01 5.71 1.11 8.46.08 2.32.17 4.71.73 7.15.85 3.69 3.64 7.22 6.11 10.34.48.61.96 1.21 1.4 1.79 7.21 9.43 14.79 13.86 24.4 19.47l1.09.64c16.64 9.74 29.91 14.08 43.02 14.08 7.28 0 14.43-1.33 21.85-4.06 20.98-7.73 36.66-22.11 45.34-41.58 4.59-10.28 8.89-18.54 13.53-25.99.92-1.47 1.87-2.93 2.83-4.41 4.47-6.87 9.1-13.97 10.32-22.11 2.66-17.71-8.9-30.39-20.08-42.66-1.91-2.09-3.88-4.26-5.74-6.41-.59-.69-1.14-1.36-1.68-2.01-2.14-2.62-3.99-4.88-7.31-6.34-2.2-.96-4.67-1.31-7.07-1.65-2.13-.3-4.33-.61-6.37-1.35-1.69-.61-3.2-1.55-4.8-2.54-1.83-1.13-3.73-2.31-5.92-2.94-2.98-.87-6.25-.98-9.41-1.08-2.14-.07-4.35-.14-6.4-.46-3.96-.6-7.98-1.51-11.87-2.4-6.03-1.37-12.26-2.78-18.43-3.08-6.48-.32-13.17 1.41-19.62 3.08-2.84.74-5.53 1.43-8.19 1.96-14.29 2.83-25.66 11.15-34.76 25.43-1.32 2.06-2.91 4.08-4.46 6.04-2.86 3.62-5.81 7.35-7.3 11.71-2.49 7.27-1.93 15.56-1.14 23.43 1.33 13.13 4.63 24.28 8.82 37.49zm-6.72-60.58c1.44-4.19 4.34-7.86 7.14-11.41 1.56-1.97 3.17-4.01 4.51-6.12 9.07-14.23 19.91-22.17 34.11-24.98 2.69-.53 5.39-1.23 8.25-1.97 5.86-1.52 11.92-3.08 17.77-3.08.52 0 1.03.01 1.55.04 6.08.3 12.27 1.7 18.25 3.06 3.91.89 7.95 1.8 11.94 2.41 2.11.32 4.35.4 6.52.47 3.1.1 6.31.21 9.17 1.04 2.06.6 3.89 1.74 5.67 2.84 1.57.97 3.2 1.98 4.99 2.62 2.14.77 4.39 1.09 6.57 1.4 2.43.34 4.73.66 6.8 1.57 3.1 1.36 4.88 3.53 6.94 6.05.54.66 1.09 1.34 1.69 2.03 1.87 2.16 3.85 4.33 5.76 6.43 11.02 12.09 22.42 24.6 19.83 41.83-1.19 7.92-5.75 14.93-10.17 21.71-.96 1.48-1.92 2.95-2.84 4.42-4.67 7.49-8.99 15.78-13.6 26.11-8.57 19.21-24.05 33.41-44.77 41.05-7.31 2.69-14.34 4-21.5 4-12.92 0-26.04-4.3-42.52-13.94l-1.09-.64c-9.88-5.77-17.01-9.94-24.11-19.21-.45-.59-.93-1.19-1.41-1.81-2.4-3.03-5.12-6.47-5.92-9.94-.54-2.35-.63-4.69-.71-6.96-.1-2.81-.21-5.72-1.16-8.73-4.17-13.16-7.46-24.26-8.77-37.28-.76-7.77-1.32-15.93 1.11-23.01z"/><path d="m50.65 360.94c1.29 1.14 2.61 2.3 3.95 3.5 8.85 7.92 16.95 10.43 26.62 12.9 9.23 2.36 15.72 8.33 22.58 14.65l1.17 1.07c6.47 5.94 14.04 11.04 21.35 15.97 8.29 5.59 16.86 11.36 24.22 18.55 1.45 1.41 2.86 2.98 4.35 4.65 4.55 5.06 9.25 10.3 15.54 11.62 2.34.49 4.91.73 7.84.73 3.7 0 7.54-.38 11.25-.75 4.45-.44 9.05-.9 13.38-.69 4.24.21 8.54.58 12.69.95 6.12.54 12.45 1.09 18.55 1.09 11.58 0 20.69-2.08 28.66-6.55 19.21-10.77 35.51-18.68 51.31-24.89 12.22-4.8 21.01-13.66 29.51-22.22 5.97-6.01 12.13-12.22 19.47-17.04 2.77-1.82 5.85-3.43 9.11-5.13 6.42-3.35 13.06-6.82 17.28-12.11 3.73-4.68 5.72-10.08 7.65-15.3 1.32-3.58 2.69-7.29 4.6-10.66 3.16-5.6 5.78-11.43 8.31-17.07 4.88-10.87 9.49-21.14 17.74-30.19 6.76-7.42 11.86-14.45 14.77-24.66 1.39-4.89 3.47-9.24 5.67-13.84.59-1.23 1.18-2.49 1.77-3.75v-2.41c-.87 1.96-1.77 3.87-2.67 5.74-2.22 4.65-4.32 9.03-5.73 14-2.86 10.02-7.88 16.95-14.55 24.26-8.36 9.16-13.21 19.99-17.91 30.45-2.52 5.62-5.13 11.44-8.27 16.99-1.95 3.45-3.33 7.19-4.67 10.81-1.9 5.15-3.87 10.47-7.49 15.03-4.08 5.12-10.63 8.54-16.96 11.84-3.14 1.64-6.38 3.33-9.19 5.18-7.42 4.88-13.63 11.13-19.63 17.17-8.43 8.49-17.15 17.26-29.17 21.99-15.84 6.23-32.19 14.16-51.44 24.95-7.81 4.38-16.76 6.42-28.17 6.42-6.06 0-12.37-.55-18.47-1.08-4.16-.36-8.47-.74-12.73-.95-.78-.04-1.56-.06-2.35-.06-3.66 0-7.49.38-11.18.74s-7.5.74-11.15.74c-2.87 0-5.36-.23-7.64-.71-5.97-1.25-10.56-6.36-15-11.3-1.5-1.68-2.93-3.26-4.4-4.69-7.42-7.25-16.03-13.05-24.36-18.66-7.62-5.14-14.82-9.99-21.23-15.88l-1.16-1.07c-6.96-6.41-13.53-12.46-23.01-14.88-9.54-2.43-17.52-4.91-26.2-12.68-1.34-1.2-2.66-2.36-3.95-3.5-13.75-12.1-24.6-21.66-22.48-42.57 2.03-19.96-.04-41.21-5.84-59.85-4.03-12.95-5.91-28.12-7.72-42.79-.7-5.69-1.37-11.06-2.15-16.31-.25-1.69-.72-3.85-1.26-6.36-2.84-13.11-7.59-35.04 4.29-50.57 4.25-5.56 7.59-12.19 11.13-19.22 5.23-10.4 10.64-21.15 19.19-27.9 9.93-7.83 19.18-16.77 28.11-25.42 10.77-10.42 21.91-21.18 34.29-30.05 15.91-11.39 32.93-18.96 55.19-24.55 11.04-2.77 22.45-3.58 32.28-4.12 2.12-.12 4.31-.29 6.63-.47 4.4-.34 8.96-.7 13.4-.7 4.79 0 8.73.42 12.05 1.3 4.31 1.14 8.46 3.36 12.48 5.51 3.92 2.1 7.98 4.28 12.26 5.49 3.96 1.12 7.88 1.88 11.67 2.61 6.22 1.2 12.65 2.44 19.19 5.32 4.25 1.87 7.79 4.34 11.21 6.72 4.49 3.13 9.14 6.36 15.28 8.11.87.25 1.72.5 2.55.74 4.44 1.31 8.64 2.55 13.28 2.55h.12c.79 0 1.89-.07 3.17-.15 1.79-.11 4.03-.25 6.15-.25 5.24 0 7.99.85 8.16 2.53l.03.28.26.12c3.55 1.64 7.19 2.47 10.71 3.27 5.26 1.19 10.23 2.32 15 5.93 5.44 4.12 9.59 9.96 13.6 15.62.9 1.26 1.78 2.51 2.67 3.72 2.46 3.36 5.22 6.66 7.88 9.86 3.11 3.73 6.33 7.59 9.12 11.58 2.17 3.1 4.05 6.3 5.86 9.38 2.81 4.79 5.72 9.74 9.71 14.24 6.65 7.5 12.36 14.38 14.91 22.6.71 2.3 1.4 4.6 2.08 6.91 2.17 7.3 4.41 14.85 7.68 22.37 2.21 5.06 4.56 10.86 6.54 17.02v-3.15c-1.77-5.13-3.75-9.97-5.63-14.27-3.25-7.46-5.48-14.98-7.64-22.25-.69-2.31-1.37-4.62-2.09-6.92-2.61-8.4-8.39-15.37-15.12-22.96-3.92-4.43-6.67-9.12-9.59-14.09-1.82-3.1-3.71-6.31-5.9-9.45-2.82-4.03-6.05-7.9-9.17-11.65-2.65-3.18-5.4-6.47-7.84-9.81-.89-1.21-1.77-2.45-2.66-3.71-4.06-5.71-8.25-11.62-13.81-15.83-4.94-3.74-10.24-4.94-15.38-6.11-3.39-.77-6.9-1.57-10.28-3.09-.6-2.8-5.46-3.13-9.11-3.13-2.16 0-4.41.14-6.21.25-1.27.08-2.36.15-3.12.15h-.11c-4.49 0-8.62-1.22-13-2.5-.84-.25-1.69-.5-2.56-.75-5.98-1.7-10.35-4.75-14.98-7.97-3.46-2.41-7.04-4.9-11.38-6.81-6.64-2.93-13.13-4.18-19.4-5.39-3.77-.73-7.67-1.48-11.59-2.59-4.17-1.18-8.18-3.33-12.06-5.41-4.07-2.18-8.27-4.43-12.7-5.6-3.4-.9-7.42-1.33-12.3-1.33-4.48 0-9.05.36-13.48.7-2.31.18-4.49.35-6.61.47-9.88.54-21.35 1.35-32.47 4.15-22.39 5.62-39.51 13.24-55.53 24.71-12.44 8.91-23.61 19.7-34.4 30.14-8.92 8.63-18.15 17.55-28.04 25.35-8.73 6.88-14.19 17.74-19.47 28.23-3.51 6.98-6.83 13.58-11.03 19.06-12.14 15.89-7.33 38.11-4.45 51.38.54 2.49 1 4.64 1.25 6.29.78 5.23 1.45 10.6 2.15 16.28 1.82 14.71 3.71 29.93 7.76 42.97 5.76 18.51 7.81 39.63 5.8 59.45-2.18 21.42 8.85 31.13 22.81 43.42z"/><path d="m228.5 229.92c.05.26.06.55.07.85.02.69.04 1.46.64 2.12.49.54 1.12.83 1.83.83 1.37 0 2.59-1.01 3.15-1.96.61-1.02.77-1.97.5-2.83-.27-.85-.98-1.55-2.04-2.02-.57-.25-2.03-.85-3.22-.85-1.13 0-1.61.53-1.8.98-.27.61.11 1.31.48 1.99.16.33.34.67.39.89zm.92-2.85c1.03 0 2.42.58 2.82.76.55.25 1.26.69 1.49 1.41.18.57.04 1.25-.41 2.01-.5.84-1.48 1.47-2.29 1.47-.42 0-.79-.17-1.09-.5-.35-.39-.36-.89-.38-1.48-.01-.33-.02-.68-.09-1.03-.08-.37-.28-.75-.5-1.16-.16-.31-.51-.94-.44-1.11.05-.08.17-.37.89-.37z"/><path d="m219.55 228.2c.44.33.84.63 1.17.9 2.24 1.84 2.87 3.63 3.71 6.41.54 1.8 2.65 7.66 7.01 7.66 1.64 0 3.34-.87 5.06-2.58 3-2.98 9.02-13.65 6.95-18.67-.87-2.12-2.99-2.98-6.25-2.52-.71.1-1.41.15-2.13.15-2.12 0-4-.44-6-.9-1.66-.39-3.37-.78-5.34-.96-.32-.03-.69-.04-1.1-.04-2.95 0-6.74.77-7.7 2.93-1.4 3.13 2.23 5.83 4.62 7.62zm-3.71-7.23c.71-1.61 4.02-2.34 6.79-2.34.38 0 .72.01 1.01.04 1.9.17 3.58.56 5.2.94 2.05.48 3.99.93 6.23.93.76 0 1.5-.05 2.27-.16 2.78-.39 4.5.23 5.19 1.91 1.84 4.46-3.77 14.64-6.73 17.58-1.53 1.52-2.99 2.29-4.35 2.29-2.92 0-5.04-3.59-6.05-6.95-.89-2.96-1.61-4.91-4.03-6.89-.34-.28-.75-.59-1.21-.92-2.28-1.7-5.39-4.01-4.32-6.43z"/><path d="m142.1 252.83c.69 3.59.96 7.49 1.22 11.26.31 4.52.63 9.2 1.69 13.41 1.46 5.81 7.2 9.95 12.26 13.59.93.67 1.84 1.33 2.69 1.97 3.19 2.42 6.43 5.07 9.85 7.89 9.38 7.71 19.08 15.68 29.39 19.85 6.05 2.45 12.51 3.69 19.21 3.69 11.12 0 22.22-3.51 31.27-9.89 4.77-3.36 9.57-5.02 14.22-6.62 6-2.07 11.67-4.02 17.02-9.33 7.03-6.99 11.63-16.58 16.08-25.86 2.29-4.78 4.45-9.29 6.91-13.42 1.96-3.3 4.01-6.47 5.99-9.54 6.01-9.31 11.69-18.1 14.71-29.64 3.01-11.49-4.27-22.56-10.7-32.32-2.06-3.13-4.01-6.08-5.62-9-9.03-16.35-22.23-26.93-35.31-28.3-7.37-.77-15.18-1.28-24.57-1.62-7.11-.25-11.3-2.17-16.61-4.59-1.32-.6-2.71-1.24-4.23-1.89-2.72-1.16-5.71-1.73-9.13-1.73-3.75 0-7.58.67-11.28 1.32-.97.17-1.94.34-2.91.5-2.53.41-5.13.71-7.64 1-5.58.64-11.36 1.3-16.98 3.29-17.56 6.22-30.4 24.65-33.92 30.15l-.42.65c-8.08 12.63-15.06 23.54-15.06 38.89 0 9.35 2.89 14.92 5.96 20.82 2.28 4.44 4.66 9.01 5.91 15.47zm4.02-74.62.42-.65c3.48-5.43 16.16-23.64 33.42-29.75 5.52-1.96 11.23-2.61 16.76-3.24 2.52-.29 5.13-.59 7.69-1.01.97-.16 1.95-.33 2.92-.5 3.66-.64 7.45-1.31 11.11-1.31 3.29 0 6.15.54 8.74 1.65 1.51.65 2.9 1.28 4.21 1.88 5.41 2.47 9.68 4.43 16.99 4.68 9.37.33 17.15.84 24.5 1.61 12.76 1.33 25.67 11.72 34.54 27.79 1.63 2.95 3.58 5.92 5.66 9.06 6.62 10.05 13.47 20.45 10.57 31.51-2.99 11.39-8.62 20.12-14.59 29.35-1.99 3.08-4.04 6.26-6.01 9.57-2.48 4.17-4.65 8.7-6.95 13.49-4.41 9.2-8.97 18.72-15.88 25.59-5.18 5.15-10.74 7.07-16.64 9.1-4.71 1.62-9.58 3.3-14.47 6.75-8.88 6.26-19.78 9.71-30.69 9.71-6.56 0-12.9-1.22-18.83-3.62-10.17-4.11-19.81-12.04-29.13-19.7-3.43-2.82-6.67-5.49-9.88-7.91-.86-.65-1.77-1.31-2.71-1.98-4.92-3.55-10.51-7.57-11.87-13.02-1.03-4.13-1.35-8.76-1.66-13.24-.26-3.8-.53-7.74-1.24-11.38-1.28-6.6-3.68-11.24-6.01-15.72-3.01-5.79-5.85-11.26-5.85-20.36-.02-15.06 6.89-25.86 14.88-38.35z"/><path d="m157.94 251.23c.79 2.49.88 4.96.97 7.35.07 2.02.15 4.11.64 6.24.74 3.23 3.18 6.31 5.33 9.03.42.53.83 1.05 1.22 1.56 6.29 8.22 12.89 12.08 21.26 16.97l.95.56c14.5 8.48 26.06 12.27 37.49 12.27 6.35 0 12.58-1.16 19.05-3.54 18.29-6.74 31.95-19.27 39.51-36.23 3.99-8.95 7.73-16.13 11.78-22.62.8-1.28 1.63-2.55 2.46-3.84 3.9-5.99 7.93-12.18 8.99-19.28 2.32-15.45-7.76-26.5-17.5-37.19-1.66-1.82-3.38-3.71-5-5.58-.52-.6-1-1.18-1.46-1.75-1.87-2.29-3.49-4.26-6.39-5.53-1.93-.84-4.08-1.15-6.17-1.44-1.85-.26-3.76-.53-5.53-1.17-1.47-.53-2.78-1.34-4.17-2.2-1.6-.99-3.25-2.01-5.17-2.57-2.6-.76-5.46-.85-8.21-.95-1.86-.06-3.78-.13-5.56-.4-3.45-.52-6.95-1.32-10.34-2.09-5.25-1.19-10.68-2.42-16.05-2.69-5.65-.28-11.48 1.23-17.11 2.68-2.48.64-4.81 1.24-7.13 1.7-12.46 2.47-22.37 9.72-30.31 22.17-1.14 1.79-2.53 3.55-3.88 5.25-2.49 3.15-5.07 6.41-6.37 10.21-2.17 6.34-1.69 13.56-1 20.42 1.17 11.44 4.05 21.15 7.7 32.66zm-5.73-52.75c1.25-3.64 3.77-6.83 6.21-9.92 1.36-1.72 2.76-3.5 3.93-5.33 7.89-12.38 17.31-19.28 29.66-21.72 2.34-.46 4.69-1.07 7.18-1.72 5.1-1.32 10.38-2.68 15.46-2.68.45 0 .9.01 1.35.03 5.29.26 10.67 1.48 15.88 2.66 3.4.77 6.92 1.57 10.41 2.1 1.84.28 3.79.35 5.68.41 2.7.09 5.48.18 7.97.91 1.78.52 3.38 1.51 4.92 2.46 1.37.85 2.79 1.73 4.35 2.29 1.87.68 3.83.95 5.73 1.22 2.11.3 4.11.58 5.91 1.36 2.68 1.18 4.23 3.06 6.02 5.25.47.57.95 1.16 1.48 1.77 1.63 1.88 3.35 3.77 5.02 5.59 9.58 10.52 19.5 21.39 17.25 36.37-1.03 6.88-5 12.98-8.84 18.88-.84 1.29-1.67 2.57-2.47 3.85-4.07 6.52-7.83 13.75-11.84 22.74-7.45 16.71-20.92 29.06-38.95 35.7-6.35 2.34-12.47 3.48-18.7 3.48-11.24 0-22.65-3.74-36.99-12.13l-.95-.56c-8.59-5.02-14.8-8.65-20.97-16.71-.39-.51-.81-1.04-1.23-1.57-2.09-2.64-4.45-5.63-5.14-8.63-.47-2.04-.54-4.08-.62-6.05-.09-2.45-.18-4.99-1.01-7.62-3.63-11.45-6.5-21.11-7.63-32.44-.7-6.74-1.18-13.84.93-19.99z"/><path d="m199.37 245.22c1.78 3.71 3.62 7.54 6.29 10.91 4.4 5.58 12.19 8.77 21.36 8.77 1.84 0 3.69-.13 5.51-.39 12.26-1.75 23.08-10.31 26.31-20.83.38-1.23.67-2.48.95-3.7.54-2.34 1.1-4.76 2.29-6.98.45-.84.93-1.68 1.4-2.52 1.58-2.78 3.22-5.65 3.87-8.82 2.04-9.91-2.66-18.24-12.27-21.74-2.05-.75-4.31-1.08-7.34-1.08-1.21 0-2.45.05-3.65.1-1.18.05-2.4.1-3.58.1-2.04 0-4.71-.13-7.23-1.15-4.22-1.71-8.24-2.54-12.28-2.54-3.02 0-6.17.45-9.63 1.39-3.1.84-6.43 1.95-9.8 4.38-2.32 1.68-4.03 3.33-5.22 5.07-1.21 1.76-2.29 7.15-3.16 11.49-.4 2.01-.75 3.75-1.04 4.77-1.49 5.31-.82 9.18 2.36 13.84 1.92 2.8 3.42 5.91 4.86 8.93zm-6.26-22.49c.3-1.06.65-2.82 1.06-4.85.81-4.02 1.92-9.53 3.01-11.12 1.12-1.64 2.75-3.22 4.98-4.83 3.24-2.34 6.47-3.41 9.48-4.23 3.37-.91 6.43-1.35 9.37-1.35 3.97 0 7.75.78 11.91 2.46 2.68 1.08 5.47 1.22 7.61 1.22 1.2 0 2.43-.05 3.62-.1s2.41-.1 3.61-.1c2.9 0 5.06.31 7 1.02 9.25 3.37 13.59 11.07 11.63 20.6-.62 3.01-2.22 5.81-3.76 8.52-.48.85-.97 1.69-1.42 2.54-1.25 2.34-1.82 4.83-2.38 7.23-.28 1.2-.56 2.44-.93 3.63-3.07 10-13.79 18.46-25.49 20.13-1.77.25-3.58.38-5.37.38-8.86 0-16.36-3.06-20.58-8.39-2.6-3.29-4.41-7.07-6.17-10.73-1.46-3.05-2.98-6.2-4.94-9.06-3.01-4.35-3.63-7.99-2.24-12.97z"/><path d="m153.46 252.53c.84 2.66.94 5.28 1.03 7.83.08 2.15.16 4.37.68 6.63.79 3.42 3.38 6.7 5.67 9.59.45.57.89 1.12 1.3 1.66 6.68 8.74 13.71 12.84 22.6 18.04l1.01.59c15.42 9.02 27.71 13.04 39.86 13.04 6.75 0 13.37-1.23 20.25-3.77 19.44-7.17 33.97-20.49 42.01-38.52 4.25-9.52 8.23-17.16 12.53-24.06.85-1.36 1.73-2.72 2.62-4.08 4.14-6.37 8.43-12.95 9.56-20.49 2.46-16.42-8.25-28.17-18.61-39.53-1.77-1.94-3.59-3.94-5.32-5.93-.55-.63-1.06-1.26-1.55-1.86-1.99-2.43-3.7-4.53-6.78-5.88-2.04-.9-4.34-1.22-6.55-1.53-1.97-.28-4-.56-5.89-1.24-1.56-.56-2.96-1.43-4.44-2.34-1.7-1.05-3.46-2.14-5.49-2.73-2.77-.81-5.8-.91-8.73-1-1.98-.07-4.02-.13-5.92-.42-3.67-.56-7.39-1.4-10.99-2.22-5.58-1.27-11.36-2.57-17.07-2.86-6-.3-12.21 1.3-18.19 2.85-2.63.68-5.12 1.32-7.58 1.81-13.24 2.62-23.78 10.33-32.22 23.56-1.22 1.91-2.69 3.78-4.12 5.59-2.65 3.35-5.38 6.81-6.77 10.85-2.31 6.74-1.79 14.42-1.06 21.71 1.21 12.14 4.28 22.47 8.16 34.71zm-6.16-56.11c1.33-3.88 4.01-7.27 6.61-10.56 1.44-1.83 2.94-3.72 4.18-5.67 8.4-13.17 18.43-20.52 31.57-23.12 2.49-.49 4.99-1.14 7.64-1.82 5.43-1.4 11.04-2.85 16.45-2.85.48 0 .96.01 1.43.04 5.63.28 11.36 1.58 16.9 2.83 3.62.82 7.36 1.67 11.06 2.23 1.96.3 4.03.37 6.04.43 2.87.1 5.84.19 8.48.96 1.9.55 3.6 1.61 5.24 2.62 1.46.9 2.96 1.83 4.62 2.43 1.98.72 4.07 1.01 6.09 1.29 2.25.32 4.37.61 6.29 1.45 2.86 1.25 4.51 3.27 6.41 5.6.5.61 1.01 1.24 1.57 1.88 1.73 2 3.56 4.01 5.33 5.95 10.2 11.19 20.75 22.77 18.36 38.71-1.1 7.33-5.32 13.82-9.41 20.09-.89 1.37-1.78 2.73-2.63 4.1-4.33 6.94-8.33 14.62-12.59 24.18-7.93 17.78-22.26 30.92-41.44 37.99-6.76 2.49-13.27 3.7-19.9 3.7-11.96 0-24.1-3.98-39.36-12.91l-1.01-.59c-9.14-5.34-15.75-9.21-22.32-17.79-.42-.54-.86-1.1-1.31-1.67-2.22-2.81-4.74-5.99-5.48-9.19-.5-2.17-.58-4.34-.65-6.44-.1-2.61-.19-5.3-1.08-8.09-3.86-12.18-6.91-22.46-8.12-34.52-.7-7.15-1.21-14.71 1.03-21.26z"/><path d="m210.43 236.42c1.41 1.75 2.75 3.4 3.69 5.61l.23.54c1.26 2.99 2.26 5.34 4.97 7.68 2.57 2.21 6.14 3.38 10.32 3.38 5.67 0 11.87-2.2 15.8-5.61 5.93-5.15 6.38-11.99 6.86-19.24.09-1.44.19-2.93.34-4.38.56-5.58-.74-9.74-3.85-12.37-2.25-1.89-4.99-2.15-7.39-2.15-.83 0-1.66.03-2.5.07-.82.03-1.63.07-2.43.07h-.31c-2.05-.02-4.02-.31-5.92-.58-2-.28-4.06-.58-6.21-.58-.83 0-1.62.04-2.4.13-7.87.87-15.85 6.04-15.96 15.62-.04 3.6.92 6.69 2.92 9.45.61.84 1.24 1.61 1.84 2.36zm11.3-26.44c.75-.08 1.5-.12 2.29-.12 2.08 0 4.02.28 6.07.57 1.94.28 3.94.56 6.05.59h.32c.81 0 1.64-.03 2.47-.07.82-.03 1.64-.07 2.46-.07 2.21 0 4.74.23 6.74 1.91 2.84 2.4 4.02 6.27 3.5 11.51-.15 1.47-.25 2.97-.34 4.42-.47 7.03-.91 13.67-6.52 18.55-3.75 3.26-9.7 5.36-15.14 5.36-3.94 0-7.28-1.09-9.67-3.14-2.53-2.18-3.49-4.44-4.7-7.31l-.23-.54c-.99-2.34-2.37-4.04-3.83-5.85-.6-.74-1.22-1.51-1.82-2.33-1.9-2.61-2.77-5.42-2.73-8.85.11-8.96 7.65-13.81 15.08-14.63zm-167.55-161.26c-10.04 9.71-20.42 19.75-31.56 28.53-9.8 7.74-15.94 19.94-21.88 31.75-.25.49-.49.97-.74 1.46v2.22l1.63-3.23c5.89-11.71 11.98-23.81 21.61-31.41 11.17-8.81 21.58-18.87 31.63-28.6 12.13-11.72 24.66-23.84 38.6-33.82 8.54-6.11 17.37-11.24 26.98-15.62h-2.39c-8.91 4.21-17.16 9.08-25.16 14.81-14.01 10.02-26.57 22.17-38.72 33.91zm41.29 393.83c-1.16-.99-2.32-2-3.5-3-9.01-7.76-18.32-15.78-28.32-22.09-2.54-1.6-5.38-2.38-8.11-3.13-2.14-.59-4.36-1.2-6.44-2.2l-.68-.33c-5.62-2.7-11.16-5.37-16.78-8.03-5.64-2.67-10.02-5.79-14.65-10.43-2-2-4.21-3.61-6.34-5.16-2.5-1.82-5.08-3.69-7.29-6.2l-1.64-1.86c-.57-.64-1.14-1.29-1.71-1.94v1.51c.32.36.64.73.96 1.09l1.64 1.86c2.28 2.59 4.91 4.5 7.45 6.35 2.1 1.53 4.27 3.11 6.22 5.05 4.72 4.72 9.18 7.9 14.93 10.62 5.61 2.66 11.16 5.33 16.77 8.03l.68.33c2.16 1.04 4.42 1.66 6.61 2.26 2.79.77 5.43 1.49 7.85 3.01 9.94 6.27 19.22 14.27 28.2 22 1.17 1.01 2.34 2.01 3.5 3.01 1.37 1.17 2.76 2.34 4.16 3.51 1.25 1.04 2.51 2.11 3.76 3.18h1.54c-1.55-1.33-3.11-2.65-4.66-3.94-1.4-1.16-2.79-2.33-4.15-3.5zm338.69-442.55h-1.23c4.56 6.3 8.65 12.99 12.59 19.49 1.46 2.41 2.95 4.85 4.47 7.29v-1.9c-1.22-1.98-2.43-3.96-3.62-5.91-3.82-6.31-7.8-12.81-12.21-18.97z"/><path d="m109.77 266.94c.13 2.62.18 5.26.24 7.82.33 15.44.64 30.02 15.78 40.05 4.52 2.99 9.54 5.29 14.39 7.51 4.26 1.95 8.67 3.97 12.76 6.47 6.82 4.17 12.63 8.99 18.79 14.1 1.02.85 2.04 1.69 3.07 2.54 9.85 8.11 25.69 17.78 45.15 17.78 1.88 0 3.78-.09 5.64-.28 18.82-1.87 33.57-11 48.27-21.01 4.15-2.83 8.31-5.28 12.34-7.66 10.94-6.45 21.27-12.55 29.06-24.7 3.33-5.2 5.22-10.59 7.23-16.3 1.19-3.39 2.42-6.89 3.97-10.32 2.42-5.34 5.63-10.5 8.74-15.49 2.33-3.73 4.73-7.59 6.77-11.47 2.45-4.66 5.21-8.87 7.89-12.94 7.1-10.8 13.81-21 12.26-36.65-1.3-13.13-8.37-22.51-15.84-32.44-2.6-3.45-5.28-7.01-7.71-10.75-2.14-3.29-4.07-6.55-5.93-9.7-7.53-12.7-14.03-23.67-29.48-30.03-7.58-3.12-16.28-3.5-24.68-3.87l-2.73-.12c-1.23-.06-2.48-.08-3.74-.1-3.64-.06-7.4-.13-10.71-1.13-2.25-.68-4.29-1.86-6.45-3.1-1.9-1.09-3.85-2.22-5.96-2.98-9.88-3.54-17.95-5.11-26.17-5.12-4.89 0-9.64-.43-14.24-.85-4.55-.41-9.25-.84-14.03-.84-17.06 0-31.26 5.06-48.99 17.46-13.25 9.27-22.59 17.95-29.39 27.32-2.85 3.93-4.77 7.99-6.79 12.29-.48 1.02-.97 2.06-1.47 3.09-1.28 2.64-2.87 5.2-4.41 7.67-2.19 3.53-4.46 7.19-5.91 11.18-3.02 8.33-2.71 20.41-1.41 28.94 1.27 8.3 3.97 16.16 6.58 23.76 3.23 9.47 6.6 19.27 7.11 29.87zm-11.36-82.24c1.41-3.89 3.66-7.5 5.82-10.99 1.55-2.5 3.16-5.08 4.46-7.76.51-1.04.99-2.08 1.48-3.1 2.01-4.26 3.91-8.28 6.7-12.13 6.73-9.28 16-17.89 29.16-27.09 17.55-12.27 31.58-17.28 48.43-17.28 4.73 0 9.41.43 13.93.84 4.62.42 9.4.86 14.33.86 8.1 0 16.07 1.56 25.83 5.06 2.02.72 3.94 1.83 5.8 2.9 2.11 1.22 4.3 2.48 6.66 3.19 3.44 1.04 7.27 1.11 10.98 1.18 1.25.02 2.49.04 3.71.1l2.74.12c8.32.37 16.92.74 24.35 3.8 15.14 6.23 21.56 17.07 29 29.62 1.87 3.16 3.81 6.43 5.96 9.74 2.44 3.76 5.14 7.34 7.74 10.81 7.39 9.82 14.38 19.09 15.65 31.94 1.51 15.3-5.1 25.35-12.1 36-2.69 4.09-5.47 8.32-7.94 13.02-2.02 3.85-4.42 7.7-6.73 11.41-3.13 5.02-6.36 10.21-8.8 15.6-1.57 3.47-2.81 6.99-4 10.4-1.99 5.66-3.86 11-7.13 16.1-7.66 11.95-17.89 17.99-28.72 24.38-4.04 2.38-8.21 4.85-12.39 7.69-14.58 9.93-29.22 19-47.81 20.84-1.83.18-3.69.27-5.54.27-19.17 0-34.79-9.54-44.52-17.55-1.03-.85-2.05-1.69-3.07-2.54-6.18-5.13-12.03-9.99-18.91-14.19-4.13-2.53-8.57-4.56-12.86-6.52-4.82-2.21-9.79-4.49-14.25-7.44-14.7-9.74-15.01-24.07-15.33-39.24-.05-2.56-.11-5.21-.24-7.84-.52-10.74-3.91-20.61-7.19-30.16-2.6-7.56-5.28-15.37-6.53-23.58-1.32-8.42-1.63-20.31 1.33-28.46zm-71.86-130.24c6.26-7.56 12.48-14.83 19.77-20.73 3.14-2.54 6.49-4.9 9.72-7.18 5.75-4.06 11.7-8.25 16.83-13.68 2.03-2.15 4-4.36 5.9-6.5 1.94-2.18 3.85-4.31 5.8-6.37h-1.38c-1.73 1.86-3.44 3.77-5.17 5.71-1.9 2.13-3.86 4.34-5.88 6.48-5.07 5.36-10.97 9.52-16.68 13.55-3.25 2.29-6.6 4.66-9.77 7.22-7.36 5.95-13.62 13.27-19.91 20.87-7.58 9.16-16.02 17.09-25.78 24.23v1.23c.11-.08.23-.16.33-.23 9.94-7.24 18.52-15.29 26.22-24.6zm18.98-39.88c-6.92 4.73-14.08 9.61-20.09 16.25-2.14 2.37-4.23 4.88-6.26 7.31-4.12 4.95-8.38 10.08-13.35 14.3-1.82 1.56-3.79 3.01-5.83 4.39v1.21c2.26-1.51 4.46-3.1 6.49-4.83 5.03-4.28 9.32-9.44 13.47-14.43 2.02-2.42 4.1-4.93 6.23-7.28 5.92-6.55 13.03-11.4 19.91-16.09 6.64-4.54 13.47-9.2 19.21-15.41h-1.37c-5.54 5.8-12.05 10.25-18.41 14.58zm331.16-10.73c24.25 2.53 39.78 10.59 51.9 26.97 4.92 6.65 9.26 13.8 13.46 20.72 2.56 4.22 5.19 8.54 7.95 12.77v-1.85c-2.45-3.8-4.81-7.65-7.1-11.43-4.21-6.94-8.56-14.11-13.51-20.8-12.14-16.4-28.36-24.84-52.6-27.37-1.22-.13-2.44-.24-3.65-.36-5.5-.53-10.82-1.05-15.96-2.49h-3.29c6.15 2.23 12.52 2.85 19.15 3.49 1.21.1 2.42.22 3.65.35zm65.56 366.86c-4.16 11.75-8.08 22.85-17.31 32.18-6.71 6.79-14.09 10.25-21.91 13.91-1.74.82-3.52 1.65-5.33 2.53-8.33 4.07-14.89 10.9-21.23 17.5l-1.87 1.94c-1.82 1.88-3.6 3.81-5.31 5.67-1.74 1.89-3.46 3.75-5.2 5.55h1.39c1.52-1.59 3.02-3.22 4.55-4.88 1.71-1.86 3.48-3.78 5.29-5.66l1.87-1.94c6.28-6.54 12.78-13.3 20.95-17.29 1.81-.88 3.58-1.71 5.31-2.53 7.9-3.7 15.36-7.2 22.2-14.11 9.38-9.49 13.35-20.69 17.54-32.55 1.5-4.23 3.04-8.6 4.86-12.91.49-1.17 1.15-2.62 1.95-4.25v-2.26c-1.19 2.35-2.17 4.46-2.87 6.12-1.83 4.35-3.38 8.74-4.88 12.98zm7.75 34.54v-2.99c-.31.87-.62 1.74-.92 2.59-4.16 11.75-8.08 22.85-17.31 32.18-6.13 6.21-12.83 9.63-19.9 12.97h2.32c6.46-3.11 12.59-6.5 18.29-12.26 9.37-9.48 13.33-20.66 17.52-32.49z"/><path d="m442.63 378.68c-4.16 11.75-8.08 22.85-17.31 32.18-6.71 6.79-14.09 10.25-21.91 13.91-1.74.82-3.52 1.65-5.33 2.53-8.33 4.07-14.89 10.9-21.23 17.5l-1.87 1.94c-1.04 1.08-2.07 2.17-3.08 3.26h1.37c.8-.86 1.61-1.72 2.43-2.56l1.87-1.94c6.28-6.54 12.78-13.3 20.95-17.3 1.81-.88 3.58-1.71 5.31-2.53 7.9-3.7 15.36-7.2 22.2-14.11 9.38-9.49 13.35-20.69 17.54-32.55 1.5-4.23 3.04-8.6 4.86-12.91.41-.98.95-2.16 1.57-3.46v-2.3c-1.02 2.04-1.86 3.89-2.49 5.38-1.83 4.33-3.38 8.72-4.88 12.96zm7.37 33.91v-2.95c-.57 1.58-1.13 3.15-1.68 4.69-4.16 11.75-8.08 22.85-17.31 32.18-1.25 1.27-2.53 2.42-3.83 3.48h1.55c1.01-.87 2.01-1.78 2.99-2.78 9.38-9.49 13.35-20.69 17.54-32.55.25-.68.49-1.37.74-2.07zm-20.03-406.16c4.92 6.65 9.26 13.8 13.46 20.72 2.12 3.5 4.3 7.07 6.56 10.6v-1.85c-1.95-3.09-3.85-6.2-5.71-9.26-4.21-6.94-8.56-14.11-13.51-20.8-1.53-2.07-3.13-4.02-4.8-5.84h-1.36c1.86 1.99 3.65 4.12 5.36 6.43zm-3.48 10.45c4.92 6.65 9.26 13.8 13.46 20.72 3.19 5.26 6.5 10.68 10.04 15.87v-1.79c-3.22-4.8-6.25-9.77-9.19-14.61-4.21-6.94-8.56-14.11-13.51-20.8-4.97-6.71-10.66-12.08-17.28-16.27h-1.71c7 4.21 12.92 9.76 18.19 16.88zm-99.12 426.88c14.17-5.57 24.37-15.84 34.24-25.78 6.93-6.98 14.09-14.19 22.62-19.8 3.22-2.12 6.8-3.99 10.59-5.96 7.45-3.89 15.15-7.91 20.03-14.03 4.32-5.42 6.63-11.69 8.87-17.74 1.54-4.16 3.13-8.47 5.35-12.39 3.67-6.49 6.71-13.26 9.65-19.81 3.52-7.85 6.92-15.42 11.29-22.56v-1.84c-4.9 7.72-8.59 15.95-12.21 23.99-2.93 6.53-5.96 13.28-9.61 19.73-2.26 4-3.86 8.34-5.41 12.54-2.21 5.98-4.49 12.17-8.71 17.47-4.75 5.96-12.35 9.93-19.71 13.77-3.64 1.9-7.41 3.87-10.67 6.02-8.61 5.67-15.81 12.92-22.78 19.93-9.79 9.86-19.92 20.06-33.9 25.55-5.58 2.19-11.22 4.57-16.99 7.17h2.45c5.05-2.26 10-4.33 14.9-6.26zm-225.08-2.72c-1.16-.99-2.32-2-3.5-3-9.01-7.76-18.32-15.78-28.32-22.09-2.54-1.6-5.38-2.38-8.11-3.13-2.14-.59-4.36-1.2-6.44-2.2l-.68-.33c-5.62-2.7-11.16-5.37-16.78-8.03-5.64-2.67-10.02-5.79-14.65-10.43-2-2-4.21-3.61-6.34-5.16-2.5-1.82-5.08-3.69-7.29-6.2l-1.64-1.86c-2.89-3.27-5.81-6.58-8.54-10.01v1.6c2.51 3.11 5.17 6.11 7.79 9.08l1.64 1.86c2.28 2.59 4.91 4.5 7.45 6.35 2.1 1.53 4.27 3.11 6.22 5.05 4.72 4.72 9.18 7.9 14.93 10.62 5.61 2.66 11.16 5.33 16.77 8.03l.68.33c2.16 1.04 4.42 1.66 6.61 2.26 2.79.77 5.43 1.49 7.85 3.01 9.94 6.27 19.22 14.27 28.2 22 1.17 1.01 2.34 2.01 3.5 3.01 1.37 1.17 2.76 2.34 4.16 3.51 1.84 1.54 3.71 3.1 5.53 4.7h1.5c-2.1-1.86-4.27-3.68-6.39-5.46-1.39-1.18-2.78-2.34-4.15-3.51z"/><path d="m330.19 449.88c3.75-1.75 7.28-3.39 10.56-5.13 8.7-4.6 14.82-11.25 21.3-18.3 1.71-1.86 3.48-3.78 5.29-5.66l1.87-1.94c6.28-6.54 12.78-13.3 20.95-17.3 1.81-.88 3.58-1.71 5.31-2.53 7.9-3.7 15.36-7.2 22.2-14.11 9.38-9.49 13.35-20.69 17.54-32.55 1.5-4.23 3.04-8.6 4.86-12.91 1.7-4.03 5.33-11.3 9.93-18.14v-1.83c-4.98 7.14-8.92 15-10.85 19.59-1.83 4.33-3.38 8.72-4.88 12.96-4.16 11.75-8.08 22.85-17.31 32.18-6.71 6.79-14.09 10.25-21.91 13.91-1.74.82-3.52 1.65-5.33 2.53-8.33 4.07-14.89 10.9-21.23 17.5l-1.87 1.94c-1.82 1.88-3.6 3.81-5.31 5.67-6.42 6.98-12.49 13.57-21.03 18.09-3.25 1.72-6.78 3.36-10.52 5.1-.73.34-1.47.69-2.2 1.03h2.36c.09-.02.18-.06.27-.1zm-220.21-12.4c-8.85-5.96-17.21-11.6-24.66-18.44l-1.34-1.23c-8.08-7.44-15.7-14.47-26.7-17.27-11.08-2.83-20.36-5.71-30.46-14.74-1.55-1.39-3.09-2.74-4.59-4.06-9.34-8.22-17.53-15.44-22.23-24.88v2.19c4.87 8.72 12.71 15.63 21.57 23.44 1.5 1.32 3.03 2.67 4.58 4.06 10.27 9.18 19.66 12.1 30.88 14.96 10.75 2.74 18.28 9.68 26.27 17.04l1.34 1.24c7.51 6.89 16.29 12.81 24.78 18.53 5.53 3.73 11.16 7.54 16.58 11.69h1.65c-5.76-4.48-11.77-8.55-17.67-12.53zm338.67-66.83c-1.83 4.33-3.38 8.72-4.88 12.96-4.16 11.75-8.08 22.85-17.31 32.18-6.71 6.79-14.09 10.25-21.91 13.91-1.74.82-3.52 1.65-5.33 2.53-8.33 4.07-14.89 10.9-21.23 17.5l-.25.26h1.39c6.16-6.4 12.55-12.96 20.54-16.87 1.81-.88 3.58-1.71 5.31-2.53 7.9-3.7 15.36-7.2 22.2-14.11 9.38-9.49 13.35-20.69 17.54-32.55 1.5-4.23 3.04-8.6 4.86-12.91.13-.31.28-.65.43-1v-2.42c-.53 1.14-.99 2.16-1.36 3.05zm1.35 68.06v-2.34c-2.21 4.79-4.85 9.37-8.38 13.63h1.29c2.87-3.58 5.15-7.36 7.09-11.29z"/><path d="m365.53 434.12c1.71-1.86 3.48-3.78 5.29-5.66l1.87-1.94c6.28-6.54 12.78-13.3 20.95-17.29 1.81-.88 3.58-1.71 5.31-2.53 7.9-3.7 15.36-7.2 22.2-14.11 9.38-9.49 13.35-20.69 17.54-32.55 1.5-4.23 3.04-8.6 4.86-12.91 1.24-2.95 3.52-7.63 6.45-12.6v-2c-3.32 5.46-5.91 10.77-7.37 14.22-1.83 4.33-3.38 8.72-4.88 12.96-4.16 11.75-8.08 22.85-17.31 32.18-6.71 6.79-14.09 10.25-21.91 13.91-1.74.82-3.52 1.65-5.33 2.53-8.33 4.07-14.89 10.9-21.23 17.5l-1.87 1.94c-1.82 1.88-3.6 3.81-5.31 5.67-5.73 6.23-11.19 12.15-18.37 16.56h1.86c6.65-4.37 11.83-9.99 17.25-15.88z"/><path d="m439.21 367.3c-4.16 11.75-8.08 22.85-17.31 32.18-6.71 6.79-14.09 10.25-21.91 13.91-1.74.82-3.52 1.65-5.33 2.53-8.33 4.07-14.89 10.9-21.23 17.5l-1.87 1.94c-1.82 1.88-3.6 3.81-5.31 5.67-2.87 3.12-5.67 6.15-8.64 8.97h1.45c2.72-2.62 5.3-5.42 7.93-8.29 1.71-1.86 3.48-3.78 5.29-5.66l1.87-1.94c6.28-6.54 12.78-13.3 20.95-17.29 1.81-.88 3.58-1.71 5.31-2.53 7.9-3.7 15.36-7.2 22.2-14.11 9.38-9.49 13.35-20.69 17.54-32.55 1.5-4.23 3.04-8.6 4.86-12.91 1.03-2.44 2.76-6.06 4.98-10.05v-2.09c-2.62 4.56-4.67 8.82-5.91 11.75-1.81 4.34-3.37 8.72-4.87 12.97zm10.79 51.65c-.31.87-.62 1.74-.92 2.59-3.62 10.22-7.06 19.95-13.97 28.46h1.27c6.67-8.46 10.07-18.02 13.63-28.06v-2.99zm-92.38-6.85c6.71-6.76 13.66-13.75 21.92-19.18 3.12-2.05 6.59-3.86 10.26-5.78 7.22-3.77 14.68-7.67 19.42-13.61 4.19-5.26 6.43-11.33 8.6-17.2 1.49-4.03 3.03-8.21 5.18-12.01 3.55-6.29 6.5-12.86 9.35-19.2 5.02-11.18 9.8-21.79 17.66-31.31v-1.56c-8.45 9.91-13.59 21.36-18.57 32.46-2.84 6.33-5.78 12.87-9.31 19.12-2.19 3.88-3.74 8.08-5.25 12.16-2.14 5.8-4.35 11.79-8.44 16.92-4.6 5.77-11.97 9.62-19.1 13.34-3.53 1.84-7.18 3.75-10.34 5.83-8.35 5.49-15.33 12.52-22.08 19.32-9.49 9.55-19.3 19.43-32.85 24.76-10.01 3.93-20.19 8.47-31.03 13.85h2.27c10.13-4.97 19.71-9.21 29.13-12.92 13.73-5.41 23.61-15.36 33.18-24.99zm-269.13-404.02c-14.44 10.34-27.4 22.87-39.93 34.99-10.37 10.02-21.08 20.38-32.57 29.44-6.61 5.22-11.61 12.41-15.99 20.17v2.05c4.54-8.26 9.69-15.97 16.61-21.43 11.53-9.09 22.26-19.47 32.64-29.5 12.51-12.1 25.44-24.61 39.82-34.9 4.5-3.22 9.07-6.17 13.79-8.9h-1.97c-4.23 2.5-8.35 5.18-12.4 8.08zm353.64-8.08c2.74 4.16 5.34 8.39 7.87 12.56v-1.92c-2.15-3.54-4.36-7.11-6.67-10.64zm-82.32 13.24c1.2.12 2.42.23 3.64.36 24.25 2.53 39.78 10.59 51.9 26.97 4.92 6.65 9.26 13.8 13.46 20.72 3.51 5.78 7.14 11.76 11.08 17.41 1.29 1.85 2.53 3.74 3.73 5.57 2 3.03 4.04 6.14 6.37 9.14v-1.63c-1.95-2.6-3.71-5.28-5.54-8.06-1.2-1.83-2.45-3.73-3.75-5.59-3.93-5.63-7.55-11.59-11.05-17.35-4.21-6.94-8.56-14.11-13.51-20.8-12.14-16.4-28.36-24.84-52.6-27.37-1.22-.13-2.44-.24-3.65-.36-9.26-.89-18.01-1.73-26.24-7.05-2.4-1.55-4.63-3.37-6.79-5.19h-1.55c2.47 2.09 5.02 4.23 7.8 6.03 8.45 5.45 17.32 6.3 26.7 7.2z"/><path d="m305.52 5.55c5.21 3.63 10.6 7.38 17.71 9.4 1.01.29 2 .58 2.97.86 5.15 1.52 10.02 2.95 15.38 2.95h.14c.91 0 2.2-.08 3.68-.17 2.08-.13 4.68-.29 7.15-.29 6.13 0 9.34 1.01 9.55 3.01l.03.28.26.12c4.11 1.9 8.34 2.86 12.43 3.79 6.12 1.39 11.89 2.7 17.44 6.9 6.32 4.79 11.14 11.58 15.81 18.15 1.04 1.46 2.07 2.91 3.1 4.32 2.86 3.9 6.06 7.74 9.15 11.44 3.61 4.33 7.35 8.81 10.59 13.45 2.52 3.61 4.7 7.32 6.81 10.9 3.41 5.81 6.64 11.3 11.26 16.52.34.39.68.77 1.02 1.15v-1.51c-.09-.1-.18-.2-.27-.31-4.56-5.14-7.76-10.59-11.14-16.36-2.12-3.6-4.3-7.33-6.85-10.97-3.27-4.67-7.02-9.17-10.65-13.52-3.08-3.7-6.27-7.52-9.11-11.4-1.03-1.4-2.06-2.85-3.09-4.31-4.71-6.63-9.58-13.48-16.02-18.37-5.72-4.33-11.87-5.73-17.82-7.08-3.95-.9-8.04-1.83-11.98-3.61-.65-3.23-6.27-3.61-10.5-3.61-2.5 0-5.11.16-7.21.29-1.47.09-2.74.17-3.63.17h-.14c-5.22 0-10.02-1.41-15.1-2.91-.98-.29-1.97-.58-2.98-.87-6.95-1.98-12.04-5.52-17.42-9.26-2.29-1.59-4.63-3.22-7.15-4.73h-1.99c3.07 1.76 5.85 3.69 8.57 5.58z"/><path d="m338.7 1.15c8.44 5.46 17.3 6.31 26.69 7.21 1.2.12 2.42.23 3.64.36 24.25 2.52 39.78 10.59 51.9 26.97 4.92 6.65 9.26 13.8 13.46 20.72 3.51 5.78 7.14 11.76 11.08 17.41 1.29 1.85 2.53 3.74 3.73 5.57.26.4.53.81.8 1.21v-1.82c-1.19-1.82-2.42-3.69-3.71-5.53-3.93-5.63-7.55-11.59-11.05-17.35-4.21-6.94-8.56-14.11-13.51-20.8-12.14-16.4-28.36-24.84-52.6-27.37-1.22-.13-2.44-.24-3.65-.36-9.26-.89-18.01-1.73-26.24-7.05-.15-.1-.3-.21-.46-.31h-1.76c.55.38 1.11.78 1.68 1.14zm-293.35 284.51c-1.21 3.59-2.47 7.29-2.35 11.03.12 3.78 1.46 7.19 2.76 10.49 1.2 3.04 2.43 6.18 2.78 9.7.2 2.01.29 3.95.38 5.82.25 5.3.49 10.3 3.11 15.47 4.27 8.45 12.69 13.02 20.83 17.45 3.35 1.82 6.81 3.7 9.84 5.79 5.98 4.14 12.3 7.22 18.41 10.2 5.3 2.59 10.79 5.26 16.03 8.62 14.73 9.42 25.59 17.6 35.23 26.51 10.27 9.5 19.94 17.48 34.23 18.88 2.62.26 5.47.38 8.71.38 2.79 0 5.61-.09 8.33-.18 2.71-.09 5.52-.18 8.28-.18 6.72 0 11.93.55 16.88 1.79 2.53.63 4.91.94 7.3.94 8.27 0 14.84-3.86 21.8-7.94 2.95-1.73 6-3.52 9.34-5.13 5.76-2.77 11.25-6 16.57-9.13 5.34-3.14 10.86-6.39 16.7-9.21 7.76-3.75 14.15-8.58 20.9-13.7 4.01-3.03 8.15-6.17 12.58-9.04 3.46-2.23 7.08-4.45 10.58-6.59 20.26-12.39 41.22-25.2 44.62-50.05 1.92-14 4.98-25.4 13.71-35.49 1.83-2.12 3.94-4.03 5.97-5.87 2.23-2.02 4.53-4.1 6.5-6.49 3.26-3.94 4.58-7.64 5.98-11.57.69-1.94 1.41-3.94 2.38-5.98 1.27-2.67 3.26-5.04 5.36-7.55 2.14-2.56 4.36-5.21 5.75-8.21 2.86-6.19 2.42-11.94 1.95-18.02-.11-1.38-.21-2.78-.29-4.23-.89-17.74-3.06-27.63-9.28-42.31-5.23-12.36-11.52-26.49-18.5-37.63-3.7-5.89-8.47-10.99-13.08-15.92-5.2-5.56-10.58-11.3-14.36-18.16-6.14-11.14-9.18-15.65-17.5-24.07-9.78-9.89-23.37-15.36-38.34-15.4-2.94 0-6.39.49-10.05 1.02-3.94.56-8.02 1.15-11.75 1.15-2.21 0-4.07-.2-5.68-.62-2.83-.74-8.36-5.45-13.25-9.62-4.31-3.67-8.38-7.14-10.77-8.15-7.05-2.97-13.07-3.63-19.43-4.33-4.41-.49-8.97-.99-14.22-2.29-5.42-1.34-8.9-2.79-12.25-4.2-4.01-1.68-7.8-3.26-14.5-4.58-2.15-.42-4.77-.64-7.79-.64-18.98 0-49.25 8.24-61.23 12.66-19.71 7.26-30.22 14.3-46.33 27.33-14.24 11.53-73.98 76.01-72.77 107.32.63 16.24 3.95 27.38 8.57 41.34 1.92 5.8 2.53 11.92 3.11 17.84.73 7.33 1.48 14.91 4.74 21.89.36.77.72 1.53 1.08 2.28 2.73 5.7 5.08 10.61 4.67 17.37-.17 3.08-1.22 6.2-2.24 9.21zm-1.5-26.98c-.36-.75-.72-1.5-1.08-2.27-3.19-6.82-3.93-14.31-4.65-21.56-.59-5.98-1.2-12.15-3.16-18.06-4.6-13.88-7.9-24.96-8.52-41.06-1.19-30.97 58.23-95.04 72.4-106.5 16.01-12.96 26.46-19.96 46.04-27.17 11.93-4.39 42.03-12.6 60.89-12.6 2.95 0 5.51.21 7.6.62 6.61 1.3 10.35 2.86 14.31 4.52 3.39 1.42 6.9 2.88 12.4 4.24 5.31 1.31 9.9 1.82 14.35 2.31 6.29.69 12.23 1.35 19.15 4.26 2.25.95 6.26 4.37 10.51 7.99 5.21 4.44 10.59 9.03 13.64 9.82 1.69.44 3.63.66 5.93.66 3.8 0 7.91-.59 11.89-1.16 3.62-.52 7.04-1.01 9.97-1.01 14.63.04 27.97 5.4 37.56 15.1 8.24 8.33 11.25 12.8 17.33 23.85 3.83 6.96 9.26 12.76 14.5 18.36 4.58 4.89 9.32 9.96 12.97 15.77 6.95 11.08 13.22 25.17 18.43 37.49 6.16 14.56 8.31 24.37 9.2 41.97.07 1.45.18 2.86.29 4.25.46 5.95.89 11.57-1.86 17.52-1.33 2.88-3.51 5.48-5.61 7.99-2.05 2.45-4.17 4.98-5.5 7.76-.99 2.09-1.72 4.11-2.42 6.08-1.37 3.84-2.66 7.47-5.81 11.27-1.92 2.33-4.2 4.39-6.4 6.38-2.06 1.87-4.18 3.79-6.06 5.96-8.89 10.28-12.01 21.83-13.95 36.01-3.34 24.38-24.09 37.06-44.15 49.33-3.51 2.15-7.14 4.36-10.61 6.61-4.46 2.88-8.62 6.03-12.64 9.08-6.72 5.08-13.06 9.89-20.73 13.59-5.88 2.84-11.42 6.1-16.77 9.25-5.3 3.12-10.78 6.34-16.5 9.09-3.37 1.62-6.44 3.42-9.41 5.16-7.13 4.19-13.29 7.8-21.29 7.8-2.3 0-4.61-.3-7.06-.91-5.04-1.26-10.32-1.82-17.12-1.82-2.78 0-5.59.09-8.31.18s-5.53.18-8.3.18c-3.21 0-6.03-.12-8.62-.38-13.99-1.37-23.52-9.24-33.65-18.62-9.68-8.95-20.59-17.16-35.37-26.62-5.29-3.39-10.8-6.07-16.13-8.67-6.08-2.96-12.36-6.03-18.28-10.12-3.07-2.13-6.56-4.02-9.93-5.85-8.01-4.35-16.29-8.85-20.42-17.02-2.52-4.98-2.75-9.88-3-15.07-.09-1.89-.18-3.84-.38-5.87-.36-3.66-1.63-6.86-2.85-9.96-1.33-3.37-2.58-6.54-2.69-10.15-.11-3.56 1.12-7.18 2.3-10.68 1.04-3.08 2.12-6.26 2.31-9.43.45-7.04-2.07-12.31-4.74-17.89z"/><path d="m60.21 300.96c-.19 1.05-.39 2.07-.58 3.07-2.34 12.19-3.89 20.24 6.72 30.6 8.86 8.65 20.79 13.81 33.26 18.75 17.6 6.98 31.23 17.53 45.67 28.69 3.69 2.86 7.51 5.81 11.43 8.72 11.77 8.75 22.26 12.5 34.4 15.42 4.05.97 8.34 2.5 12.88 4.11 8.25 2.93 16.79 5.96 24.73 5.96h.03c10.76-.01 22.42-4.6 35.64-14.04 10.71-7.64 21.27-14.42 34.23-21.98 11.23-6.54 22.85-13.31 33.63-21.42 2.83-2.13 5.75-4.16 8.85-6.31 9.99-6.94 20.32-14.12 26.67-24.33 7.07-11.38 10.44-24.47 13.71-37.13l.24-.91c3.5-13.56 11.75-23.38 20.14-31.98 1.21-1.24 2.48-2.49 3.77-3.77 8.88-8.79 18.94-18.76 19.08-31.92.1-9.37-2.86-20.22-5.47-29.79-.85-3.11-1.65-6.04-2.32-8.84-1.31-5.38-4.01-8.89-6.87-12.61-1.34-1.75-2.73-3.55-4-5.6-1.65-2.68-2.77-5.57-3.85-8.36-1.26-3.25-2.56-6.61-4.72-9.74-1.89-2.73-4.18-5.15-6.4-7.5-1.83-1.93-3.72-3.93-5.36-6.07-1.98-2.6-3.57-5.41-5.1-8.13-1.2-2.12-2.44-4.32-3.87-6.43-3.07-4.52-5.54-9.55-7.94-14.41-2.73-5.55-5.56-11.29-9.26-16.23-8.93-11.94-22.55-13.31-34.58-14.52-1.53-.15-3.31-.23-5.45-.23-2.24 0-4.58.08-7.05.16-2.52.09-5.13.17-7.68.17-5.5 0-12.42-.36-17.14-3.18-2.54-1.52-4.06-3.75-5.66-6.12-1.4-2.07-2.85-4.21-5.06-5.85-3.48-2.6-7.2-2.96-10.71-2.96-.86 0-1.74.02-2.61.05-.88.02-1.77.05-2.67.05-1.24 0-2.26-.04-3.23-.14-10.79-1.05-21.73-4.57-33.44-10.76-6.6-3.49-12.34-5.12-18.07-5.12-5.15 0-10.56 1.27-17.55 4.11-7.88 3.21-15.33 3.77-23.22 4.36-4.02.3-8.18.61-12.59 1.29-10.32 1.58-20.44 8.19-29.92 14.84-13.68 9.59-27.04 21.79-39.7 36.27-3.1 3.54-6.64 7.15-10.06 10.65-6.27 6.4-12.75 13.02-17.46 20.05-6.63 9.91-11.76 20.83-14.46 30.75-2.93 10.76-3.16 24.02-.62 36.37 1.42 6.9 4.01 13.13 6.52 19.16 1.47 3.52 2.98 7.16 4.27 10.94 6.68 19.53 13.71 45.37 8.8 71.84zm-7.85-72.18c-1.3-3.81-2.82-7.47-4.29-11-2.6-6.25-5.06-12.16-6.46-18.97-2.51-12.2-2.29-25.29.6-35.91 2.67-9.82 7.76-20.64 14.33-30.46 4.65-6.95 11.1-13.54 17.34-19.9 3.43-3.5 6.98-7.12 10.1-10.69 12.61-14.41 25.91-26.56 39.52-36.1 9.38-6.58 19.39-13.12 29.5-14.67 4.37-.67 8.51-.98 12.51-1.28 7.97-.6 15.5-1.16 23.52-4.43 6.86-2.79 12.16-4.04 17.17-4.04 5.56 0 11.15 1.59 17.6 5 11.83 6.25 22.89 9.81 33.81 10.88 1 .1 2.06.14 3.33.14.91 0 1.81-.02 2.7-.05.87-.02 1.73-.04 2.59-.04 3.85 0 7.04.47 10.11 2.76 2.07 1.55 3.47 3.61 4.83 5.61 1.59 2.35 3.24 4.78 5.97 6.41 4.93 2.95 12.02 3.33 17.65 3.33 2.57 0 5.18-.09 7.71-.17 2.46-.08 4.79-.16 7.02-.16 2.1 0 3.85.07 5.35.22 11.82 1.19 25.21 2.53 33.88 14.12 3.64 4.87 6.45 10.57 9.16 16.08 2.41 4.89 4.9 9.95 8 14.53 1.41 2.07 2.64 4.25 3.82 6.36 1.55 2.75 3.16 5.59 5.18 8.25 1.67 2.18 3.58 4.2 5.43 6.15 2.19 2.32 4.46 4.71 6.31 7.38 2.09 3.03 3.37 6.33 4.61 9.53 1.1 2.84 2.23 5.77 3.94 8.52 1.29 2.09 2.7 3.92 4.06 5.68 2.8 3.63 5.44 7.07 6.69 12.24.68 2.81 1.48 5.75 2.33 8.87 2.59 9.51 5.53 20.28 5.43 29.51-.13 12.76-10.04 22.57-18.78 31.22-1.3 1.28-2.57 2.54-3.78 3.79-8.49 8.69-16.84 18.64-20.39 32.42l-.24.92c-3.24 12.59-6.59 25.6-13.59 36.85-6.24 10.04-16.48 17.16-26.39 24.04-2.97 2.06-6.04 4.2-8.88 6.34-10.73 8.07-22.32 14.82-33.53 21.35-12.99 7.57-23.57 14.37-34.31 22.03-13.05 9.31-24.52 13.84-35.07 13.85l-.03.5v-.5c-7.77 0-16.22-3-24.4-5.9-4.57-1.62-8.88-3.15-12.98-4.14-12.02-2.9-22.41-6.6-34.04-15.25-3.91-2.91-7.72-5.86-11.41-8.71-14.49-11.21-28.18-21.8-45.91-28.83-12.37-4.91-24.2-10.02-32.93-18.54-10.23-9.98-8.72-17.82-6.44-29.69.19-1 .39-2.02.58-3.07 4.95-26.71-2.12-52.71-8.83-72.38zm12.14-169.7c-9.45 9.14-19.23 18.59-29.71 26.86-9.24 7.29-15.03 18.79-20.62 29.9-3.72 7.4-7.24 14.39-11.69 20.21-.92 1.2-1.74 2.44-2.48 3.7v2.06c.93-1.77 2.01-3.5 3.27-5.15 4.5-5.89 8.04-12.92 11.79-20.36 5.54-11.02 11.28-22.42 20.35-29.57 10.52-8.3 20.32-17.77 29.79-26.93 11.41-11.04 23.22-22.45 36.34-31.84 16.86-12.07 34.9-20.1 58.49-26.02 3.13-.79 6.28-1.41 9.42-1.93h-5.45c-1.41.3-2.81.61-4.21.96-23.72 5.95-41.86 14.03-58.83 26.18-13.19 9.43-25.01 20.87-36.46 31.93z"/><path d="m53.15 275.03c-.18 2.95-1.2 5.97-2.19 8.89-1.18 3.48-2.39 7.08-2.28 10.71.11 3.67 1.42 6.98 2.68 10.18 1.16 2.94 2.36 5.99 2.7 9.4.19 1.95.28 3.83.37 5.64.25 5.14.48 10 3.02 15.01 4.15 8.2 12.31 12.63 20.21 16.93 3.24 1.76 6.6 3.59 9.53 5.62 5.8 4.01 11.93 7 17.86 9.89 5.14 2.51 10.46 5.1 15.54 8.36 14.28 9.14 24.82 17.07 34.16 25.71 9.96 9.21 19.34 16.95 33.21 18.31 2.55.25 5.31.37 8.45.37 2.71 0 5.44-.09 8.08-.17 2.63-.08 5.35-.17 8.03-.17 6.52 0 11.56.54 16.37 1.74 2.45.61 4.77.91 7.08.91 8.03 0 14.4-3.74 21.15-7.7 2.86-1.68 5.82-3.41 9.05-4.97 5.58-2.69 10.91-5.82 16.07-8.85 5.18-3.05 10.53-6.2 16.2-8.93 7.53-3.63 13.72-8.32 20.27-13.28 3.89-2.94 7.9-5.99 12.2-8.76 3.35-2.17 6.87-4.31 10.26-6.39 19.66-12.02 39.98-24.44 43.28-48.55 1.86-13.58 4.83-24.62 13.29-34.41 1.78-2.06 3.82-3.91 5.79-5.7 2.16-1.96 4.39-3.98 6.3-6.29 3.16-3.82 4.44-7.42 5.8-11.22.67-1.88 1.36-3.82 2.31-5.8 1.23-2.59 3.16-4.89 5.2-7.32 2.08-2.48 4.23-5.05 5.58-7.96 2.78-6.01 2.35-11.58 1.89-17.48-.1-1.34-.21-2.7-.28-4.1-.87-17.2-2.97-26.79-9-41.04-5.07-11.99-11.17-25.69-17.95-36.5-3.59-5.72-8.21-10.66-12.69-15.44-5.04-5.39-10.26-10.96-13.92-17.61-5.95-10.81-8.9-15.18-16.97-23.34-9.48-9.59-22.67-14.9-37.19-14.94-2.85 0-6.2.48-9.74.99-3.83.55-7.78 1.11-11.39 1.11-2.14 0-3.95-.2-5.51-.6-2.74-.71-8.11-5.29-12.84-9.32-4.18-3.56-8.13-6.93-10.45-7.91-6.84-2.88-12.67-3.52-18.85-4.2-4.28-.47-8.7-.96-13.79-2.22-5.26-1.3-8.62-2.71-11.88-4.07-3.89-1.62-7.56-3.16-14.06-4.44-2.09-.41-4.63-.62-7.56-.62-18.41 0-47.76 8-59.39 12.28-19.12 7.04-29.31 13.87-44.93 26.51-13.8 11.17-71.73 73.71-70.56 104.07.61 15.75 3.83 26.55 8.31 40.09 1.86 5.62 2.45 11.55 3.02 17.3.7 7.11 1.43 14.47 4.59 21.23.35.75.7 1.48 1.05 2.21 2.64 5.52 4.92 10.29 4.52 16.84zm-3.62-17.27c-.35-.72-.7-1.46-1.05-2.2-3.09-6.61-3.81-13.88-4.5-20.9-.57-5.79-1.17-11.79-3.06-17.51-4.46-13.46-7.66-24.2-8.26-39.82-1.16-30.03 56.47-92.15 70.2-103.27 15.53-12.57 25.66-19.35 44.65-26.35 11.56-4.26 40.76-12.21 59.04-12.21 2.86 0 5.34.2 7.36.6 6.4 1.26 10.03 2.78 13.87 4.38 3.29 1.37 6.69 2.8 12.03 4.12 5.15 1.27 9.61 1.77 13.92 2.24 6.1.67 11.86 1.31 18.57 4.13 2.18.92 6.07 4.23 10.19 7.74 5.05 4.31 10.27 8.76 13.24 9.53 1.64.43 3.53.64 5.76.64 3.69 0 7.68-.57 11.54-1.12 3.51-.5 6.82-.98 9.66-.98 14.19.04 27.12 5.24 36.42 14.64 7.99 8.08 10.91 12.41 16.8 23.12 3.72 6.75 8.98 12.37 14.07 17.81 4.44 4.75 9.04 9.65 12.57 15.29 6.74 10.74 12.81 24.4 17.87 36.35 5.98 14.12 8.06 23.63 8.92 40.7.07 1.41.18 2.78.28 4.13.44 5.77.86 11.21-1.81 16.98-1.29 2.79-3.4 5.31-5.44 7.74-1.99 2.37-4.04 4.83-5.33 7.53-.96 2.02-1.67 3.99-2.34 5.9-1.33 3.72-2.58 7.24-5.63 10.92-1.87 2.25-4.07 4.25-6.2 6.18-2 1.81-4.06 3.68-5.88 5.78-8.62 9.97-11.65 21.18-13.53 34.93-3.24 23.63-23.35 35.93-42.81 47.83-3.4 2.08-6.92 4.23-10.28 6.4-4.33 2.8-8.36 5.85-12.26 8.81-6.51 4.93-12.66 9.59-20.1 13.18-5.7 2.75-11.08 5.91-16.27 8.97-5.14 3.02-10.45 6.15-15.99 8.82-3.27 1.57-6.25 3.32-9.12 5.01-6.92 4.06-12.89 7.56-20.64 7.56-2.23 0-4.47-.29-6.84-.88-4.88-1.22-10.01-1.77-16.61-1.77-2.7 0-5.42.09-8.06.17-2.63.08-5.36.17-8.05.17-3.11 0-5.84-.12-8.36-.37-13.56-1.33-22.8-8.96-32.63-18.05-9.39-8.68-19.97-16.65-34.3-25.82-5.13-3.29-10.48-5.89-15.64-8.41-5.89-2.87-11.99-5.85-17.73-9.82-2.98-2.06-6.36-3.9-9.63-5.67-7.76-4.22-15.79-8.58-19.8-16.5-2.44-4.83-2.67-9.58-2.91-14.61-.09-1.83-.18-3.72-.37-5.7-.35-3.55-1.58-6.66-2.76-9.67-1.29-3.26-2.5-6.34-2.61-9.84-.1-3.45 1.08-6.96 2.23-10.35 1.01-2.99 2.05-6.07 2.24-9.15.41-6.81-2.04-11.92-4.63-17.33z"/><path d="m346.62 395.92c6.13-6.17 12.46-12.55 20-17.5 2.85-1.87 6.01-3.52 9.36-5.27 6.59-3.44 13.41-7 17.73-12.43 3.83-4.8 5.87-10.35 7.85-15.71 1.36-3.68 2.76-7.48 4.72-10.95 3.25-5.75 5.93-11.74 8.54-17.53 5.01-11.17 9.75-21.71 18.22-31 6.94-7.62 12.18-14.83 15.17-25.32.51-1.8 1.12-3.53 1.79-5.23v-2.62c-1.05 2.45-2 4.93-2.75 7.58-2.94 10.3-8.1 17.41-14.95 24.92-8.58 9.41-13.57 20.52-18.39 31.27-2.59 5.77-5.27 11.74-8.5 17.45-2 3.54-3.42 7.38-4.79 11.1-1.95 5.29-3.97 10.75-7.7 15.43-4.19 5.26-10.92 8.77-17.42 12.17-3.22 1.68-6.55 3.42-9.44 5.32-7.62 5.01-14 11.43-20.16 17.63-8.66 8.71-17.61 17.73-29.96 22.58-16.27 6.4-33.05 14.54-52.81 25.62-7.65 4.29-16.36 6.39-27.3 6.58h11.31c6.12-1.05 11.52-2.92 16.48-5.7 19.72-11.06 36.47-19.18 52.69-25.56 12.56-4.95 21.58-14.04 30.31-22.83z"/><path d="m34.65 288.97c-1.28 3.79-2.61 7.71-2.49 11.66.12 4 1.54 7.6 2.92 11.08 1.27 3.21 2.58 6.54 2.95 10.26.21 2.12.31 4.17.4 6.16.27 5.6.52 10.89 3.28 16.36 4.52 8.93 13.42 13.76 22.02 18.44 3.54 1.92 7.2 3.92 10.41 6.13 6.33 4.38 13.01 7.64 19.47 10.79 5.61 2.74 11.41 5.56 16.96 9.11 15.58 9.97 27.07 18.62 37.27 28.05 10.86 10.05 21.08 18.48 36.19 19.96 2.77.27 5.79.4 9.21.4 2.95 0 5.93-.1 8.81-.19 2.87-.09 5.83-.19 8.76-.19 7.11 0 12.62.59 17.86 1.9 2.67.67 5.19.99 7.71.99 8.74 0 15.69-4.08 23.04-8.39 3.12-1.83 6.35-3.72 9.88-5.42 6.09-2.93 11.9-6.35 17.52-9.66 5.65-3.32 11.49-6.76 17.67-9.75 8.21-3.96 14.96-9.07 22.1-14.48 4.24-3.21 8.62-6.53 13.31-9.56 3.66-2.36 7.49-4.71 11.2-6.97 21.43-13.1 43.58-26.65 47.18-52.92 2.03-14.81 5.27-26.87 14.51-37.55 1.94-2.24 4.17-4.26 6.32-6.21 2.35-2.13 4.79-4.34 6.87-6.86 3.44-4.16 4.84-8.08 6.32-12.23.73-2.05 1.49-4.17 2.51-6.33 1.35-2.83 3.45-5.34 5.67-7.99 2.27-2.71 4.61-5.51 6.08-8.67 3.03-6.54 2.56-12.61 2.06-19.04-.11-1.46-.23-2.95-.3-4.47-.95-18.76-3.24-29.21-9.81-44.74-5.54-13.07-12.19-28.03-19.57-39.8-3.91-6.23-8.95-11.62-13.83-16.83-5.5-5.88-11.2-11.96-15.19-19.21-6.49-11.78-9.7-16.55-18.5-25.45-10.33-10.45-24.7-16.24-40.53-16.28-3.1 0-6.75.52-10.62 1.08-4.17.6-8.49 1.21-12.43 1.21-2.34 0-4.31-.22-6.02-.66-3-.78-8.86-5.77-14.02-10.18-4.56-3.88-8.86-7.55-11.38-8.61-7.46-3.14-13.81-3.84-20.54-4.58-4.67-.51-9.49-1.05-15.04-2.42-5.74-1.42-9.41-2.95-12.96-4.44-4.24-1.77-8.24-3.44-15.33-4.84-2.28-.45-5.05-.67-8.23-.67-20.07 0-52.08 8.72-64.76 13.39-20.85 7.68-31.96 15.12-48.99 28.91-15.07 12.17-78.25 80.37-76.97 113.47.66 17.17 4.17 28.95 9.06 43.72 2.03 6.13 2.67 12.61 3.29 18.88.77 7.75 1.56 15.77 5.01 23.14.38.82.77 1.62 1.15 2.42 2.88 6.03 5.38 11.23 4.94 18.39-.21 3.2-1.32 6.5-2.4 9.69zm-1.64-28.53c-.38-.79-.76-1.59-1.14-2.41-3.37-7.21-4.16-15.14-4.92-22.81-.63-6.32-1.27-12.85-3.34-19.09-4.86-14.69-8.35-26.4-9.01-43.44-1.27-32.77 61.6-100.54 76.58-112.67 16.94-13.71 27.99-21.12 48.71-28.74 12.62-4.65 44.46-13.32 64.41-13.32 3.12 0 5.83.22 8.04.66 6.99 1.38 10.95 3.03 15.14 4.78 3.59 1.5 7.29 3.05 13.11 4.49 5.61 1.39 10.47 1.92 15.17 2.44 6.66.73 12.94 1.43 20.26 4.51 2.38 1 6.63 4.62 11.12 8.45 5.51 4.69 11.2 9.55 14.42 10.39 1.79.47 3.84.69 6.27.69 4.02 0 8.37-.62 12.58-1.23 3.83-.55 7.45-1.07 10.54-1.07 15.49.04 29.6 5.72 39.75 15.98 8.71 8.81 11.9 13.54 18.34 25.23 4.05 7.36 9.79 13.49 15.33 19.41 4.85 5.18 9.86 10.53 13.72 16.68 7.35 11.71 13.98 26.62 19.5 39.66 6.52 15.4 8.8 25.78 9.74 44.4.08 1.53.19 3.03.3 4.5.48 6.3.94 12.24-1.97 18.55-1.41 3.05-3.71 5.8-5.94 8.45-2.17 2.59-4.41 5.26-5.81 8.21-1.05 2.2-1.81 4.35-2.55 6.42-1.45 4.07-2.82 7.91-6.15 11.93-2.04 2.46-4.44 4.65-6.77 6.76-2.17 1.97-4.42 4.01-6.4 6.3-9.4 10.87-12.69 23.08-14.75 38.07-3.53 25.8-25.48 39.22-46.71 52.2-3.71 2.27-7.55 4.62-11.22 6.99-4.72 3.05-9.12 6.38-13.37 9.6-7.1 5.38-13.81 10.46-21.94 14.38-6.22 3-12.08 6.45-17.75 9.78-5.6 3.3-11.4 6.71-17.44 9.62-3.57 1.72-6.81 3.62-9.95 5.46-7.55 4.43-14.07 8.26-22.54 8.26-2.44 0-4.88-.32-7.47-.96-5.32-1.33-10.91-1.93-18.11-1.93-2.94 0-5.91.1-8.79.19-2.87.09-5.85.19-8.78.19-3.39 0-6.37-.13-9.11-.4-14.8-1.45-24.88-9.78-35.61-19.7-10.24-9.47-21.78-18.15-37.4-28.16-5.6-3.58-11.42-6.42-17.06-9.17-6.43-3.14-13.08-6.38-19.34-10.71-3.25-2.25-6.93-4.25-10.5-6.19-8.47-4.61-17.23-9.37-21.61-18.01-2.67-5.27-2.91-10.46-3.18-15.95-.1-2-.19-4.06-.41-6.21-.38-3.87-1.72-7.25-3.01-10.53-1.4-3.56-2.73-6.93-2.85-10.75-.11-3.77 1.18-7.6 2.43-11.31 1.1-3.25 2.24-6.62 2.44-9.97.49-7.43-2.18-13-5-18.9z"/><path d="m39.74 287.4c-1.25 3.69-2.54 7.51-2.42 11.36.12 3.89 1.5 7.41 2.84 10.8 1.23 3.13 2.51 6.36 2.87 9.99.2 2.07.3 4.07.39 6 .26 5.46.51 10.61 3.2 15.94 4.4 8.7 13.07 13.41 21.46 17.97 3.45 1.88 7.01 3.81 10.13 5.97 6.16 4.26 12.67 7.44 18.97 10.51 5.46 2.67 11.11 5.42 16.52 8.88 15.17 9.71 26.37 18.14 36.3 27.32 10.58 9.79 20.54 18 35.26 19.45 2.7.26 5.64.39 8.98.39 2.88 0 5.78-.09 8.58-.18 2.79-.09 5.68-.18 8.53-.18 6.93 0 12.29.57 17.4 1.85 2.6.65 5.06.97 7.52.97 8.52 0 15.29-3.97 22.45-8.18 3.04-1.78 6.18-3.63 9.62-5.28 5.93-2.85 11.59-6.18 17.07-9.41 5.5-3.24 11.19-6.58 17.21-9.49 8-3.86 14.57-8.84 21.53-14.11 4.13-3.13 8.4-6.36 12.96-9.31 3.56-2.3 7.3-4.58 10.91-6.79 20.87-12.76 42.46-25.96 45.96-51.55 1.98-14.43 5.13-26.17 14.13-36.57 1.89-2.18 4.06-4.15 6.15-6.05 2.29-2.08 4.66-4.23 6.69-6.68 3.36-4.05 4.72-7.87 6.16-11.92.71-2 1.45-4.06 2.45-6.16 1.31-2.75 3.36-5.2 5.52-7.78 2.21-2.64 4.49-5.37 5.92-8.45 2.95-6.38 2.49-12.29 2.01-18.56-.11-1.42-.22-2.87-.3-4.35-.92-18.28-3.15-28.46-9.56-43.58-5.39-12.73-11.87-27.29-19.06-38.77-3.81-6.07-8.72-11.32-13.48-16.4-5.36-5.73-10.9-11.65-14.79-18.71-6.32-11.48-9.45-16.12-18.02-24.79-10.07-10.19-24.07-15.82-39.48-15.86-3.02 0-6.58.51-10.35 1.05-4.06.58-8.27 1.18-12.11 1.18-2.28 0-4.2-.21-5.86-.64-2.92-.76-8.62-5.62-13.65-9.91-4.44-3.78-8.63-7.36-11.09-8.39-7.27-3.06-13.46-3.74-20.01-4.46-4.55-.5-9.25-1.02-14.65-2.36-5.59-1.38-9.17-2.88-12.63-4.32-4.13-1.73-8.03-3.36-14.94-4.71-2.22-.44-4.92-.66-8.02-.66-19.56 0-50.73 8.49-63.08 13.04-20.31 7.48-31.14 14.73-47.72 28.16-14.67 11.87-76.21 78.3-74.96 110.55.64 16.73 4.06 28.2 8.83 42.58 1.98 5.97 2.6 12.28 3.21 18.38.75 7.55 1.52 15.36 4.88 22.54.37.8.75 1.58 1.12 2.35 2.81 5.87 5.24 10.94 4.81 17.91-.22 3.1-1.31 6.31-2.36 9.42zm-1.57-27.8c-.37-.77-.74-1.55-1.11-2.34-3.28-7.02-4.05-14.75-4.79-22.22-.61-6.16-1.24-12.52-3.25-18.6-4.73-14.31-8.14-25.71-8.78-42.31-1.24-31.91 59.99-97.91 74.59-109.73 16.5-13.35 27.26-20.57 47.44-28 12.29-4.53 43.3-12.98 62.73-12.98 3.04 0 5.67.22 7.83.64 6.81 1.34 10.66 2.95 14.74 4.66 3.49 1.46 7.11 2.97 12.77 4.37 5.47 1.35 10.2 1.88 14.78 2.38 6.48.71 12.6 1.39 19.74 4.39 2.32.97 6.45 4.5 10.83 8.23 5.36 4.57 10.91 9.3 14.05 10.12 1.74.45 3.74.68 6.11.68 3.91 0 8.15-.61 12.25-1.19 3.73-.53 7.25-1.04 10.27-1.04 15.08.04 28.83 5.57 38.71 15.56 8.49 8.58 11.59 13.19 17.86 24.57 3.95 7.17 9.54 13.14 14.94 18.91 4.72 5.04 9.6 10.26 13.36 16.25 7.16 11.42 13.62 25.93 18.99 38.63 6.35 15 8.57 25.1 9.48 43.25.08 1.49.19 2.95.3 4.38.47 6.13.92 11.92-1.92 18.06-1.37 2.97-3.61 5.64-5.78 8.23-2.11 2.52-4.29 5.13-5.66 7.99-1.02 2.15-1.77 4.24-2.49 6.26-1.41 3.96-2.74 7.7-5.99 11.62-1.98 2.4-4.33 4.52-6.59 6.58-2.12 1.92-4.31 3.91-6.24 6.14-9.16 10.59-12.37 22.49-14.37 37.09-3.44 25.12-24.82 38.19-45.49 50.83-3.62 2.21-7.35 4.5-10.93 6.81-4.6 2.97-8.88 6.22-13.02 9.35-6.92 5.24-13.45 10.19-21.36 14-6.06 2.92-11.76 6.28-17.28 9.53-5.46 3.21-11.1 6.53-17 9.37-3.47 1.67-6.63 3.53-9.69 5.32-7.35 4.31-13.7 8.04-21.95 8.04-2.37 0-4.75-.31-7.27-.94-5.19-1.3-10.63-1.88-17.64-1.88-2.86 0-5.76.09-8.56.18s-5.69.18-8.55.18c-3.3 0-6.21-.13-8.88-.39-14.41-1.41-24.23-9.53-34.68-19.19-9.97-9.22-21.21-17.68-36.44-27.42-5.45-3.49-11.13-6.26-16.62-8.94-6.26-3.05-12.74-6.21-18.83-10.43-3.17-2.19-6.75-4.14-10.23-6.03-8.25-4.49-16.78-9.12-21.04-17.54-2.6-5.13-2.84-10.18-3.09-15.53-.09-1.94-.19-3.95-.4-6.05-.37-3.77-1.67-7.07-2.93-10.26-1.37-3.47-2.66-6.74-2.77-10.46-.11-3.67 1.15-7.4 2.37-11.01 1.07-3.17 2.18-6.45 2.38-9.71.44-7.23-2.15-12.66-4.9-18.41z"/><path d="m98.87 270.67c.14 2.92.2 5.86.26 8.71.37 17.19.71 33.42 17.56 44.58 5.03 3.33 10.62 5.89 16.02 8.37 4.75 2.18 9.67 4.43 14.22 7.21 7.6 4.64 14.08 10.02 20.94 15.72 1.14.94 2.28 1.89 3.42 2.83 10.97 9.03 28.6 19.8 50.27 19.8 2.09 0 4.2-.1 6.28-.31 20.96-2.08 37.39-12.25 53.76-23.4 4.63-3.15 9.27-5.89 13.75-8.53 12.18-7.19 23.68-13.97 32.35-27.5 3.71-5.78 5.81-11.79 8.05-18.15 1.33-3.78 2.7-7.68 4.43-11.51 2.69-5.95 6.28-11.7 9.74-17.26 2.59-4.16 5.27-8.45 7.54-12.78 2.73-5.19 5.81-9.89 8.79-14.42 7.91-12.02 15.37-23.38 13.65-40.79-1.45-14.61-9.31-25.06-17.64-36.12-2.89-3.84-5.88-7.81-8.59-11.98-2.38-3.67-4.53-7.3-6.61-10.81-8.38-14.15-15.62-26.36-32.81-33.44-8.44-3.47-18.12-3.9-27.48-4.31-1.02-.04-2.04-.09-3.05-.14-1.37-.07-2.76-.09-4.16-.12-4.06-.07-8.25-.15-11.95-1.27-2.51-.76-4.79-2.07-7.2-3.46-2.11-1.22-4.29-2.48-6.63-3.31-10.99-3.94-19.98-5.7-29.13-5.7-5.45 0-10.74-.48-15.87-.95-5.06-.46-10.3-.94-15.63-.94-19 0-34.8 5.63-54.55 19.44-14.76 10.32-25.16 19.99-32.74 30.42-3.17 4.37-5.31 8.9-7.57 13.69-.54 1.14-1.08 2.29-1.64 3.44-1.43 2.94-3.2 5.8-4.92 8.56-2.44 3.93-4.97 8-6.58 12.44-3.37 9.26-3.01 22.72-1.56 32.22 1.41 9.25 4.42 18 7.32 26.46 3.63 10.56 7.39 21.49 7.96 33.31zm-12.78-91.65c1.58-4.34 4.08-8.37 6.49-12.25 1.73-2.78 3.52-5.66 4.97-8.65.56-1.16 1.11-2.31 1.65-3.45 2.24-4.75 4.36-9.23 7.47-13.53 7.51-10.34 17.83-19.94 32.5-30.19 19.57-13.68 35.2-19.26 53.99-19.26 5.27 0 10.48.48 15.52.93 5.15.47 10.47.95 15.96.95 9.03 0 17.92 1.74 28.8 5.64 2.26.81 4.4 2.04 6.47 3.24 2.35 1.36 4.78 2.76 7.41 3.55 3.83 1.16 8.09 1.23 12.22 1.31 1.39.02 2.77.05 4.13.11 1.01.05 2.03.09 3.05.14 9.28.41 18.87.83 27.14 4.23 16.89 6.95 24.05 19.03 32.33 33.02 2.08 3.52 4.24 7.16 6.63 10.84 2.72 4.19 5.72 8.18 8.63 12.03 8.24 10.94 16.03 21.28 17.45 35.62 1.69 17.06-5.68 28.27-13.49 40.15-3 4.56-6.09 9.27-8.84 14.51-2.25 4.3-4.92 8.58-7.5 12.72-3.48 5.59-7.08 11.37-9.8 17.38-1.75 3.87-3.13 7.79-4.46 11.59-2.21 6.3-4.3 12.26-7.94 17.94-8.54 13.33-19.95 20.06-32.02 27.18-4.5 2.65-9.15 5.4-13.81 8.57-16.26 11.07-32.57 21.17-53.29 23.23-2.04.2-4.12.31-6.18.31-21.37 0-38.79-10.64-49.63-19.57-1.15-.94-2.29-1.89-3.42-2.83-6.89-5.72-13.39-11.12-21.05-15.8-4.6-2.81-9.55-5.08-14.33-7.27-5.37-2.46-10.91-5-15.88-8.29-16.41-10.87-16.75-26.85-17.11-43.76-.06-2.85-.12-5.81-.27-8.74-.58-11.96-4.36-22.95-8.01-33.58-2.89-8.42-5.88-17.13-7.28-26.28-1.44-9.39-1.8-22.65 1.5-31.74z"/><path d="m93.25 294.13c-.15.88-.3 1.74-.45 2.57-1.75 9.88-3.01 17.01 5.77 25.62 7.33 7.18 17.12 11.4 27.35 15.44 14.42 5.69 25.65 14.41 37.53 23.63 3.04 2.36 6.18 4.8 9.4 7.2 9.7 7.24 18.31 10.29 28.27 12.65 3.31.78 6.83 2.02 10.55 3.33 6.68 2.36 13.6 4.79 20.03 4.79h.28c8.81-.1 18.32-4.04 29.05-12.06 8.68-6.49 17.25-12.24 27.77-18.67 9.14-5.58 18.59-11.36 27.3-18.21 2.29-1.8 4.66-3.53 7.17-5.35 8.11-5.9 16.5-12 21.6-20.62 5.69-9.59 8.33-20.57 10.89-31.19l.19-.79c2.74-11.36 9.38-19.64 16.16-26.89.98-1.05 2-2.11 3.05-3.19 7.19-7.44 15.34-15.88 15.34-26.93 0-7.85-2.51-16.91-4.72-24.9-.72-2.6-1.4-5.05-1.97-7.38-1.11-4.51-3.36-7.43-5.73-10.53-1.11-1.45-2.26-2.95-3.31-4.65-1.37-2.22-2.31-4.62-3.21-6.95-1.06-2.71-2.15-5.52-3.95-8.13-1.57-2.27-3.47-4.29-5.3-6.23-1.51-1.6-3.07-3.26-4.42-5.03-1.64-2.15-2.96-4.5-4.23-6.76-1-1.77-2.03-3.59-3.21-5.35-2.54-3.75-4.6-7.94-6.6-11.98-2.28-4.63-4.64-9.41-7.71-13.53-7.42-9.95-18.58-10.99-28.43-11.9-1.09-.1-2.33-.15-3.77-.15-2.04 0-4.18.1-6.46.2-2.33.1-4.75.21-7.1.21-6.18 0-10.24-.78-13.14-2.52-2.08-1.24-3.32-3.09-4.65-5.05-1.17-1.73-2.37-3.51-4.2-4.88-2.83-2.12-5.74-2.41-8.46-2.41-.83 0-1.66.03-2.51.06-1.66.06-3.42.1-4.81-.03-8.81-.79-17.76-3.65-27.37-8.73-5.35-2.83-9.99-4.15-14.6-4.15-4.29 0-8.79 1.11-14.59 3.59-6.39 2.74-12.47 3.27-18.9 3.83-3.29.29-6.68.58-10.28 1.18-8.44 1.41-16.66 7.04-24.35 12.68-11.1 8.14-21.91 18.47-32.14 30.7-2.5 2.99-5.36 6.04-8.12 8.99-5.07 5.41-10.31 11.01-14.1 16.94-5.33 8.35-9.44 17.54-11.57 25.88-2.31 9.04-2.38 20.15-.2 30.48 1.22 5.77 3.39 10.97 5.49 15.99 1.23 2.93 2.49 5.97 3.58 9.12 5.62 16.32 11.57 37.88 7.79 60.06zm-15.88-85.36c-2.15-10.18-2.08-21.13.19-30.03 2.1-8.24 6.16-17.33 11.44-25.59 3.74-5.85 8.95-11.41 13.99-16.79 2.77-2.96 5.64-6.02 8.16-9.03 10.18-12.17 20.93-22.44 31.96-30.53 7.6-5.57 15.7-11.13 23.93-12.5 3.56-.59 6.94-.89 10.2-1.17 6.51-.57 12.66-1.1 19.2-3.91 5.67-2.43 10.05-3.51 14.19-3.51 4.44 0 8.94 1.28 14.14 4.03 9.73 5.14 18.8 8.04 27.74 8.84 1.44.13 3.23.09 4.93.03.83-.03 1.66-.06 2.47-.06 2.55 0 5.27.27 7.86 2.21 1.69 1.27 2.85 2.98 3.97 4.64 1.33 1.96 2.7 3.99 4.96 5.35 3.07 1.84 7.28 2.66 13.65 2.66 2.37 0 4.8-.11 7.14-.21 2.26-.1 4.4-.2 6.41-.2 1.41 0 2.62.05 3.68.15 9.64.89 20.57 1.91 27.72 11.5 3.01 4.04 5.35 8.78 7.61 13.37 2.01 4.08 4.09 8.29 6.67 12.1 1.16 1.72 2.18 3.53 3.17 5.28 1.29 2.29 2.63 4.66 4.31 6.87 1.38 1.82 2.96 3.49 4.49 5.11 1.81 1.92 3.68 3.9 5.21 6.11 1.73 2.51 2.8 5.26 3.84 7.92.92 2.37 1.88 4.82 3.29 7.11 1.08 1.74 2.24 3.26 3.37 4.73 2.31 3.01 4.49 5.86 5.56 10.16.58 2.35 1.26 4.81 1.98 7.41 2.19 7.93 4.68 16.92 4.68 24.63 0 10.65-8 18.93-15.06 26.24-1.05 1.08-2.08 2.15-3.06 3.2-6.87 7.36-13.61 15.76-16.4 27.34l-.19.79c-2.54 10.55-5.17 21.45-10.77 30.92-5 8.44-13.3 14.48-21.33 20.32-2.41 1.75-4.9 3.56-7.2 5.38-8.66 6.82-18.09 12.57-27.2 18.14-10.55 6.45-19.13 12.22-27.84 18.72-10.56 7.89-19.87 11.77-28.47 11.86h-.26c-6.27 0-13.1-2.41-19.7-4.73-3.75-1.32-7.29-2.57-10.65-3.36-9.83-2.33-18.34-5.34-27.9-12.47-3.21-2.4-6.35-4.84-9.39-7.19-11.94-9.27-23.22-18.03-37.77-23.77-10.14-4-19.83-8.17-27.02-15.23-8.41-8.24-7.25-14.8-5.49-24.73.15-.84.3-1.7.45-2.58 3.82-22.41-2.17-44.12-7.82-60.54-1.1-3.18-2.37-6.23-3.6-9.18-2.18-5.2-4.24-10.13-5.44-15.81z"/><path d="m105.63 268.8c.13 2.77.19 5.56.25 8.26.35 16.31.68 31.72 16.67 42.31 4.78 3.16 10.08 5.59 15.2 7.94 4.51 2.07 9.17 4.2 13.49 6.84 7.21 4.4 13.36 9.51 19.87 14.91 1.08.89 2.16 1.79 3.24 2.69 10.41 8.57 27.14 18.79 47.71 18.79 1.98 0 3.99-.1 5.96-.29 19.89-1.97 35.48-11.63 51.01-22.2 4.39-2.99 8.79-5.58 13.05-8.1 11.56-6.82 22.47-13.26 30.7-26.1 3.52-5.49 5.52-11.19 7.64-17.23 1.26-3.58 2.56-7.28 4.2-10.91 2.55-5.64 5.95-11.1 9.24-16.37 2.46-3.94 5-8.02 7.16-12.13 2.59-4.93 5.51-9.38 8.34-13.68 7.5-11.41 14.59-22.19 12.95-38.72-1.37-13.87-8.84-23.79-16.75-34.28-2.74-3.64-5.58-7.41-8.14-11.36-2.26-3.48-4.3-6.92-6.27-10.25-7.95-13.42-14.82-25.02-31.14-31.73-8.01-3.3-17.2-3.7-26.08-4.09-.97-.04-1.94-.08-2.89-.13-1.3-.06-2.62-.09-3.95-.11-3.85-.07-7.83-.14-11.33-1.2-2.38-.72-4.54-1.97-6.82-3.28-2-1.16-4.07-2.35-6.3-3.15-10.43-3.74-18.96-5.4-27.65-5.41-5.17 0-10.19-.46-15.05-.9-4.8-.44-9.77-.89-14.83-.89-18.03 0-33.03 5.34-51.77 18.45-14.01 9.79-23.88 18.97-31.06 28.87-3.01 4.15-5.04 8.44-7.18 12.99-.51 1.08-1.02 2.17-1.56 3.27-1.35 2.79-3.04 5.5-4.66 8.11-2.32 3.73-4.72 7.59-6.25 11.81-3.19 8.79-2.86 21.56-1.48 30.58 1.34 8.78 4.19 17.08 6.95 25.11 3.43 10.01 6.99 20.37 7.53 31.58zm-12.07-86.94c1.5-4.12 3.87-7.93 6.16-11.62 1.64-2.64 3.33-5.37 4.71-8.21.53-1.1 1.05-2.19 1.56-3.28 2.12-4.5 4.13-8.76 7.09-12.83 7.12-9.81 16.92-18.91 30.83-28.64 18.56-12.98 33.39-18.27 51.21-18.27 5 0 9.95.45 14.73.89 4.88.44 9.93.9 15.14.91 8.57 0 16.99 1.65 27.31 5.35 2.14.77 4.17 1.94 6.13 3.07 2.23 1.29 4.54 2.62 7.03 3.37 3.63 1.1 7.68 1.17 11.6 1.24 1.32.02 2.63.05 3.92.11.96.05 1.93.09 2.9.13 8.8.39 17.89.79 25.74 4.02 16.01 6.59 22.8 18.05 30.67 31.32 1.98 3.34 4.02 6.79 6.29 10.29 2.58 3.98 5.43 7.76 8.18 11.42 7.82 10.38 15.2 20.19 16.55 33.78 1.6 16.18-5.39 26.81-12.8 38.07-2.84 4.32-5.78 8.8-8.39 13.77-2.14 4.08-4.67 8.14-7.12 12.07-3.3 5.3-6.72 10.79-9.3 16.49-1.66 3.67-2.97 7.39-4.23 10.99-2.1 5.98-4.08 11.63-7.54 17.02-8.1 12.64-18.92 19.02-30.37 25.78-4.27 2.52-8.68 5.12-13.1 8.13-15.42 10.5-30.89 20.09-50.55 22.03-1.94.19-3.91.29-5.86.29-20.27 0-36.79-10.09-47.08-18.56-1.09-.89-2.16-1.79-3.24-2.68-6.54-5.43-12.71-10.55-19.98-15-4.37-2.67-9.06-4.82-13.59-6.9-5.09-2.33-10.35-4.74-15.07-7.86-15.56-10.3-15.88-25.46-16.22-41.5-.06-2.71-.12-5.51-.25-8.29-.55-11.35-4.13-21.78-7.6-31.87-2.74-7.99-5.58-16.25-6.91-24.93-1.35-8.91-1.68-21.48 1.45-30.1z"/><path d="m67.34 299.2c-.19 1.01-.38 1.98-.56 2.94-2.17 11.26-3.73 19.39 6.45 29.31 8.49 8.28 19.93 13.22 31.88 17.95 16.86 6.68 29.93 16.78 43.76 27.47 3.54 2.73 7.2 5.56 10.95 8.35 11.28 8.38 21.34 11.97 32.98 14.77 3.88.93 7.99 2.39 12.34 3.93 7.91 2.8 16.09 5.71 23.7 5.71h.03c10.32-.01 21.49-4.41 34.17-13.44 10.26-7.31 20.37-13.8 32.8-21.04 10.78-6.28 21.93-12.76 32.23-20.51 2.71-2.04 5.51-3.98 8.48-6.04 9.58-6.65 19.48-13.52 25.57-23.31 6.78-10.9 10.01-23.44 13.14-35.56l.22-.87c3.35-12.98 11.25-22.38 19.29-30.6 1.16-1.18 2.37-2.39 3.61-3.61 8.51-8.42 18.16-17.96 18.29-30.58.09-8.97-2.74-19.36-5.24-28.52-.81-2.98-1.58-5.79-2.23-8.47-1.25-5.15-3.85-8.52-6.59-12.09-1.29-1.67-2.62-3.4-3.83-5.36-1.58-2.56-2.65-5.32-3.69-8-1.21-3.11-2.46-6.33-4.53-9.33-1.81-2.62-4.01-4.94-6.14-7.18-1.75-1.85-3.56-3.76-5.13-5.81-1.9-2.48-3.42-5.18-4.89-7.78-1.15-2.03-2.34-4.13-3.71-6.15-2.94-4.33-5.31-9.14-7.6-13.79-2.62-5.31-5.33-10.81-8.87-15.54-8.56-11.44-21.62-12.75-33.15-13.91-1.47-.15-3.17-.22-5.22-.22-2.15 0-4.39.08-6.76.16-2.42.08-4.92.17-7.36.17-5.27 0-11.89-.35-16.41-3.05-2.43-1.45-3.88-3.59-5.42-5.85-1.34-1.98-2.73-4.03-4.85-5.61-3.34-2.49-6.91-2.84-10.28-2.84-.83 0-1.66.02-2.5.04-.85.02-1.7.04-2.56.04-1.18 0-2.17-.04-3.1-.13-10.33-1.01-20.81-4.38-32.04-10.3-6.33-3.34-11.83-4.9-17.33-4.9-4.94 0-10.13 1.21-16.83 3.94-7.55 3.07-14.69 3.6-22.25 4.17-3.85.29-7.84.59-12.07 1.23-9.89 1.51-19.59 7.85-28.68 14.21-13.11 9.18-25.91 20.86-38.05 34.72-2.97 3.39-6.36 6.85-9.64 10.19-6.01 6.13-12.22 12.46-16.73 19.19-6.35 9.49-11.27 19.95-13.86 29.45-2.81 10.31-3.03 23-.59 34.83 1.36 6.61 3.84 12.57 6.25 18.34 1.4 3.37 2.86 6.85 4.09 10.47 6.43 18.74 13.17 43.47 8.46 68.81zm-7.48-69.11c-1.25-3.65-2.71-7.15-4.12-10.53-2.49-5.99-4.85-11.64-6.19-18.16-2.4-11.68-2.19-24.21.58-34.37 2.56-9.4 7.44-19.75 13.73-29.15 4.46-6.65 10.64-12.96 16.61-19.05 3.29-3.35 6.69-6.82 9.68-10.23 12.08-13.8 24.82-25.43 37.87-34.56 8.99-6.29 18.58-12.56 28.26-14.04 4.19-.64 8.15-.94 11.99-1.22 7.64-.57 14.85-1.11 22.55-4.24 6.58-2.67 11.65-3.86 16.45-3.86 5.32 0 10.68 1.52 16.86 4.78 11.34 5.99 21.94 9.4 32.4 10.41.96.09 1.98.14 3.19.14.87 0 1.73-.02 2.58-.04.83-.02 1.66-.04 2.48-.04 3.69 0 6.74.45 9.68 2.64 1.98 1.48 3.32 3.46 4.62 5.37 1.53 2.25 3.1 4.58 5.73 6.14 4.73 2.83 11.53 3.19 16.92 3.19 2.46 0 4.97-.08 7.39-.17 2.36-.08 4.59-.15 6.73-.15 2.01 0 3.69.07 5.12.21 11.32 1.14 24.15 2.42 32.45 13.51 3.49 4.66 6.18 10.11 8.78 15.39 2.31 4.68 4.7 9.53 7.67 13.91 1.35 1.98 2.52 4.07 3.66 6.08 1.49 2.63 3.03 5.36 4.96 7.9 1.6 2.09 3.43 4.02 5.2 5.89 2.1 2.22 4.28 4.51 6.05 7.07 2.01 2.9 3.23 6.06 4.42 9.12 1.05 2.72 2.14 5.52 3.77 8.16 1.24 2 2.59 3.75 3.89 5.44 2.68 3.48 5.21 6.76 6.41 11.71.65 2.69 1.42 5.51 2.24 8.49 2.48 9.1 5.29 19.41 5.2 28.24-.13 12.21-9.62 21.59-18 29.88-1.24 1.23-2.46 2.43-3.62 3.62-8.14 8.33-16.14 17.85-19.55 31.05l-.22.87c-3.11 12.05-6.32 24.51-13.02 35.28-5.98 9.61-15.79 16.42-25.29 23.01-2.84 1.97-5.78 4.01-8.51 6.06-10.25 7.71-21.37 14.18-32.13 20.44-12.45 7.25-22.59 13.76-32.88 21.09-12.5 8.91-23.49 13.25-33.59 13.26l-.03.5v-.5c-7.44 0-15.54-2.87-23.37-5.65-4.38-1.55-8.52-3.02-12.44-3.96-11.52-2.77-21.47-6.32-32.61-14.6-3.74-2.78-7.4-5.61-10.93-8.34-13.89-10.73-27.01-20.87-44-27.61-11.85-4.7-23.19-9.59-31.55-17.74-9.79-9.55-8.35-17.05-6.16-28.41.18-.95.37-1.93.56-2.94 4.74-25.57-2.03-50.46-8.47-69.29z"/><path d="m82.6 293.38c-.17.91-.34 1.8-.5 2.66-1.96 10.22-3.38 17.61 5.85 26.62 7.69 7.51 18.03 11.99 28.85 16.29 15.25 6.06 27.06 15.21 39.57 24.9 3.2 2.48 6.51 5.05 9.9 7.57 10.21 7.61 19.31 10.86 29.85 13.4 3.5.85 7.22 2.17 11.16 3.57 7.16 2.54 14.56 5.18 21.46 5.18h.03c9.34-.01 19.46-4 30.94-12.2 9.28-6.63 18.43-12.52 29.66-19.08 9.75-5.69 19.82-11.57 29.15-18.6 2.45-1.85 4.98-3.61 7.66-5.47 8.67-6.03 17.63-12.27 23.14-21.15 6.14-9.89 9.06-21.26 11.88-32.25l.21-.8c3.02-11.75 10.17-20.27 17.44-27.73 1.05-1.07 2.15-2.16 3.26-3.27 7.71-7.64 16.44-16.3 16.56-27.76.08-8.14-2.48-17.56-4.74-25.87-.73-2.7-1.43-5.25-2.02-7.68-1.13-4.68-3.48-7.74-5.97-10.97-1.16-1.52-2.37-3.08-3.46-4.86-1.43-2.32-2.4-4.82-3.34-7.25-1.09-2.83-2.22-5.75-4.1-8.47-1.64-2.37-3.63-4.48-5.56-6.52-1.58-1.68-3.22-3.41-4.64-5.27-1.71-2.25-3.09-4.69-4.42-7.05-1.04-1.84-2.11-3.75-3.36-5.58-2.65-3.92-4.8-8.28-6.87-12.5-2.37-4.82-4.82-9.81-8.03-14.1-7.75-10.39-19.58-11.58-30.02-12.63-1.33-.13-2.88-.2-4.73-.2-1.95 0-3.97.07-6.12.14-2.18.07-4.44.15-6.65.15-4.76 0-10.74-.31-14.82-2.76-2.19-1.31-3.5-3.24-4.88-5.29-1.22-1.8-2.48-3.66-4.4-5.1-3.04-2.27-6.27-2.58-9.32-2.58-.75 0-1.51.02-2.27.04-.77.02-1.54.04-2.32.04-1.07 0-1.96-.04-2.79-.12-9.34-.91-18.81-3.97-28.96-9.34-5.73-3.04-10.72-4.45-15.7-4.45-4.47 0-9.17 1.1-15.24 3.57-6.82 2.78-13.28 3.26-20.11 3.78-3.49.26-7.09.53-10.92 1.12-8.96 1.37-17.74 7.12-25.96 12.89-11.86 8.33-23.44 18.92-34.42 31.49-2.69 3.08-5.75 6.21-8.72 9.24-5.44 5.56-11.06 11.31-15.14 17.41-5.75 8.61-10.2 18.1-12.55 26.72-2.54 9.35-2.74 20.87-.54 31.61 1.23 6 3.48 11.41 5.65 16.64 1.27 3.06 2.58 6.21 3.7 9.5 5.83 16.98 11.92 39.4 7.67 62.37zm-6.67-62.68c-1.13-3.31-2.45-6.49-3.73-9.56-2.26-5.43-4.39-10.55-5.6-16.45-2.17-10.59-1.98-21.94.52-31.14 2.32-8.52 6.72-17.9 12.41-26.42 4.03-6.03 9.62-11.74 15.02-17.27 2.97-3.04 6.05-6.18 8.75-9.28 10.93-12.51 22.45-23.05 34.24-31.33 8.13-5.7 16.79-11.39 25.54-12.72 3.78-.58 7.37-.85 10.84-1.11 6.91-.52 13.44-1.01 20.41-3.85 5.94-2.42 10.52-3.5 14.86-3.5 4.81 0 9.65 1.38 15.23 4.33 10.26 5.43 19.86 8.53 29.33 9.45.87.08 1.79.12 2.89.12.79 0 1.57-.02 2.34-.04.75-.02 1.5-.04 2.24-.04 3.32 0 6.08.41 8.72 2.38 1.79 1.34 3 3.13 4.17 4.86 1.38 2.05 2.81 4.16 5.2 5.59 4.29 2.57 10.45 2.9 15.33 2.9 2.23 0 4.5-.08 6.69-.15 2.13-.07 4.15-.14 6.08-.14 1.82 0 3.33.06 4.63.19 10.23 1.03 21.82 2.2 29.32 12.23 3.15 4.22 5.58 9.17 7.93 13.95 2.09 4.25 4.25 8.64 6.94 12.62 1.22 1.8 2.28 3.69 3.31 5.52 1.35 2.39 2.74 4.86 4.49 7.17 1.45 1.9 3.1 3.65 4.71 5.35 1.9 2.01 3.86 4.09 5.46 6.4 1.81 2.62 2.92 5.49 3.99 8.26.95 2.47 1.94 5.01 3.42 7.41 1.12 1.82 2.34 3.4 3.52 4.94 2.42 3.15 4.71 6.12 5.79 10.6.59 2.44 1.29 5 2.02 7.7 2.24 8.25 4.79 17.6 4.7 25.6-.12 11.05-8.7 19.56-16.27 27.07-1.12 1.11-2.23 2.21-3.28 3.28-7.37 7.55-14.61 16.2-17.69 28.18l-.21.8c-2.81 10.92-5.71 22.21-11.77 31.97-5.4 8.71-14.28 14.88-22.86 20.85-2.57 1.79-5.23 3.64-7.7 5.5-9.28 7-19.34 12.86-29.06 18.54-11.26 6.57-20.43 12.47-29.74 19.12-11.3 8.08-21.23 12-30.35 12.01l-.03.5v-.5c-6.72 0-14.04-2.6-21.12-5.12-3.96-1.41-7.7-2.74-11.26-3.6-10.41-2.51-19.41-5.73-29.48-13.23-3.38-2.52-6.69-5.08-9.89-7.56-12.57-9.74-24.44-18.93-39.81-25.04-10.72-4.26-20.97-8.69-28.52-16.08-8.84-8.64-7.54-15.43-5.56-25.72.17-.87.34-1.75.51-2.67 4.33-23.21-1.8-45.79-7.62-62.87z"/><path d="m74.92 296.09c-.18.96-.36 1.89-.53 2.79-2.07 10.72-3.56 18.46 6.16 27.92 8.1 7.88 19.01 12.58 30.41 17.09 16.08 6.36 28.54 15.96 41.73 26.13 3.38 2.6 6.87 5.29 10.44 7.95 10.76 7.98 20.36 11.39 31.46 14.06 3.7.89 7.62 2.27 11.77 3.74 7.55 2.67 15.35 5.43 22.62 5.43h.03c9.84-.01 20.51-4.19 32.6-12.8 9.79-6.97 19.44-13.14 31.28-20.02 10.28-5.97 20.91-12.14 30.74-19.52 2.58-1.94 5.26-3.79 8.08-5.75 9.14-6.33 18.58-12.87 24.39-22.18 6.47-10.38 9.55-22.31 12.53-33.84l.22-.84c3.19-12.34 10.73-21.28 18.4-29.11 1.1-1.12 2.26-2.27 3.44-3.43 8.12-8.02 17.33-17.1 17.46-29.12.09-8.54-2.61-18.42-5-27.14-.77-2.83-1.51-5.51-2.13-8.06-1.19-4.91-3.67-8.12-6.29-11.51-1.23-1.59-2.5-3.24-3.65-5.1-1.51-2.43-2.53-5.06-3.52-7.6-1.15-2.96-2.34-6.03-4.32-8.88-1.73-2.49-3.83-4.7-5.86-6.84-1.67-1.76-3.4-3.58-4.89-5.53-1.81-2.36-3.26-4.93-4.66-7.41-1.1-1.93-2.23-3.93-3.54-5.86-2.8-4.12-5.06-8.69-7.25-13.12-2.5-5.06-5.08-10.29-8.46-14.79-8.17-10.89-20.63-12.14-31.63-13.24-1.4-.14-3.03-.21-4.98-.21-2.05 0-4.19.07-6.45.15-2.3.08-4.69.16-7.02.16-5.02 0-11.33-.33-15.64-2.9-2.32-1.38-3.7-3.41-5.16-5.56-1.28-1.89-2.61-3.84-4.63-5.35-3.19-2.38-6.6-2.71-9.81-2.71-.79 0-1.59.02-2.39.04-.81.02-1.62.04-2.44.04-1.13 0-2.06-.04-2.95-.13-9.85-.96-19.84-4.16-30.55-9.8-6.04-3.18-11.29-4.66-16.54-4.66-4.71 0-9.66 1.16-16.06 3.75-7.2 2.92-14 3.43-21.21 3.97-3.68.27-7.48.56-11.51 1.17-9.44 1.44-18.69 7.47-27.36 13.53-12.5 8.74-24.71 19.85-36.29 33.05-2.83 3.23-6.07 6.52-9.19 9.7-5.73 5.83-11.66 11.86-15.96 18.27-6.06 9.03-10.76 18.99-13.23 28.03-2.68 9.81-2.89 21.9-.57 33.16 1.3 6.29 3.67 11.97 5.96 17.46 1.34 3.21 2.72 6.52 3.9 9.96 6.12 17.83 12.54 41.36 8.05 65.46zm-7.08-65.76c-1.19-3.47-2.58-6.81-3.93-10.03-2.38-5.7-4.63-11.08-5.9-17.27-2.29-11.11-2.09-23.03.55-32.69 2.44-8.94 7.09-18.79 13.09-27.74 4.25-6.33 10.14-12.32 15.84-18.12 3.14-3.19 6.38-6.49 9.23-9.74 11.53-13.13 23.68-24.2 36.11-32.89 8.57-5.99 17.71-11.95 26.94-13.36 3.99-.61 7.78-.89 11.44-1.16 7.29-.54 14.17-1.06 21.51-4.04 6.27-2.54 11.1-3.68 15.68-3.68 5.07 0 10.18 1.45 16.07 4.55 10.82 5.7 20.93 8.94 30.91 9.91.92.09 1.88.13 3.05.13.83 0 1.65-.02 2.47-.04.79-.02 1.58-.04 2.36-.04 3.51 0 6.42.43 9.22 2.51 1.89 1.41 3.17 3.29 4.4 5.11 1.46 2.14 2.96 4.36 5.47 5.85 4.52 2.69 11 3.04 16.15 3.04 2.35 0 4.74-.08 7.05-.16 2.25-.08 4.38-.15 6.42-.15 1.92 0 3.51.07 4.88.2 10.79 1.08 23.03 2.31 30.93 12.85 3.33 4.43 5.89 9.62 8.37 14.64 2.2 4.46 4.48 9.07 7.32 13.24 1.28 1.89 2.41 3.87 3.49 5.79 1.42 2.51 2.89 5.1 4.74 7.52 1.52 1.99 3.27 3.83 4.96 5.61 2 2.11 4.08 4.29 5.76 6.72 1.91 2.76 3.08 5.77 4.21 8.68 1 2.59 2.04 5.26 3.6 7.77 1.18 1.91 2.47 3.57 3.71 5.18 2.55 3.31 4.97 6.43 6.11 11.13.62 2.56 1.36 5.24 2.13 8.08 2.37 8.66 5.05 18.47 4.96 26.87-.12 11.61-9.17 20.54-17.16 28.42-1.18 1.17-2.34 2.31-3.45 3.44-7.77 7.93-15.4 17-18.65 29.56l-.22.84c-2.96 11.46-6.02 23.31-12.41 33.56-5.7 9.14-15.06 15.62-24.11 21.89-2.71 1.88-5.52 3.82-8.12 5.77-9.78 7.34-20.39 13.5-30.64 19.45-11.87 6.9-21.54 13.08-31.36 20.07-11.92 8.48-22.39 12.6-32.02 12.61l-.03.5v-.5c-7.1 0-14.82-2.73-22.29-5.37-4.18-1.48-8.12-2.87-11.87-3.77-10.98-2.64-20.47-6.01-31.1-13.89-3.57-2.65-7.06-5.34-10.43-7.94-13.25-10.21-25.76-19.86-41.97-26.27-11.3-4.47-22.11-9.12-30.08-16.88-9.33-9.08-7.95-16.21-5.87-27.01.18-.91.36-1.84.53-2.8 4.55-24.34-1.92-48.03-8.05-65.95zm-30.14 202.59c-2.14-.59-4.36-1.2-6.44-2.2l-.68-.33c-5.62-2.7-11.16-5.37-16.78-8.03-5.29-2.51-9.48-5.42-13.8-9.61v1.39c4.16 3.91 8.26 6.7 13.38 9.12 5.61 2.66 11.16 5.33 16.77 8.03l.68.33c2.16 1.04 4.42 1.66 6.61 2.26 2.79.77 5.43 1.49 7.85 3.01 6.13 3.87 12.01 8.39 17.72 13.1h1.56c-6.03-5.01-12.24-9.84-18.75-13.95-2.55-1.59-5.38-2.37-8.12-3.12zm-22.42-.16c2.16 1.04 4.42 1.66 6.61 2.26 2.79.77 5.43 1.49 7.85 3.01 5.63 3.55 11.05 7.67 16.32 11.96h1.58c-5.6-4.6-11.36-9.02-17.37-12.81-2.54-1.6-5.38-2.38-8.11-3.13-2.14-.59-4.36-1.2-6.44-2.2l-.68-.33c-5.04-2.41-10.02-4.8-15.04-7.18v1.11c4.87 2.32 9.71 4.64 14.6 6.99zm38.12-.5c-2.54-1.6-5.38-2.38-8.11-3.13-2.14-.59-4.36-1.2-6.44-2.2l-.68-.33c-5.62-2.7-11.16-5.37-16.78-8.03-5.64-2.67-10.02-5.79-14.65-10.43-2-2-4.21-3.61-6.34-5.16-.13-.1-.27-.19-.4-.29v1.24c2.04 1.48 4.14 3.03 6.03 4.92 4.72 4.72 9.18 7.9 14.93 10.62 5.61 2.66 11.16 5.33 16.77 8.03l.68.33c2.16 1.04 4.42 1.66 6.61 2.26 2.79.77 5.43 1.49 7.85 3.01 7.76 4.9 15.12 10.84 22.25 16.9h1.54c-7.43-6.34-15.12-12.61-23.26-17.74zm353.09 5.93c7.9-3.7 15.36-7.2 22.2-14.11 9.38-9.49 13.35-20.69 17.54-32.55 1.19-3.35 2.41-6.8 3.77-10.23v-2.66c-1.75 4.2-3.26 8.45-4.72 12.56-4.16 11.75-8.08 22.85-17.31 32.18-6.71 6.79-14.09 10.25-21.91 13.91-1.74.82-3.52 1.65-5.33 2.53-5.22 2.55-9.75 6.19-13.96 10.18h1.47c3.93-3.64 8.15-6.94 12.93-9.28 1.81-.88 3.58-1.71 5.32-2.53zm-316.04 6.67c-9.01-7.76-18.32-15.78-28.32-22.09-2.54-1.6-5.38-2.38-8.11-3.13-2.14-.59-4.36-1.2-6.44-2.2l-.68-.33c-5.62-2.7-11.16-5.37-16.78-8.03-5.64-2.67-10.02-5.79-14.65-10.43-2-2-4.21-3.61-6.34-5.16-2.5-1.82-5.08-3.69-7.29-6.2l-1.64-1.86-.19-.22v1.51l1.09 1.23c2.28 2.59 4.91 4.5 7.45 6.35 2.1 1.53 4.27 3.11 6.22 5.05 4.72 4.72 9.18 7.9 14.93 10.62 5.61 2.66 11.16 5.33 16.77 8.03l.68.33c2.16 1.04 4.42 1.66 6.61 2.26 2.79.77 5.43 1.49 7.85 3.01 9.94 6.27 19.22 14.27 28.2 22 1.17 1.01 2.34 2.01 3.5 3.01.54.46 1.09.92 1.63 1.38h1.55c-.85-.71-1.7-1.42-2.53-2.13-1.17-.99-2.34-1.99-3.51-3zm263.5-38.15c6.52-6.56 13.26-13.35 21.28-18.62 3.03-2 6.4-3.75 9.96-5.61 7.01-3.66 14.26-7.44 18.86-13.21 4.07-5.11 6.24-11 8.35-16.7 1.45-3.92 2.94-7.97 5.03-11.66 3.45-6.11 6.31-12.48 9.08-18.65 5.33-11.88 10.37-23.11 19.39-32.99 1.44-1.58 2.81-3.15 4.11-4.73v-1.59c-1.51 1.89-3.13 3.75-4.85 5.64-9.12 10.01-14.43 21.83-19.56 33.26-2.76 6.14-5.61 12.49-9.04 18.56-2.13 3.76-3.63 7.85-5.09 11.8-2.08 5.63-4.23 11.45-8.19 16.43-4.46 5.6-11.62 9.34-18.54 12.95-3.43 1.79-6.97 3.64-10.04 5.66-8.11 5.33-14.88 12.16-21.44 18.75-9.21 9.28-18.74 18.87-31.88 24.04-13.52 5.32-27.38 11.77-42.82 19.96h2.13c14.74-7.76 28.06-13.92 41.05-19.03 13.33-5.25 22.93-14.91 32.21-24.26z"/><path d="m431.77 427.55c-6.71 6.79-14.09 10.25-21.91 13.91-1.74.82-3.52 1.65-5.33 2.53-3.32 1.62-6.36 3.69-9.22 6h1.61c2.52-1.96 5.18-3.7 8.04-5.11 1.81-.88 3.58-1.71 5.31-2.53 7.9-3.7 15.36-7.2 22.2-14.11 9.37-9.48 13.33-20.66 17.52-32.49v-2.99c-.31.87-.62 1.74-.92 2.59-4.15 11.77-8.07 22.86-17.3 32.2zm-419.15-392.77c2.02-2.42 4.1-4.93 6.23-7.28 5.92-6.55 13.03-11.4 19.91-16.09 5.15-3.51 10.39-7.09 15.16-11.41h-1.51c-4.5 3.95-9.41 7.3-14.22 10.58-6.92 4.73-14.08 9.61-20.09 16.25-2.14 2.37-4.23 4.88-6.26 7.31-3.69 4.45-7.51 9.03-11.84 12.98v1.34c4.67-4.13 8.71-8.98 12.62-13.68zm46.72 19.12c-9.75 9.43-19.83 19.17-30.64 27.7-9.53 7.51-15.49 19.36-21.25 30.83-2.47 4.9-4.85 9.63-7.45 13.97v1.91c2.96-4.75 5.6-9.98 8.35-15.43 5.72-11.36 11.63-23.11 20.98-30.49 10.85-8.56 20.95-18.32 30.71-27.76 11.77-11.39 23.94-23.15 37.46-32.84 13.02-9.32 26.72-16.31 43-21.79h-3.04c-15.19 5.37-28.18 12.12-40.55 20.98-13.58 9.73-25.77 21.52-37.57 32.92zm-39.23-39.07c-2.14 2.37-4.23 4.88-6.26 7.31-4.12 4.95-8.38 10.08-13.35 14.3-.16.15-.33.28-.5.42v1.29c.39-.31.78-.63 1.16-.95 5.03-4.28 9.32-9.44 13.47-14.43 2.02-2.42 4.1-4.93 6.23-7.28 5.67-6.26 12.43-10.98 19.04-15.49h-1.77c-6.27 4.3-12.61 8.85-18.02 14.83zm330.18 386.49c6.32-6.37 12.86-12.95 20.64-18.06 2.94-1.93 6.2-3.64 9.66-5.44 6.8-3.55 13.83-7.22 18.3-12.82 3.95-4.96 6.06-10.68 8.1-16.21 1.4-3.8 2.85-7.72 4.88-11.3 3.35-5.93 6.12-12.11 8.81-18.09 5.17-11.53 10.06-22.41 18.8-32 4.14-4.54 7.68-8.94 10.54-13.93v-2.08c-2.95 5.59-6.75 10.38-11.27 15.34-8.85 9.71-14 21.17-18.98 32.26-2.67 5.96-5.44 12.12-8.77 18.01-2.06 3.65-3.53 7.62-4.94 11.45-2.02 5.46-4.1 11.1-7.95 15.93-4.33 5.43-11.27 9.06-17.98 12.56-3.32 1.74-6.76 3.53-9.74 5.49-7.87 5.17-14.44 11.79-20.8 18.19-8.93 9-18.17 18.3-30.92 23.31-16.61 6.53-33.74 14.83-53.86 26.08h2.06c19.4-10.79 36.04-18.81 52.16-25.15 12.94-5.1 22.25-14.48 31.26-23.54zm-295.52 25.53c-2.14-.59-4.36-1.2-6.44-2.2l-.68-.33c-5.62-2.7-11.16-5.37-16.78-8.03-5.64-2.67-10.02-5.79-14.65-10.43-2-2-4.21-3.61-6.34-5.16-2.5-1.82-5.08-3.69-7.29-6.2l-1.64-1.86c-.32-.36-.64-.72-.95-1.08v1.51c.07.08.14.15.2.23l1.64 1.86c2.28 2.59 4.91 4.5 7.45 6.35 2.1 1.53 4.27 3.11 6.22 5.05 4.72 4.72 9.18 7.9 14.93 10.62 5.61 2.66 11.16 5.33 16.77 8.03l.68.33c2.16 1.04 4.42 1.66 6.61 2.26 2.79.77 5.43 1.49 7.85 3.01 8.73 5.51 16.96 12.35 24.92 19.17h1.53c-8.26-7.1-16.8-14.27-25.92-20.02-2.53-1.58-5.37-2.36-8.11-3.11zm-53.59-400.41c-.39.33-.78.65-1.18.97v1.28c.62-.48 1.23-.98 1.82-1.48 5.03-4.28 9.32-9.44 13.47-14.43 2.02-2.42 4.1-4.93 6.23-7.28 1.79-1.98 3.7-3.79 5.66-5.5h-1.53c-1.69 1.51-3.32 3.11-4.88 4.83-2.14 2.37-4.23 4.88-6.26 7.31-4.11 4.95-8.37 10.08-13.33 14.3z"/></g></svg>