<svg xmlns="http://www.w3.org/2000/svg" viewBox="0 0 247.53 138.76"><path d="M205.87 0c-30.33 0-41.88 25.07-42.24 41.92v27.24c-.06 1.23-.54 4.75-2.16 7.64-1.43 2.55-3.67 4.92-10.27 4.92-6.55 0-8.74-2.33-10.14-4.85-1.6-2.89-2.06-6.44-2.1-7.63V42.13C138.84 25.2 127.54 0 96.91 0c-30.4 0-42.14 25.12-42.62 42.01 0 .14-.01.28-.01.43v54.23c-.03 1.15-.45 4.63-2 7.45-1.33 2.42-3.44 4.65-9.85 4.65-6.57 0-8.86-2.46-10.24-4.87-1.66-2.91-2.37-6.26-2.42-7.39-.71-7.54-7.05-13.43-14.77-13.43-7.86 0-14.49 6.12-15 13.86.24 16.81 11.74 41.83 42.43 41.83 15.1 0 24.44-6.22 29.63-11.44 11.85-11.94 12.23-28.41 12.23-30.63V42.8c.05-.54.44-4.02 2.07-7.17C87.86 32.7 90.18 30 96.91 30c6.35 0 8.52 2.31 9.91 4.82 1.6 2.88 2.08 6.41 2.14 7.64v26.93c0 17.02 11.25 42.34 42.24 42.34 30.91 0 42.31-25.25 42.43-42.23V42.6c.09-1.3.63-4.79 2.26-7.67 1.45-2.56 3.66-4.92 9.98-4.92 6.18 0 8.26 2.26 9.59 4.71 1.58 2.91 2.02 6.47 2.07 7.67v81.39c0 8.28 6.72 15 15 15 8.28 0 15-6.72 15-15V42.24c0-16.98-11.1-42.24-41.66-42.24z" fill="#ad906e"/></svg>