<svg width="120" height="70" viewBox="0 0 120 70" fill="none" xmlns="http://www.w3.org/2000/svg">
<g clip-path="url(#clip0_1101_44)">
<path d="M44.0196 64.649L46.0784 67.7575V64.6121C46.0784 64.4092 46.1245 64.2524 46.2076 64.1509C46.2907 64.0495 46.4107 63.9941 46.5677 63.9941C46.7246 63.9941 46.8446 64.0495 46.9277 64.1509C47.0201 64.2524 47.057 64.4092 47.057 64.6121V68.7628C47.057 69.224 46.8631 69.4546 46.4846 69.4546C46.3923 69.4546 46.2999 69.4454 46.2261 69.4177C46.1522 69.3901 46.0784 69.3439 46.0137 69.2886C45.9491 69.224 45.8845 69.1595 45.8291 69.0765C45.7737 68.9934 45.7091 68.9197 45.6537 68.8274L43.6411 65.7651V68.8551C43.6411 69.058 43.5949 69.2056 43.5026 69.3163C43.4103 69.4177 43.2903 69.4639 43.1425 69.4639C42.9948 69.4639 42.8656 69.4177 42.7732 69.3071C42.6809 69.2056 42.6348 69.0488 42.6348 68.8459V64.7689C42.6348 64.5937 42.6532 64.4553 42.6902 64.3631C42.7363 64.2524 42.8102 64.1694 42.921 64.1048C43.0225 64.031 43.1425 64.0034 43.2626 64.0034C43.3641 64.0034 43.438 64.0218 43.5118 64.0495C43.5764 64.0772 43.6411 64.1233 43.6965 64.1694C43.7519 64.2247 43.798 64.2893 43.8534 64.3815C43.9088 64.4738 43.9642 64.566 44.0196 64.649Z" fill="white"/>
<path d="M48.9766 67.2046V64.6588C48.9766 64.4466 49.0227 64.2806 49.1243 64.1699C49.2166 64.0592 49.3459 64.0039 49.5028 64.0039C49.669 64.0039 49.7982 64.0592 49.8998 64.1699C50.0013 64.2806 50.0475 64.4374 50.0475 64.6588V67.2599C50.0475 67.5551 50.0844 67.8041 50.1491 67.9978C50.2137 68.1915 50.3337 68.3483 50.4999 68.459C50.6661 68.5697 50.9061 68.625 51.2108 68.625C51.6262 68.625 51.9216 68.5143 52.097 68.293C52.2725 68.0716 52.3555 67.7395 52.3555 67.2784V64.6588C52.3555 64.4374 52.4017 64.2806 52.5033 64.1699C52.5956 64.0592 52.7248 64.0039 52.891 64.0039C53.0572 64.0039 53.1864 64.0592 53.288 64.1699C53.3896 64.2714 53.4357 64.4374 53.4357 64.6588V67.1953C53.4357 67.6104 53.3988 67.9517 53.3157 68.2284C53.2326 68.5051 53.0849 68.7449 52.8633 68.9571C52.6694 69.1323 52.4479 69.2615 52.1894 69.3445C51.9309 69.4275 51.6354 69.4644 51.2938 69.4644C50.8876 69.4644 50.5368 69.4183 50.2414 69.3353C49.9459 69.243 49.7059 69.1139 49.5213 68.9294C49.3366 68.7449 49.1981 68.5143 49.115 68.2192C49.0227 67.9425 48.9766 67.6012 48.9766 67.2046Z" fill="white"/>
<path d="M56.76 67.1309H56.3815V68.8281C56.3815 69.0494 56.3353 69.2155 56.2338 69.3169C56.1322 69.4276 56.003 69.4737 55.846 69.4737C55.6706 69.4737 55.5414 69.4184 55.449 69.3077C55.3567 69.197 55.3105 69.0402 55.3105 68.8188V64.7604C55.3105 64.5298 55.3567 64.3637 55.4675 64.2623C55.569 64.1608 55.7352 64.1055 55.966 64.1055H57.7109C57.951 64.1055 58.1541 64.1147 58.3295 64.1331C58.5049 64.1516 58.6526 64.1977 58.7911 64.253C58.9573 64.3268 59.105 64.4191 59.2342 64.5482C59.3635 64.6773 59.4558 64.8249 59.5204 65.0002C59.5851 65.1754 59.6128 65.3507 59.6128 65.5444C59.6128 65.9318 59.502 66.2546 59.2804 66.4852C59.0588 66.7158 58.7265 66.8911 58.2741 66.9833C58.4587 67.0848 58.6434 67.2323 58.8188 67.426C58.9942 67.6197 59.1511 67.8319 59.2804 68.0533C59.4189 68.2746 59.5204 68.4776 59.5943 68.6528C59.6681 68.8281 59.7051 68.9572 59.7051 69.0218C59.7051 69.0955 59.6866 69.1601 59.6404 69.2339C59.5943 69.2985 59.5389 69.3538 59.4558 69.3907C59.3819 69.4276 59.2896 69.4553 59.1881 69.4553C59.068 69.4553 58.9665 69.4276 58.8834 69.3723C58.8003 69.3169 58.7357 69.2431 58.6711 69.1601C58.6157 69.0771 58.5326 68.948 58.431 68.7819L57.9971 68.0717C57.8402 67.8134 57.7017 67.6105 57.5909 67.4722C57.4709 67.3338 57.3416 67.2416 57.2216 67.1954C57.1016 67.1493 56.9446 67.1309 56.76 67.1309ZM57.3693 64.9079H56.3815V66.3561H57.3416C57.6001 66.3561 57.8125 66.3376 57.9879 66.2915C58.1633 66.2454 58.3018 66.1716 58.3849 66.0609C58.4772 65.9502 58.5234 65.8027 58.5234 65.6182C58.5234 65.4706 58.4864 65.3415 58.4126 65.2308C58.3387 65.1201 58.2372 65.0371 58.1079 64.9817C57.9879 64.9356 57.7386 64.9079 57.3693 64.9079Z" fill="white"/>
<path d="M65.3823 67.7943C65.3823 68.108 65.2992 68.4031 65.133 68.6522C64.9668 68.9104 64.7268 69.1041 64.4129 69.2517C64.099 69.3993 63.7205 69.4639 63.2866 69.4639C62.7696 69.4639 62.3357 69.3624 61.9941 69.1687C61.754 69.0303 61.5602 68.8366 61.4032 68.5968C61.2555 68.3662 61.1816 68.1264 61.1816 67.905C61.1816 67.7759 61.2278 67.6652 61.3109 67.573C61.4032 67.4807 61.514 67.4346 61.6525 67.4346C61.7633 67.4346 61.8648 67.4715 61.9387 67.5453C62.0125 67.6191 62.0864 67.7206 62.1418 67.8589C62.2064 68.0249 62.2803 68.1725 62.3634 68.2832C62.4464 68.3939 62.548 68.4861 62.6957 68.5599C62.8342 68.6337 63.0281 68.6706 63.2496 68.6706C63.5635 68.6706 63.822 68.5968 64.0252 68.4492C64.2283 68.3017 64.3206 68.1172 64.3206 67.8958C64.3206 67.7206 64.2652 67.5822 64.1636 67.4715C64.0621 67.3608 63.9236 67.2778 63.7482 67.2225C63.582 67.1671 63.3512 67.1026 63.065 67.038C62.6865 66.9458 62.3634 66.8443 62.1141 66.7244C61.8556 66.6045 61.6525 66.4477 61.5048 66.2355C61.3571 66.0326 61.2832 65.7743 61.2832 65.4699C61.2832 65.184 61.3663 64.9165 61.5232 64.6952C61.6802 64.4738 61.911 64.2985 62.2064 64.1786C62.5111 64.0587 62.8619 63.9941 63.2681 63.9941C63.5912 63.9941 63.8774 64.031 64.1082 64.114C64.3391 64.1971 64.5422 64.2985 64.6991 64.4369C64.8561 64.566 64.9761 64.7136 65.0407 64.8612C65.1146 65.0088 65.1515 65.1471 65.1515 65.2855C65.1515 65.4146 65.1053 65.5253 65.013 65.6268C64.9299 65.7282 64.8099 65.7836 64.6806 65.7836C64.5606 65.7836 64.4683 65.7559 64.4037 65.6913C64.339 65.6268 64.2744 65.5253 64.2006 65.3869C64.1082 65.1932 63.9882 65.0364 63.859 64.9165C63.7205 64.8058 63.5082 64.7505 63.2127 64.7505C62.9358 64.7505 62.7142 64.8151 62.548 64.935C62.3818 65.0549 62.2987 65.2025 62.2987 65.3777C62.2987 65.4792 62.3264 65.5714 62.3818 65.6544C62.4372 65.7282 62.5203 65.7928 62.6219 65.8573C62.7234 65.9127 62.825 65.9496 62.9265 65.9865C63.0281 66.0234 63.2035 66.0695 63.4343 66.1248C63.7297 66.1894 64.0067 66.2724 64.2467 66.3554C64.4868 66.4385 64.6899 66.5399 64.8653 66.6598C65.0315 66.7797 65.1607 66.9273 65.2623 67.1118C65.3361 67.3055 65.3823 67.5269 65.3823 67.7943Z" fill="white"/>
<path d="M70.5054 64.9269H68.0958V66.2183H70.3115C70.4685 66.2183 70.5977 66.2552 70.6808 66.3289C70.7547 66.4027 70.8008 66.5042 70.8008 66.6241C70.8008 66.744 70.7639 66.8455 70.6808 66.9193C70.5977 66.9931 70.4777 67.03 70.3115 67.03H68.0958V68.5334H70.5885C70.7547 68.5334 70.8839 68.5703 70.967 68.6533C71.0501 68.7271 71.0962 68.8378 71.0962 68.967C71.0962 69.0869 71.0593 69.1976 70.967 69.2713C70.8839 69.3544 70.7547 69.3913 70.5885 69.3913H67.6803C67.4495 69.3913 67.2741 69.3359 67.1726 69.2344C67.071 69.133 67.0156 68.967 67.0156 68.7364V64.7701C67.0156 64.6133 67.0433 64.4934 67.0895 64.3919C67.1356 64.2905 67.2095 64.2259 67.3018 64.1798C67.3941 64.1337 67.5234 64.1152 67.6803 64.1152H70.5054C70.6808 64.1152 70.8008 64.1521 70.8839 64.2259C70.967 64.2997 71.0039 64.4012 71.0039 64.5211C71.0039 64.641 70.967 64.7425 70.8839 64.8255C70.8101 64.89 70.6808 64.9269 70.5054 64.9269Z" fill="white"/>
<path d="M74.1252 67.1309H73.7467V68.8281C73.7467 69.0494 73.7006 69.2155 73.599 69.3169C73.4974 69.4276 73.3682 69.4737 73.2112 69.4737C73.0451 69.4737 72.9066 69.4184 72.8143 69.3077C72.7219 69.197 72.6758 69.0402 72.6758 68.8188V64.7604C72.6758 64.5298 72.7312 64.3637 72.8327 64.2623C72.9343 64.1608 73.1005 64.1055 73.3313 64.1055H75.0762C75.3162 64.1055 75.5193 64.1147 75.6855 64.1331C75.8609 64.1516 76.0086 64.1977 76.1471 64.253C76.3133 64.3268 76.461 64.4191 76.5902 64.5482C76.7195 64.6773 76.8118 64.8249 76.8764 65.0002C76.9411 65.1754 76.978 65.3507 76.978 65.5444C76.978 65.9318 76.8672 66.2546 76.6456 66.4852C76.4241 66.7158 76.0917 66.8911 75.6393 66.9833C75.824 67.0848 76.0086 67.2323 76.184 67.426C76.3594 67.6197 76.5164 67.8319 76.6456 68.0533C76.7841 68.2746 76.8857 68.4776 76.9687 68.6528C77.0426 68.8281 77.0795 68.9572 77.0795 69.0218C77.0795 69.0955 77.0518 69.1601 77.0149 69.2339C76.9687 69.2985 76.9134 69.3538 76.8303 69.3907C76.7564 69.4276 76.6641 69.4553 76.5718 69.4553C76.4517 69.4553 76.3502 69.4276 76.2671 69.3723C76.184 69.3169 76.1102 69.2431 76.0548 69.1601C75.9994 69.0771 75.9163 68.948 75.8147 68.7819L75.39 68.0717C75.2331 67.8134 75.0946 67.6105 74.9746 67.4722C74.8546 67.3338 74.7346 67.2416 74.6053 67.1954C74.4761 67.1493 74.3191 67.1309 74.1252 67.1309ZM74.7438 64.9079H73.7559V66.3561H74.7161C74.9746 66.3561 75.1869 66.3376 75.3623 66.2915C75.5378 66.2454 75.667 66.1716 75.7593 66.0609C75.8517 65.9502 75.8978 65.8027 75.8978 65.6182C75.8978 65.4706 75.8609 65.3415 75.787 65.2308C75.7132 65.1201 75.6116 65.0371 75.4731 64.9817C75.3531 64.9356 75.1038 64.9079 74.7438 64.9079Z" fill="white"/>
<path d="M79.6362 68.8182V67.1487L78.3437 65.1471C78.2329 64.9626 78.1498 64.8243 78.1037 64.7228C78.0575 64.6214 78.0391 64.5291 78.0391 64.4553C78.0391 64.3354 78.0852 64.234 78.1775 64.1417C78.2699 64.0495 78.3899 64.0034 78.5284 64.0034C78.6761 64.0034 78.7869 64.0403 78.8607 64.1325C78.9346 64.2155 79.0454 64.3815 79.2023 64.6214L80.1902 66.2263L81.1872 64.6214C81.2519 64.5291 81.298 64.4461 81.335 64.3723C81.3719 64.3078 81.418 64.2432 81.4734 64.1786C81.5196 64.1233 81.575 64.0772 81.6396 64.0403C81.7042 64.0126 81.7689 63.9941 81.8612 63.9941C81.9997 63.9941 82.1105 64.0403 82.1935 64.1233C82.2859 64.2063 82.332 64.3078 82.332 64.4277C82.332 64.5199 82.3043 64.6121 82.2674 64.7044C82.2212 64.7966 82.1382 64.935 82.0366 65.0918L80.7164 67.121V68.7997C80.7164 69.0211 80.661 69.1779 80.5687 69.2886C80.4671 69.3993 80.3379 69.4454 80.1809 69.4454C80.024 69.4454 79.8947 69.3901 79.7932 69.2886C79.6824 69.2056 79.6362 69.0396 79.6362 68.8182Z" fill="white"/>
<path d="M50.6842 60.1291H28.6747C28.3792 60.1291 28.1484 59.8893 28.1484 59.6033C28.1484 59.3082 28.3885 59.0684 28.6747 59.0684H50.6842C50.9796 59.0684 51.2197 59.299 51.2197 59.6033C51.2104 59.8985 50.9796 60.1291 50.6842 60.1291Z" fill="white"/>
<path d="M99.3016 60.1291H62.9637C62.6683 60.1291 62.4375 59.8893 62.4375 59.6033C62.4375 59.3082 62.6683 59.0684 62.9637 59.0684H99.3016C99.5971 59.0684 99.8371 59.299 99.8371 59.6033C99.8279 59.8985 99.5878 60.1291 99.3016 60.1291Z" fill="white"/>
<path d="M35.0907 56.2653H30.53C30.2161 56.2653 29.9668 56.0623 29.9668 55.8133C29.9668 55.5642 30.2161 55.3613 30.53 55.3613H35.0907C35.4046 55.3613 35.6538 55.5642 35.6538 55.8133C35.6538 56.0623 35.4046 56.2653 35.0907 56.2653Z" fill="white"/>
<path d="M76.3871 15.0164C76.3871 23.3178 69.2968 30.0419 60.5539 30.0419C51.811 30.0419 44.7207 23.3178 44.7207 15.0164C44.7207 6.72415 51.811 0 60.5539 0C69.2968 0 76.3871 6.72415 76.3871 15.0164Z" fill="#FFE200"/>
<path d="M60.3242 0.949219C60.3242 0.949219 72.7415 0.930771 75.3819 13.9548L74.4679 15.0247C74.4587 15.0155 71.6521 2.35124 60.3242 0.949219Z" fill="white"/>
<path d="M95.9975 28.0869C95.9975 27.2199 95.7206 26.3805 95.2036 25.5688C94.8712 24.9969 94.4373 24.4896 93.9203 24.0469C88.9441 19.3335 80.3028 15.3857 59.752 15.9576C43.9834 16.3911 30.5598 19.3335 25.5836 24.0469C25.0759 24.4896 24.642 24.9969 24.3004 25.5688C23.7834 26.3805 23.5156 27.2291 23.5156 28.0869C23.5156 28.133 23.5249 28.1791 23.5249 28.2253C23.5249 28.2898 23.5156 28.3452 23.5156 28.4097C23.5156 31.758 26.5161 34.479 30.2274 34.479H89.2857C92.9971 34.479 95.9975 31.7672 95.9975 28.4097C95.9975 28.3452 95.9883 28.2806 95.9883 28.216C95.9883 28.1791 95.9975 28.133 95.9975 28.0869Z" fill="#74884E"/>
<mask id="mask0_1101_44" style="mask-type:luminance" maskUnits="userSpaceOnUse" x="23" y="15" width="73" height="20">
<path d="M59.7514 15.9571C43.9829 16.3907 30.5593 19.3331 25.5831 24.0464C25.0661 24.4892 24.6322 25.0057 24.2998 25.5683C23.7828 26.38 23.5059 27.2286 23.5059 28.0957C23.5059 28.1418 23.5151 28.1879 23.5151 28.234C23.5151 28.2986 23.5059 28.3539 23.5059 28.4185C23.5059 31.7667 26.5063 34.4878 30.2177 34.4878H89.2852C92.9873 34.4878 95.997 31.7667 95.997 28.4185C95.997 28.3539 95.9878 28.2894 95.9878 28.2248C95.9878 28.1787 95.997 28.1326 95.997 28.0864C95.997 27.2194 95.72 26.3708 95.203 25.5591C94.8707 24.9872 94.4368 24.4799 93.9198 24.0372C89.2667 19.6282 81.4009 15.8926 63.592 15.8926C62.3641 15.9018 61.0809 15.9202 59.7514 15.9571Z" fill="white"/>
</mask>
<g mask="url(#mask0_1101_44)">
<path d="M64.627 15.7812C64.627 15.7812 42.6267 16.3808 44.7593 20.3655C45.5164 22.9758 60.8972 21.5922 61.2572 25.7706C61.5527 29.0082 32.9883 34.5425 32.9883 34.5425L83.2575 36.1659C83.2575 36.1659 91.8712 27.2095 82.916 23.889C73.9515 20.5684 56.7242 20.015 56.2996 18.5115C55.8841 17.008 64.627 15.7812 64.627 15.7812Z" fill="white"/>
</g>
<path d="M46.2627 14.0486C46.2627 16.2623 44.4716 18.0517 42.2651 18.0517C40.0586 18.0517 38.2676 16.2623 38.2676 14.0486C38.2676 11.8441 40.0586 10.0547 42.2651 10.0547C44.4716 10.0547 46.2627 11.8441 46.2627 14.0486Z" fill="#A9B687"/>
<path d="M41.9604 14.1777C41.7111 14.685 41.6188 16.0409 41.6188 16.0409C41.6188 16.0409 40.4094 15.4783 40.2894 15.838C40.1601 16.1885 41.6188 16.9633 41.6188 16.9633L41.6003 19.9795H42.6251C42.7082 18.0056 42.3574 16.1516 41.9604 14.1777Z" fill="#47600F"/>
<path d="M44.0013 15.6894C43.7058 15.4127 42.4133 16.1967 42.4133 16.1967C42.4133 16.1967 42.7364 13.9922 42.1548 13.9922C42.081 13.9922 42.0163 14.066 41.9609 14.1767C42.3579 16.1506 42.7087 18.0045 42.6164 19.9784H42.8195V16.9899C42.8195 16.9899 44.2967 15.9661 44.0013 15.6894Z" fill="#374C09"/>
<path d="M42.1829 21.4736C42.1829 25.0986 39.2378 28.0317 35.6188 28.0317C31.9905 28.0317 29.0547 25.0893 29.0547 21.4736C29.0547 17.8486 31.9905 14.9062 35.6188 14.9062C39.2378 14.9155 42.1829 17.8486 42.1829 21.4736Z" fill="#8FAB4C"/>
<path d="M35.1203 21.6855C34.7141 22.5065 34.5479 24.7386 34.5479 24.7386C34.5479 24.7386 32.5722 23.8255 32.3599 24.4066C32.1568 24.9877 34.5479 26.2513 34.5479 26.2513L34.5202 31.2137H36.2005C36.339 27.967 35.7666 24.9323 35.1203 21.6855Z" fill="#47600F"/>
<path d="M38.4617 24.1757C37.9817 23.7237 35.8582 25.0058 35.8582 25.0058C35.8582 25.0058 36.3845 21.3809 35.4428 21.3809C35.3228 21.3809 35.212 21.5008 35.1289 21.6852C35.7844 24.932 36.3476 27.9667 36.2091 31.2042H36.5322V26.2879C36.523 26.2971 38.951 24.6276 38.4617 24.1757Z" fill="#374C09"/>
<path d="M84.0504 14.8494C84.0504 17.2384 82.1117 19.1754 79.7205 19.1754C77.3294 19.1754 75.3906 17.2384 75.3906 14.8494C75.3906 12.4604 77.3294 10.5234 79.7205 10.5234C82.1117 10.5234 84.0504 12.4512 84.0504 14.8494Z" fill="#A9B687"/>
<path d="M79.3977 14.9883C79.1299 15.5325 79.0191 16.9991 79.0191 16.9991C79.0191 16.9991 77.7174 16.3995 77.5789 16.7777C77.4404 17.1559 79.0191 17.9952 79.0191 17.9952L79.0007 21.2697H80.0993C80.2009 19.1298 79.8223 17.1282 79.3977 14.9883Z" fill="#47600F"/>
<path d="M81.6049 16.6299C81.291 16.3348 79.8877 17.1741 79.8877 17.1741C79.8877 17.1741 80.2386 14.7852 79.6108 14.7852C79.5277 14.7852 79.4631 14.8589 79.3984 14.9881C79.8324 17.128 80.2016 19.1296 80.1093 21.2695H80.3217V18.0319C80.3217 18.0319 81.9188 16.9251 81.6049 16.6299Z" fill="#374C09"/>
<path d="M94.0399 18.3651C94.0399 21.4828 91.5103 24.0193 88.3898 24.0193C85.2693 24.0193 82.7305 21.492 82.7305 18.3651C82.7305 15.2475 85.2693 12.7109 88.3898 12.7109C91.5103 12.7202 94.0399 15.2475 94.0399 18.3651Z" fill="#759D2F"/>
<path d="M87.9555 18.5488C87.6047 19.2591 87.4662 21.1776 87.4662 21.1776C87.4662 21.1776 85.7583 20.3844 85.5829 20.8917C85.4075 21.3898 87.4662 22.4782 87.4662 22.4782L87.4385 26.7488H88.888C89.008 23.9632 88.5187 21.3436 87.9555 18.5488Z" fill="#47600F"/>
<path d="M90.8355 20.6892C90.4201 20.3018 88.5921 21.4087 88.5921 21.4087C88.5921 21.4087 89.0445 18.291 88.232 18.291C88.1305 18.291 88.0382 18.3925 87.9551 18.5493C88.5182 21.3441 89.0075 23.9544 88.8875 26.7492H89.1645V22.5155C89.1737 22.5247 91.251 21.0858 90.8355 20.6892Z" fill="#374C09"/>
<path d="M35.5078 34.4887L42.4873 33.2158L63.2044 30.9375L84.66 33.8983V34.4979L84.5677 35.4479L35.5078 34.4887Z" fill="white"/>
<path d="M0 47.2535C0 40.7692 4.28374 32.3848 15.6763 32.3848C25.1208 32.3848 31.0017 37.8822 31.0017 46.5617C31.0017 55.2413 24.9361 62.1039 15.2977 62.1039C4.40375 62.1039 0 53.9592 0 47.2535ZM25.684 47.973C25.684 39.4871 20.7909 34.2111 14.5684 34.2111C10.2016 34.2111 5.23465 36.6369 5.23465 46.0729C5.23465 53.9592 9.60148 60.213 16.8857 60.213C19.5445 60.213 25.684 58.9216 25.684 47.973Z" fill="white"/>
<path d="M32.4604 45.1503C32.4604 41.5161 32.4604 40.852 32.4142 40.0864C32.3681 39.2747 32.1742 38.8965 31.3894 38.7305C31.1956 38.6844 30.7894 38.6567 30.457 38.6567C30.1985 38.6567 30.0508 38.6106 30.0508 38.4446C30.0508 38.2785 30.217 38.2324 30.577 38.2324C31.8418 38.2324 33.3467 38.3062 34.0206 38.3062C34.7592 38.3062 36.264 38.2324 37.7043 38.2324C40.6955 38.2324 44.6838 38.2324 47.2873 40.9534C48.4782 42.1894 49.6046 44.1726 49.6046 47.0135C49.6046 50.0297 48.3397 52.3172 47.0011 53.6731C45.9025 54.7984 43.419 56.4863 38.9968 56.4863C38.1382 56.4863 37.1596 56.4218 36.2456 56.348C35.3408 56.2742 34.5007 56.2004 33.9098 56.2004C33.6513 56.2004 33.1159 56.2004 32.5435 56.2281C31.9988 56.2281 31.371 56.2742 30.8909 56.2742C30.577 56.2742 30.4108 56.2004 30.4108 56.0344C30.4108 55.9145 30.5032 55.8407 30.7894 55.8407C31.1494 55.8407 31.4356 55.7945 31.6479 55.7484C32.128 55.6562 32.248 55.1304 32.3404 54.4386C32.4604 53.4333 32.4604 51.5516 32.4604 49.3563V45.1503ZM35.4424 47.7698C35.4424 50.3064 35.4701 52.1419 35.4885 52.5939C35.5162 53.1934 35.5624 54.1435 35.7563 54.411C36.0609 54.8629 37.0026 55.361 38.886 55.361C41.3233 55.361 42.9481 54.8814 44.3884 53.6454C45.9209 52.3356 46.3918 50.1588 46.3918 47.696C46.3918 44.6614 45.1269 42.706 44.1022 41.7282C41.9049 39.6252 39.1814 39.3393 37.3165 39.3393C36.8364 39.3393 35.9594 39.4131 35.7655 39.5053C35.5532 39.6068 35.4793 39.7175 35.4793 39.9849C35.4516 40.7966 35.4516 42.872 35.4516 44.7629V47.7698H35.4424Z" fill="white"/>
<path d="M65.3078 55.9883C64.9293 55.8222 64.8555 55.7023 64.8555 55.1766C64.8555 53.8576 64.9478 52.4279 64.9755 52.0497C65.0032 51.69 65.0678 51.4317 65.2617 51.4317C65.474 51.4317 65.5017 51.6439 65.5017 51.8376C65.5017 52.1419 65.594 52.6493 65.7141 53.0551C66.2403 54.8168 67.6528 55.4625 69.13 55.4625C71.2903 55.4625 72.3335 54.0052 72.3335 52.7415C72.3335 51.5701 71.9735 50.4724 69.9886 48.9228L68.8899 48.065C66.2588 46.0173 65.354 44.3386 65.354 42.4108C65.354 39.782 67.5513 37.9004 70.8749 37.9004C72.4259 37.9004 73.4322 38.1402 74.0507 38.3062C74.2631 38.3524 74.3831 38.4261 74.3831 38.5922C74.3831 38.9058 74.2908 39.5976 74.2908 41.4608C74.2908 41.9865 74.2169 42.1802 74.023 42.1802C73.8569 42.1802 73.783 42.0419 73.783 41.7467C73.783 41.5346 73.663 40.7967 73.1644 40.1694C72.8044 39.7175 72.112 38.998 70.561 38.998C68.7884 38.998 67.7174 40.0219 67.7174 41.4608C67.7174 42.5584 68.2714 43.3978 70.2471 44.9013L70.921 45.3993C73.8107 47.5762 74.8447 49.2272 74.8447 51.4871C74.8447 52.8706 74.3185 54.5217 72.6013 55.647C71.4103 56.4126 70.0624 56.6247 68.7976 56.6247C67.4036 56.6063 66.3326 56.4402 65.3078 55.9883Z" fill="white"/>
<path d="M76.8863 53.5171C76.5632 53.3788 76.5078 53.2773 76.5078 52.8346C76.5078 51.7369 76.5909 50.5378 76.6094 50.215C76.6278 49.9198 76.6832 49.6985 76.8494 49.6985C77.0248 49.6985 77.0525 49.8829 77.0525 50.0397C77.0525 50.298 77.1356 50.7131 77.2372 51.0544C77.6803 52.5302 78.862 53.0744 80.0991 53.0744C81.8994 53.0744 82.7765 51.8568 82.7765 50.7961C82.7765 49.8184 82.481 48.896 80.8192 47.6047L79.896 46.8852C77.6988 45.1696 76.9325 43.7676 76.9325 42.1534C76.9325 39.9581 78.7697 38.3809 81.5486 38.3809C82.8503 38.3809 83.6905 38.5746 84.2075 38.7221C84.3921 38.759 84.4844 38.8236 84.4844 38.962C84.4844 39.2202 84.4106 39.8013 84.4106 41.3601C84.4106 41.8029 84.3459 41.9597 84.189 41.9597C84.0505 41.9597 83.9859 41.8398 83.9859 41.6C83.9859 41.4247 83.8843 40.7975 83.4689 40.281C83.1734 39.9028 82.5918 39.3032 81.2901 39.3032C79.8129 39.3032 78.9082 40.1611 78.9082 41.3601C78.9082 42.2825 79.3698 42.9835 81.0316 44.238L81.5947 44.6623C84.0136 46.4794 84.8722 47.8537 84.8722 49.7538C84.8722 50.916 84.429 52.2904 82.9888 53.2312C81.9917 53.8676 80.8746 54.0521 79.8129 54.0521C78.6497 54.0337 77.7542 53.8953 76.8863 53.5171Z" fill="white"/>
<path d="M86.8842 44.7994C86.8842 40.8978 86.8842 40.1783 86.838 39.3574C86.7919 38.4903 86.598 38.0753 85.8133 37.9C85.6286 37.8447 85.2132 37.8262 84.8808 37.8262C84.6223 37.8262 84.4746 37.7709 84.4746 37.5956C84.4746 37.4204 84.6408 37.365 85.0008 37.365C85.6471 37.365 86.3395 37.3927 86.9304 37.3927C87.5582 37.4204 88.1029 37.4388 88.4352 37.4388C89.2015 37.4388 93.9561 37.4388 94.4084 37.4204C94.8608 37.365 95.2486 37.3189 95.4332 37.2636C95.5532 37.2359 95.6917 37.1621 95.8117 37.1621C95.9318 37.1621 95.9595 37.2636 95.9595 37.3927C95.9595 37.5772 95.8394 37.8816 95.7656 39.0622C95.7379 39.3205 95.6917 40.4458 95.6456 40.7502C95.6271 40.8793 95.5809 41.0361 95.4148 41.0361C95.2486 41.0361 95.2024 40.907 95.2024 40.6764C95.2024 40.4919 95.1747 40.0584 95.0547 39.754C94.8885 39.2928 94.6485 38.9884 93.4575 38.8316C93.0513 38.7763 90.5402 38.7302 90.0601 38.7302C89.9401 38.7302 89.8939 38.8039 89.8939 38.9884V45.482C89.8939 45.6572 89.9216 45.7679 90.0601 45.7679C90.5863 45.7679 93.3375 45.7679 93.8822 45.7126C94.4546 45.6572 94.8147 45.5834 95.027 45.3252C95.1932 45.1223 95.2947 44.9931 95.4148 44.9931C95.5071 44.9931 95.5809 45.0485 95.5809 45.196C95.5809 45.3528 95.4794 45.7587 95.3871 47.0685C95.3594 47.585 95.2947 48.6089 95.2947 48.7841C95.2947 48.987 95.2947 49.273 95.0824 49.273C94.9162 49.273 94.8701 49.1715 94.8701 49.0424C94.8424 48.7841 94.8424 48.452 94.7777 48.12C94.6577 47.6035 94.3254 47.2161 93.4391 47.1146C92.9867 47.0592 90.6232 47.0408 90.0509 47.0408C89.9308 47.0408 89.9031 47.1423 89.9031 47.2991V49.3283C89.9031 50.2046 89.8847 52.5566 89.9031 53.3038C89.9493 55.0747 90.3371 55.4621 92.7743 55.4621C93.3929 55.4621 94.3992 55.4621 95.0178 55.1577C95.6363 54.8534 95.9225 54.3092 96.0979 53.2669C96.1441 52.9809 96.1903 52.8795 96.3564 52.8795C96.5503 52.8795 96.5503 53.0824 96.5503 53.3407C96.5503 53.931 96.3564 55.6743 96.2364 56.1816C96.0702 56.8549 95.8487 56.8549 94.9439 56.8549C93.1529 56.8549 91.8419 56.7996 90.8079 56.7719C89.7831 56.7166 89.0445 56.6981 88.3244 56.6981C88.0659 56.6981 87.5397 56.6981 86.9673 56.7166C86.4134 56.7166 85.7948 56.7719 85.3147 56.7719C85.0008 56.7719 84.8347 56.6981 84.8347 56.5136C84.8347 56.3845 84.927 56.3107 85.2132 56.3107C85.5732 56.3107 85.8594 56.2554 86.0718 56.2093C86.5519 56.1078 86.6719 55.5451 86.7642 54.798C86.8842 53.7188 86.8842 51.6896 86.8842 49.3375V44.7994Z" fill="white"/>
<path d="M120.001 32.0613C120.001 32.0521 120.001 32.0521 120.001 32.0429C120.001 31.8031 119.844 31.6094 119.198 31.6094H113.529C113.012 31.6094 112.772 31.7385 112.707 31.923C112.67 31.9691 112.652 32.0244 112.652 32.1075C112.652 32.2181 112.735 32.2919 112.855 32.3473C112.938 32.4026 113.058 32.4395 113.215 32.4672C113.741 32.6055 113.861 33.0022 113.861 33.3527C113.861 33.8139 112.024 37.3466 111.71 38.1306C111.35 39.053 108.571 44.6426 107.464 46.9855C107.353 47.1054 107.187 47.1884 107.002 47.1884C106.817 47.1884 106.66 47.1054 106.55 46.9947C105.275 44.4674 102.1 38.1767 101.73 37.2728C101.509 36.7655 101.352 36.3412 101.352 36.0552C101.352 35.7693 101.509 35.4834 101.786 35.4188C101.896 35.3819 101.998 35.3542 102.081 35.3266H102.164C102.81 35.3266 102.967 35.1236 102.967 34.8838C102.967 34.644 102.81 34.4411 102.164 34.4411H94.363C93.7168 34.4411 93.5137 34.6348 93.5137 34.8838C93.5137 35.1236 93.726 35.3266 94.363 35.3266H94.4277C94.483 35.3358 94.5477 35.345 94.6123 35.345C94.9816 35.345 95.5171 35.5572 95.9233 35.8062C96.5141 36.2028 97.2896 37.0975 98.0744 38.4165C99.1638 40.2797 103.337 48.1384 103.558 48.7103C103.965 49.7434 104.278 50.5366 104.278 52.4644V55.3976C104.278 55.9694 104.278 56.818 104.186 58.3215C104.14 59.041 103.992 59.6313 103.697 59.9818C103.586 60.0833 103.438 60.1478 103.263 60.1478H102.45C101.767 60.1478 101.536 60.36 101.536 60.609C101.536 60.7105 101.573 60.8119 101.675 60.8857C101.767 61.0333 101.989 61.0702 102.312 61.0702H102.423H102.45H110.796H110.815H110.981C111.332 61.0702 111.553 60.9872 111.609 60.7935C111.636 60.7381 111.646 60.6736 111.646 60.609C111.646 60.3507 111.48 60.1478 110.787 60.1478H109.513C109.236 60.1478 108.987 60.0556 108.821 59.9265C108.47 59.5759 108.331 59.0041 108.285 58.3215C108.193 56.818 108.193 55.9694 108.193 55.3976V52.4644C108.193 51.2837 108.193 50.1769 108.664 48.8948C109.227 47.3636 115.302 36.046 116.336 34.6163C117.019 33.6478 117.36 33.2235 118.016 32.8638C118.311 32.6793 118.662 32.5594 118.958 32.4949H119.17C119.788 32.4949 119.955 32.3104 119.973 32.089C119.992 32.0798 120.001 32.0706 120.001 32.0613C120.001 32.0706 120.001 32.0706 120.001 32.0613ZM109.005 60.0095L108.867 59.9357C108.858 59.9264 108.848 59.9172 108.839 59.9172L109.005 60.0095Z" fill="white"/>
<path d="M65.511 38.2699C65.511 38.0577 65.1879 37.8917 64.7909 37.8917H60.3964C59.9994 37.8917 59.6762 38.067 59.6762 38.2699C59.6762 38.3898 59.787 38.5005 59.9717 38.5743C60.0548 38.6204 60.1748 38.6481 60.304 38.6757C60.7102 38.7772 60.8026 39.0355 60.8026 39.2753C60.8026 39.5797 60.7102 39.9855 60.4702 40.5113C60.2025 41.1016 58.2176 44.5882 57.3128 46.2485V46.2392C57.2297 46.4053 57.0543 46.516 56.8512 46.516C56.7035 46.516 56.565 46.4514 56.4727 46.3499C55.4664 44.6066 53.1029 40.5297 52.826 39.9394C52.6598 39.6073 49.9732 35.0415 49.9732 34.8478C49.9732 34.7741 50.0009 34.691 50.0378 34.6265C50.084 34.5804 50.1486 34.5435 50.2317 34.5435H50.4533C50.9518 34.5435 51.0718 34.3774 51.0718 34.1653C51.0718 33.9531 50.9518 33.7871 50.4533 33.7871H44.4524C43.9538 33.7871 43.7969 33.9531 43.7969 34.1653C43.7969 34.3774 43.9538 34.5435 44.4524 34.5435H45.2094C45.5879 34.5435 45.9203 34.7279 46.1234 35.0139C47.0651 36.1669 49.5116 39.9394 50.0286 40.705C50.8687 41.9502 54.0631 47.1985 54.2385 47.5859C54.5524 48.2777 54.7924 48.8035 54.7924 50.0948V52.0595C54.7924 52.4376 54.7924 57.52 54.7186 58.5254C54.7001 58.8021 54.6539 59.0511 54.5708 59.254C54.4877 59.4108 54.34 59.5492 54.1462 59.5492H53.3614C52.826 59.5492 52.6505 59.7337 52.6505 59.9643C52.6505 60.0657 52.6875 60.158 52.7798 60.2318C52.8352 60.3148 52.9552 60.3424 53.1306 60.3609C53.2045 60.3701 53.2783 60.3793 53.3614 60.3793H59.8978C60.4333 60.3793 60.5718 60.1949 60.5718 59.9643C60.5718 59.7337 60.4333 59.5492 59.8978 59.5492H58.4576C58.3191 59.5492 58.1899 59.4846 58.0975 59.3924C58.0421 59.3002 57.996 59.1987 57.9683 59.088C57.9683 59.0788 57.9683 59.0788 57.9683 59.0788C57.9221 58.9128 57.8852 58.7283 57.876 58.5346C57.8021 57.5384 57.8021 52.4561 57.8021 52.0687V50.0856C57.8021 49.3015 57.8021 48.5636 58.1622 47.6966C58.5961 46.6728 61.9381 41.0555 62.7321 40.1054C63.2583 39.4597 63.5168 39.1738 64.0154 38.934C64.3754 38.7403 64.8278 38.6481 65.0678 38.6481C65.3263 38.6481 65.5202 38.5743 65.5202 38.4082C65.5202 38.3806 65.511 38.3621 65.5018 38.3437C65.5018 38.3252 65.511 38.2975 65.511 38.2699Z" fill="white"/>
<path d="M37.9434 39.1188H30.4192C30.1699 39.1188 29.9668 38.9159 29.9668 38.6668C29.9668 38.4178 30.1699 38.2148 30.4192 38.2148H37.9434C38.1927 38.2148 38.3958 38.4178 38.3958 38.6668C38.3958 38.9159 38.1927 39.1188 37.9434 39.1188Z" fill="white"/>
</g>
<defs>
<clipPath id="clip0_1101_44">
<rect width="120" height="69.4737" fill="white"/>
</clipPath>
</defs>
</svg>
