<svg width="120" height="70" viewBox="0 0 120 70" fill="none" xmlns="http://www.w3.org/2000/svg">
<g clip-path="url(#clip0_1101_128)">
<path d="M44.0178 64.7224L46.0807 67.8293V64.6727C46.0807 64.4739 46.1304 64.3247 46.205 64.2253C46.2796 64.1259 46.4038 64.0762 46.553 64.0762C46.7021 64.0762 46.8264 64.1259 46.9258 64.2253C47.0252 64.3247 47.0501 64.4739 47.0501 64.6727V68.8483C47.0501 69.3206 46.8512 69.5443 46.4784 69.5443C46.379 69.5443 46.3044 69.5194 46.205 69.4946C46.1304 69.4697 46.0559 69.42 45.9813 69.3703C45.9067 69.3206 45.857 69.246 45.7825 69.1466C45.7328 69.072 45.6582 68.9975 45.6085 68.8981L43.5952 65.816V68.9229C43.5952 69.1217 43.5455 69.2709 43.4461 69.3703C43.3467 69.4697 43.2224 69.5194 43.0733 69.5194C42.9241 69.5194 42.7999 69.4697 42.7004 69.3703C42.601 69.2709 42.5762 69.1217 42.5762 68.9229V64.8467C42.5762 64.6727 42.601 64.5484 42.6259 64.449C42.6756 64.3496 42.7502 64.2502 42.8496 64.1756C42.949 64.101 43.0733 64.0762 43.1975 64.0762C43.297 64.0762 43.3715 64.101 43.4461 64.1259C43.5207 64.1507 43.5704 64.2004 43.6201 64.2502C43.6698 64.2999 43.7195 64.3744 43.7692 64.449C43.9183 64.5484 43.9681 64.623 44.0178 64.7224Z" fill="#6A584E"/>
<path d="M48.9883 67.2571V64.7219C48.9883 64.4982 49.038 64.349 49.1374 64.2248C49.2368 64.1253 49.3611 64.0508 49.5102 64.0508C49.6842 64.0508 49.8085 64.1005 49.9079 64.2248C50.0073 64.3242 50.057 64.4982 50.057 64.7219V67.3316C50.057 67.6299 50.0819 67.8784 50.1565 68.0773C50.231 68.2761 50.3304 68.4253 50.5044 68.5247C50.6784 68.6241 50.9021 68.6987 51.2004 68.6987C51.6229 68.6987 51.9212 68.5744 52.0952 68.3756C52.2691 68.1519 52.3437 67.8287 52.3437 67.3565V64.7467C52.3437 64.523 52.3934 64.3739 52.4928 64.2496C52.5923 64.1502 52.7165 64.0756 52.8657 64.0756C53.0396 64.0756 53.1639 64.1253 53.2633 64.2496C53.3628 64.349 53.4125 64.523 53.4125 64.7467V67.2819C53.4125 67.7045 53.3628 68.0276 53.2882 68.3258C53.2136 68.5992 53.0645 68.8478 52.8408 69.0466C52.642 69.2206 52.4183 69.3449 52.1697 69.4443C51.9212 69.5189 51.6229 69.5686 51.2749 69.5686C50.8773 69.5686 50.5293 69.5189 50.231 69.4443C49.9328 69.3449 49.7091 69.2206 49.5102 69.0466C49.3362 68.8726 49.1871 68.6241 49.1126 68.3507C49.038 68.0027 48.9883 67.6796 48.9883 67.2571Z" fill="#6A584E"/>
<path d="M56.7697 67.2076H56.3969V68.8977C56.3969 69.1214 56.3472 69.2954 56.2478 69.3948C56.1483 69.4942 56.0241 69.5439 55.8749 69.5439C55.7009 69.5439 55.5767 69.4942 55.4773 69.3699C55.3778 69.2705 55.3281 69.0965 55.3281 68.8728V64.7966C55.3281 64.5729 55.3778 64.3989 55.4773 64.2995C55.5767 64.2001 55.7507 64.1504 55.9744 64.1504H57.7142C57.9628 64.1504 58.1616 64.1504 58.3356 64.1752C58.5096 64.2001 58.6587 64.225 58.8078 64.2995C58.9818 64.3741 59.1309 64.4735 59.2552 64.5978C59.3795 64.7221 59.4789 64.8712 59.5535 65.0452C59.628 65.2192 59.6529 65.3931 59.6529 65.592C59.6529 65.9897 59.5535 66.2879 59.3298 66.5365C59.1061 66.7602 58.783 66.9342 58.3107 67.0336C58.5096 67.133 58.6836 67.2821 58.8575 67.481C59.0315 67.6798 59.1806 67.8786 59.3298 68.1023C59.4541 68.326 59.5783 68.5249 59.6529 68.6989C59.7275 68.8728 59.7772 68.9971 59.7772 69.0717C59.7772 69.1462 59.7523 69.2208 59.7026 69.2705C59.6529 69.3451 59.6032 69.3948 59.5286 69.4196C59.4541 69.4694 59.3546 69.4694 59.2552 69.4694C59.1309 69.4694 59.0315 69.4445 58.957 69.3948C58.8824 69.3451 58.8078 69.2705 58.7581 69.1711C58.7084 69.0965 58.609 68.9474 58.5096 68.7983L58.087 68.0775C57.9379 67.8041 57.7888 67.6052 57.6645 67.481C57.5402 67.3567 57.4159 67.2573 57.2917 67.2076C57.1177 67.2076 56.9437 67.2076 56.7697 67.2076ZM57.3662 64.9706H56.372V66.4122H57.3414C57.5899 66.4122 57.8136 66.3873 57.9876 66.3376C58.1616 66.2879 58.2859 66.2134 58.3853 66.1139C58.4847 66.0145 58.5344 65.8654 58.5344 65.6665C58.5344 65.5174 58.4847 65.3931 58.4101 65.2689C58.3356 65.1694 58.2362 65.07 58.1119 65.0203C57.9876 64.9955 57.7391 64.9706 57.3662 64.9706Z" fill="#6A584E"/>
<path d="M65.3939 67.8795C65.3939 68.2026 65.3193 68.476 65.1453 68.7495C64.9713 68.998 64.7476 69.1968 64.4245 69.346C64.1014 69.4951 63.7286 69.5697 63.306 69.5697C62.7841 69.5697 62.3615 69.4702 62.0136 69.2714C61.765 69.1223 61.5662 68.9483 61.4171 68.6997C61.2679 68.476 61.1934 68.2275 61.1934 68.0038C61.1934 67.8795 61.2431 67.7552 61.3176 67.6807C61.4171 67.5813 61.5165 67.5564 61.6656 67.5564C61.7899 67.5564 61.8644 67.5813 61.9639 67.6558C62.0384 67.7304 62.113 67.8298 62.1627 67.9789C62.2373 68.1529 62.3118 68.2772 62.3864 68.4015C62.461 68.5258 62.5852 68.6003 62.7095 68.6749C62.8586 68.7494 63.0326 68.7743 63.2563 68.7743C63.5794 68.7743 63.828 68.6997 64.0268 68.5506C64.2257 68.4015 64.3251 68.2275 64.3251 68.0038C64.3251 67.8298 64.2754 67.6807 64.176 67.5813C64.0765 67.4818 63.9274 67.3824 63.7534 67.3327C63.5794 67.283 63.3557 67.2084 63.0823 67.1587C62.7095 67.0593 62.3864 66.9599 62.1379 66.8356C61.8893 66.7113 61.6905 66.5622 61.5165 66.3385C61.3673 66.1397 61.2928 65.8663 61.2928 65.568C61.2928 65.2697 61.3673 65.0212 61.5413 64.7975C61.6905 64.5738 61.939 64.3998 62.2373 64.2756C62.5355 64.1513 62.8835 64.1016 63.306 64.1016C63.6292 64.1016 63.9026 64.1264 64.1511 64.2258C64.3748 64.3004 64.5736 64.4247 64.7476 64.549C64.8968 64.6732 65.021 64.8224 65.0956 64.9715C65.1702 65.1206 65.195 65.2698 65.195 65.394C65.195 65.5183 65.1453 65.6426 65.0459 65.742C64.9713 65.8414 64.847 65.8911 64.7228 65.8911C64.5985 65.8911 64.4991 65.8663 64.4494 65.7917C64.3748 65.7171 64.3251 65.6177 64.2505 65.4934C64.1511 65.2946 64.0268 65.1455 63.9026 65.0212C63.7783 64.9218 63.5546 64.8472 63.2563 64.8472C62.9829 64.8472 62.7592 64.9218 62.5852 65.0212C62.4113 65.1455 62.3367 65.2946 62.3367 65.4686C62.3367 65.568 62.3615 65.6674 62.4113 65.742C62.461 65.8166 62.5604 65.8911 62.6598 65.9408C62.7592 65.9905 62.8586 66.0403 62.9581 66.0651C63.0575 66.09 63.2315 66.1397 63.48 66.2142C63.7783 66.2888 64.0517 66.3634 64.3002 66.4379C64.5488 66.5125 64.7476 66.6368 64.9216 66.7362C65.0956 66.8605 65.2199 67.0096 65.3193 67.1836C65.3441 67.3824 65.3939 67.6061 65.3939 67.8795Z" fill="#6A584E"/>
<path d="M70.5129 64.9965H68.102V66.289H70.3141C70.4632 66.289 70.5875 66.3139 70.6869 66.3884C70.7615 66.463 70.8112 66.5624 70.8112 66.6867C70.8112 66.8109 70.7615 66.9104 70.6869 66.9849C70.6123 67.0595 70.488 67.1092 70.3141 67.1092H68.102V68.6254H70.5875C70.7615 68.6254 70.8857 68.6751 70.9603 68.7496C71.0349 68.8242 71.0846 68.9236 71.0846 69.0728C71.0846 69.197 71.0349 69.2965 70.9603 69.371C70.8857 69.4456 70.7366 69.4953 70.5875 69.4953H67.6794C67.4557 69.4953 67.2817 69.4456 67.1823 69.3462C67.0829 69.2467 67.0332 69.0728 67.0332 68.8491V64.8723C67.0332 64.7231 67.0581 64.5989 67.1078 64.4994C67.1575 64.4 67.232 64.3255 67.3315 64.2757C67.4309 64.226 67.5552 64.2012 67.7043 64.2012H70.5378C70.7117 64.2012 70.836 64.226 70.9106 64.3254C70.9851 64.4 71.0349 64.4994 71.0349 64.6237C71.0349 64.748 70.9851 64.8474 70.9106 64.922C70.8112 64.9468 70.6869 64.9965 70.5129 64.9965Z" fill="#6A584E"/>
<path d="M74.1422 67.2076H73.7694V68.8977C73.7694 69.1214 73.7197 69.2954 73.6203 69.3948C73.5209 69.4942 73.3966 69.5439 73.2226 69.5439C73.0486 69.5439 72.9243 69.4942 72.8249 69.3699C72.7255 69.2705 72.6758 69.0965 72.6758 68.8728V64.7966C72.6758 64.5729 72.7255 64.3989 72.8249 64.2995C72.9243 64.2001 73.0983 64.1504 73.322 64.1504H75.0619C75.3104 64.1504 75.5093 64.1504 75.6832 64.1752C75.8572 64.2001 76.0064 64.225 76.1555 64.2995C76.3295 64.3741 76.4786 64.4735 76.6029 64.5978C76.7272 64.7221 76.8266 64.8712 76.9011 65.0452C76.9757 65.2192 77.0006 65.3931 77.0006 65.592C77.0006 65.9897 76.9011 66.2879 76.6774 66.5365C76.4537 66.7602 76.1306 66.9342 75.6584 67.0336C75.8572 67.133 76.0312 67.2821 76.2052 67.481C76.3792 67.6798 76.5283 67.8786 76.6774 68.1023C76.8017 68.326 76.926 68.5249 77.0006 68.6989C77.0751 68.8728 77.1248 68.9971 77.1248 69.0717C77.1248 69.1462 77.1 69.2208 77.0503 69.2705C77.0006 69.3451 76.9508 69.3948 76.8763 69.4196C76.8017 69.4694 76.7023 69.4694 76.6029 69.4694C76.4786 69.4694 76.3792 69.4445 76.3046 69.3948C76.23 69.3451 76.1555 69.2705 76.1058 69.1711C76.0561 69.0965 75.9815 68.9474 75.8572 68.7983L75.4347 68.0775C75.2856 67.8041 75.1364 67.6052 75.0122 67.481C74.8879 67.3567 74.7636 67.2573 74.6393 67.2076C74.4902 67.2076 74.3162 67.2076 74.1422 67.2076ZM74.7388 64.9706H73.7446V66.4122H74.7139C74.9624 66.4122 75.1861 66.3873 75.3601 66.3376C75.5341 66.2879 75.6584 66.2134 75.7578 66.1139C75.8572 66.0145 75.9069 65.8654 75.9069 65.6665C75.9069 65.5174 75.8821 65.3931 75.8075 65.2689C75.7329 65.1694 75.6335 65.07 75.4844 65.0203C75.3601 64.9955 75.1116 64.9706 74.7388 64.9706Z" fill="#6A584E"/>
<path d="M79.6351 68.8986V67.2333L78.3427 65.2449C78.2184 65.0709 78.1438 64.9218 78.0941 64.8224C78.0444 64.7229 78.0195 64.6235 78.0195 64.549C78.0195 64.4247 78.0692 64.3253 78.1687 64.2258C78.2681 64.1264 78.3924 64.1016 78.5166 64.1016C78.6658 64.1016 78.7652 64.1513 78.8398 64.2258C78.9143 64.3004 79.0386 64.4744 79.1877 64.7229L80.1819 66.3385L81.1761 64.7229C81.2258 64.6235 81.2755 64.549 81.3253 64.4744C81.375 64.3998 81.3998 64.3501 81.4495 64.2756C81.4992 64.2258 81.5489 64.1761 81.6235 64.1513C81.6981 64.1264 81.7478 64.1016 81.8472 64.1016C81.9715 64.1016 82.0958 64.1513 82.1952 64.2258C82.2946 64.3004 82.3443 64.4247 82.3443 64.5241C82.3443 64.6235 82.3195 64.7229 82.2697 64.7975C82.22 64.8969 82.1455 65.0212 82.046 65.1952L80.7287 67.2333V68.8986C80.7287 69.1223 80.679 69.2714 80.5796 69.3957C80.4802 69.4951 80.3559 69.5448 80.1819 69.5448C80.0328 69.5448 79.8837 69.4951 79.8091 69.3957C79.6848 69.2714 79.6351 69.1223 79.6351 68.8986Z" fill="#6A584E"/>
<path d="M50.6788 60.1982H28.6821C28.3839 60.1982 28.1602 59.9497 28.1602 59.6763C28.1602 59.378 28.4087 59.1543 28.6821 59.1543H50.6788C50.9771 59.1543 51.2008 59.378 51.2008 59.6763C51.2256 59.9497 50.9771 60.1982 50.6788 60.1982Z" fill="#99897D"/>
<path d="M99.3209 60.1982H62.9829C62.6846 60.1982 62.4609 59.9497 62.4609 59.6763C62.4609 59.378 62.6846 59.1543 62.9829 59.1543H99.3209C99.6192 59.1543 99.8429 59.378 99.8429 59.6763C99.8429 59.9497 99.5943 60.1982 99.3209 60.1982Z" fill="#99897D"/>
<path d="M35.0962 56.3206H30.5228C30.1997 56.3206 29.9512 56.1217 29.9512 55.8732C29.9512 55.6246 30.1997 55.4258 30.5228 55.4258H35.0962C35.3944 55.4258 35.6678 55.6246 35.6678 55.8732C35.6678 56.1217 35.4193 56.3206 35.0962 56.3206Z" fill="#6E8654"/>
<path d="M76.4055 15.0373C76.4055 23.3389 69.3218 30.0746 60.5729 30.0746C51.8239 30.0746 44.7402 23.3389 44.7402 15.0373C44.7402 6.73571 51.8239 0 60.5729 0C69.297 0 76.4055 6.73571 76.4055 15.0373Z" fill="#FFE300"/>
<path d="M60.3242 0.945313C60.3242 0.945313 72.7517 0.920458 75.3864 13.9693L74.4667 15.0381C74.4667 15.0381 71.6581 2.36205 60.3242 0.945313Z" fill="white"/>
<path d="M96.0152 28.1116C96.0152 27.2417 95.7418 26.3966 95.2199 25.5764C94.8719 25.0047 94.4493 24.4828 93.9274 24.0602C88.9564 19.3378 80.3068 15.3858 59.7517 15.9575C43.9937 16.4049 30.572 19.3627 25.5761 24.0602C25.0541 24.5076 24.6316 25.0047 24.2836 25.5764C23.7617 26.3966 23.4883 27.2417 23.4883 28.1116C23.4883 28.1613 23.4883 28.211 23.4883 28.2607C23.4883 28.3105 23.4883 28.385 23.4883 28.4596C23.4883 31.815 26.4957 34.5242 30.1991 34.5242H89.2795C92.9829 34.5242 95.9904 31.815 95.9904 28.4596C95.9904 28.385 95.9904 28.3353 95.9904 28.2607C95.9904 28.211 96.0152 28.1613 96.0152 28.1116Z" fill="#6E8654"/>
<mask id="mask0_1101_128" style="mask-type:luminance" maskUnits="userSpaceOnUse" x="23" y="15" width="73" height="20">
<path d="M59.7517 15.9808C43.9937 16.4034 30.572 19.3611 25.5761 24.0587C25.0541 24.5061 24.6316 25.028 24.2836 25.5749C23.7617 26.3951 23.4883 27.2401 23.4883 28.1101C23.4883 28.1598 23.4883 28.2095 23.4883 28.2592C23.4883 28.3089 23.4883 28.3835 23.4883 28.458C23.4883 31.8135 26.4957 34.5227 30.1991 34.5227H89.2795C92.9829 34.5227 95.9904 31.8135 95.9904 28.458C95.9904 28.3835 95.9904 28.3338 95.9904 28.2592C95.9904 28.2095 95.9904 28.1598 95.9904 28.1101C95.9904 27.2401 95.7169 26.3951 95.195 25.5749C94.847 25.0032 94.4245 24.4812 93.9025 24.0587C89.2795 19.6594 81.4253 15.9062 63.6043 15.9062C62.3615 15.9062 61.0939 15.9311 59.7517 15.9808Z" fill="white"/>
</mask>
<g mask="url(#mask0_1101_128)">
<path d="M64.6234 15.8066C64.6234 15.8066 42.6267 16.4032 44.7642 20.4048C45.5099 23.0146 60.92 21.6227 61.268 25.8232C61.5662 29.0544 33.0078 34.597 33.0078 34.597L83.2895 36.2126C83.2895 36.2126 91.9142 27.2399 82.9415 23.9094C73.9689 20.5788 56.7444 20.032 56.3218 18.5158C55.8993 17.0245 64.6234 15.8066 64.6234 15.8066Z" fill="white"/>
</g>
<path d="M46.2807 14.0681C46.2807 16.2802 44.4911 18.0697 42.279 18.0697C40.0669 18.0697 38.2773 16.2802 38.2773 14.0681C38.2773 11.856 40.0669 10.0664 42.279 10.0664C44.4662 10.0664 46.2807 11.856 46.2807 14.0681Z" fill="#A0B288"/>
<path d="M41.9554 14.1914C41.7069 14.6885 41.6075 16.0555 41.6075 16.0555C41.6075 16.0555 40.3896 15.4839 40.2653 15.8567C40.141 16.2047 41.6075 16.9752 41.6075 16.9752L41.5826 20.0075H42.6017C42.7011 18.0191 42.3531 16.1798 41.9554 14.1914Z" fill="#3B5D16"/>
<path d="M43.9932 15.7091C43.6949 15.4357 42.4025 16.2062 42.4025 16.2062C42.4025 16.2062 42.7256 13.9941 42.1539 13.9941C42.0794 13.9941 42.0048 14.0687 41.9551 14.1681C42.3528 16.1565 42.7007 17.9958 42.6013 19.9842H42.8001V17.0016C42.825 17.0016 44.2914 15.9825 43.9932 15.7091Z" fill="#2C4C0A"/>
<path d="M42.1801 21.4992C42.1801 25.1281 39.2472 28.0609 35.6184 28.0609C31.9895 28.0609 29.0566 25.1281 29.0566 21.4992C29.0566 17.8704 31.9895 14.9375 35.6184 14.9375C39.2472 14.9375 42.1801 17.8704 42.1801 21.4992Z" fill="#88AB58"/>
<path d="M35.1203 21.7227C34.7226 22.5429 34.5486 24.7798 34.5486 24.7798C34.5486 24.7798 32.5602 23.8602 32.3614 24.4567C32.1625 25.0284 34.5486 26.296 34.5486 26.296L34.5238 31.267H36.2139C36.3382 27.9861 35.7665 24.9538 35.1203 21.7227Z" fill="#3B5D16"/>
<path d="M38.4765 24.2095C38.0043 23.7622 35.8667 25.0546 35.8667 25.0546C35.8667 25.0546 36.3887 21.4258 35.4442 21.4258C35.3199 21.4258 35.2205 21.5501 35.1211 21.724C35.7673 24.98 36.339 28.0124 36.1899 31.2684H36.513V26.3471C36.5378 26.3222 38.9488 24.6569 38.4765 24.2095Z" fill="#2C4C0A"/>
<path d="M84.0597 14.8638C84.0597 17.2499 82.121 19.1886 79.7349 19.1886C77.3488 19.1886 75.4102 17.2499 75.4102 14.8638C75.4102 12.4778 77.3488 10.5391 79.7349 10.5391C82.121 10.5391 84.0597 12.4778 84.0597 14.8638Z" fill="#A0B288"/>
<path d="M79.4113 15.0117C79.1379 15.5585 79.0385 17.025 79.0385 17.025C79.0385 17.025 77.7211 16.4285 77.5969 16.8013C77.4726 17.1741 79.0385 18.0192 79.0385 18.0192L79.0136 21.3H80.1072C80.2066 19.1625 79.8338 17.1493 79.4113 15.0117Z" fill="#3B5D16"/>
<path d="M81.5993 16.6537C81.2762 16.3555 79.8844 17.2005 79.8844 17.2005C79.8844 17.2005 80.2323 14.8145 79.6109 14.8145C79.5364 14.8145 79.4618 14.889 79.4121 15.0133C79.8346 17.1508 80.2075 19.1641 80.1329 21.3016H80.3566V18.0456C80.3317 18.0456 81.9225 16.952 81.5993 16.6537Z" fill="#2C4C0A"/>
<path d="M94.0526 18.3935C94.0526 21.5252 91.5174 24.0604 88.3857 24.0604C85.254 24.0604 82.7188 21.5252 82.7188 18.3935C82.7188 15.2618 85.254 12.7266 88.3857 12.7266C91.5174 12.7266 94.0526 15.2618 94.0526 18.3935Z" fill="#729F41"/>
<path d="M87.9629 18.5664C87.6149 19.2872 87.4658 21.201 87.4658 21.201C87.4658 21.201 85.7508 20.4057 85.5768 20.9028C85.4028 21.3999 87.4658 22.4935 87.4658 22.4935L87.4409 26.7686H88.8825C89.0317 23.9848 88.5346 21.375 87.9629 18.5664Z" fill="#3B5D16"/>
<path d="M90.8447 20.7044C90.4221 20.3068 88.6077 21.4252 88.6077 21.4252C88.6077 21.4252 89.0551 18.3184 88.2597 18.3184C88.1603 18.3184 88.0609 18.4178 87.9863 18.5669C88.558 21.3755 89.0302 23.9853 88.9308 26.7691H89.2042V22.5437C89.1794 22.5437 91.2672 21.1021 90.8447 20.7044Z" fill="#2C4C0A"/>
<path d="M35.5176 34.523L42.5018 33.2554L63.2061 30.9688L84.6808 33.9265V34.523L84.5814 35.4675L35.5176 34.523Z" fill="white"/>
<path d="M0 47.2983C0 40.8112 4.29992 32.4102 15.6835 32.4102C25.1284 32.4102 31.0191 37.9031 31.0191 46.6024C31.0191 55.2768 24.9544 62.1616 15.3107 62.1616C4.39934 62.1616 0 54.0092 0 47.2983ZM25.7001 48.0191C25.7001 39.5187 20.8036 34.2494 14.5899 34.2494C10.2154 34.2494 5.24441 36.6852 5.24441 46.1301C5.24441 54.034 9.61889 60.2975 16.9014 60.2975C19.536 60.2726 25.7001 58.9802 25.7001 48.0191Z" fill="#6E8654"/>
<path d="M32.4603 45.186C32.4603 41.5571 32.4603 40.886 32.4106 40.1155C32.3609 39.2953 32.162 38.9225 31.3915 38.7485C31.1927 38.6988 30.795 38.674 30.4719 38.674C30.1985 38.674 30.0742 38.6242 30.0742 38.4503C30.0742 38.2763 30.2482 38.2266 30.5962 38.2266C31.8638 38.2266 33.3799 38.3011 34.051 38.3011C34.7967 38.3011 36.288 38.2266 37.7296 38.2266C40.7122 38.2266 44.7138 38.2266 47.3236 40.9606C48.5166 42.2034 49.6351 44.1918 49.6351 47.0252C49.6351 50.0327 48.3675 52.3194 47.0253 53.6864C45.9317 54.8049 43.4462 56.495 39.022 56.495C38.1521 56.495 37.1828 56.4204 36.2631 56.3459C35.3435 56.2713 34.5233 56.1967 33.9267 56.1967C33.6533 56.1967 33.1314 56.1967 32.5597 56.2216C32.0129 56.2216 31.3915 56.2713 30.9193 56.2713C30.621 56.2713 30.447 56.1967 30.447 56.0227C30.447 55.8985 30.5465 55.8239 30.8199 55.8239C31.1678 55.8239 31.4661 55.7742 31.6898 55.7245C32.162 55.6251 32.2863 55.1031 32.3857 54.4072C32.51 53.413 32.51 51.524 32.51 49.3119V45.186H32.4603ZM35.4429 47.8206C35.4429 50.3558 35.4678 52.1951 35.4926 52.6425C35.5175 53.239 35.5672 54.2083 35.766 54.4569C36.0643 54.9043 37.0088 55.4014 38.8977 55.4014C41.3335 55.4014 42.974 54.9291 44.3907 53.6864C45.9069 52.3691 46.404 50.2067 46.404 47.7212C46.404 44.6889 45.1364 42.7253 44.1173 41.756C41.9301 39.6433 39.196 39.3699 37.3319 39.3699C36.8596 39.3699 35.9649 39.4445 35.7909 39.5439C35.5672 39.6433 35.5175 39.7676 35.5175 40.0161C35.4926 40.8363 35.4926 42.8993 35.4926 44.7883V47.8206H35.4429Z" fill="#6E8654"/>
<path d="M65.3185 56.0479C64.9457 55.8739 64.8711 55.7497 64.8711 55.2277C64.8711 53.9104 64.9705 52.4688 64.9954 52.096C65.0202 51.7232 65.0948 51.4746 65.2688 51.4746C65.4925 51.4746 65.5173 51.6983 65.5173 51.8723C65.5173 52.1705 65.6167 52.6925 65.741 53.0902C66.263 54.8549 67.6797 55.5011 69.171 55.5011C71.3334 55.5011 72.3773 54.0347 72.3773 52.7671C72.3773 51.5989 72.0293 50.5053 70.0409 48.9394L68.9473 48.0695C66.3127 46.0065 65.4179 44.3412 65.4179 42.4025C65.4179 39.7679 67.6051 37.8789 70.9357 37.8789C72.5016 37.8789 73.4958 38.1275 74.1172 38.2766C74.3409 38.3263 74.4403 38.4009 74.4403 38.55C74.4403 38.8731 74.3409 39.5442 74.3409 41.4083C74.3409 41.9303 74.2663 42.1291 74.0674 42.1291C73.8935 42.1291 73.8189 41.98 73.8189 41.7066C73.8189 41.4829 73.6946 40.7621 73.1975 40.1159C72.8496 39.6685 72.1536 38.9477 70.5877 38.9477C68.823 38.9477 67.7543 39.9667 67.7543 41.4083C67.7543 42.5019 68.3011 43.347 70.2895 44.8383L70.9606 45.3354C73.8438 47.5227 74.8877 49.1631 74.8877 51.4249C74.8877 52.8168 74.3657 54.4572 72.6507 55.5757C71.4577 56.3462 70.1155 56.545 68.8479 56.545C67.4063 56.6693 66.3375 56.4953 65.3185 56.0479Z" fill="#6E8654"/>
<path d="M76.9021 53.5619C76.579 53.4128 76.5293 53.3134 76.5293 52.8909C76.5293 51.7972 76.6039 50.5793 76.6287 50.2811C76.6536 49.9828 76.7033 49.7591 76.8773 49.7591C77.0513 49.7591 77.0761 49.9331 77.0761 50.1071C77.0761 50.3557 77.1507 50.7782 77.2501 51.1262C77.6975 52.6175 78.8657 53.1394 80.1084 53.1394C81.898 53.1394 82.7928 51.9215 82.7928 50.8528C82.7928 49.8834 82.4945 48.9638 80.8292 47.6465L79.9096 46.9257C77.6975 45.2107 76.9518 43.7939 76.9518 42.1784C76.9518 39.9663 78.7911 38.4004 81.5749 38.4004C82.8673 38.4004 83.7124 38.5992 84.2344 38.7484C84.4083 38.7981 84.5078 38.8478 84.5078 38.9969C84.5078 39.2455 84.4332 39.842 84.4332 41.383C84.4332 41.8304 84.3835 41.9795 84.2095 41.9795C84.0604 41.9795 84.0107 41.8552 84.0107 41.6067C84.0107 41.4327 83.9112 40.8113 83.4887 40.2894C83.1904 39.9165 82.6188 39.32 81.3015 39.32C79.8102 39.32 78.9154 40.19 78.9154 41.383C78.9154 42.3026 79.3876 42.9986 81.0281 44.2662L81.5997 44.6887C84.0107 46.5031 84.8806 47.895 84.8806 49.784C84.8806 50.9522 84.4332 52.3192 82.9916 53.2637C81.9974 53.9099 80.8789 54.0839 79.8102 54.0839C78.6668 54.0839 77.772 53.9596 76.9021 53.5619Z" fill="#6E8654"/>
<path d="M86.8939 44.8375C86.8939 40.9353 86.8939 40.2145 86.8442 39.3943C86.7945 38.5243 86.5956 38.1018 85.8251 37.9278C85.6263 37.8781 85.2286 37.8533 84.9055 37.8533C84.6321 37.8533 84.5078 37.8036 84.5078 37.6296C84.5078 37.4556 84.6818 37.4059 85.0298 37.4059C85.676 37.4059 86.3719 37.4307 86.9685 37.4307C87.5898 37.4556 88.1366 37.4804 88.4846 37.4804C89.2551 37.4804 94.0024 37.4804 94.4498 37.4556C94.8972 37.4059 95.2949 37.3562 95.4689 37.3065C95.5931 37.2816 95.7423 37.207 95.8417 37.207C95.966 37.207 95.9908 37.3065 95.9908 37.4307C95.9908 37.6047 95.8666 37.9278 95.792 39.096C95.7671 39.3446 95.7174 40.4879 95.6677 40.7862C95.6429 40.9104 95.5931 41.0596 95.444 41.0596C95.27 41.0596 95.2203 40.9353 95.2203 40.7116C95.2203 40.5376 95.1955 40.0902 95.0712 39.792C94.8972 39.3197 94.6735 39.0214 93.4805 38.8723C93.0828 38.8226 90.5724 38.7729 90.0753 38.7729C89.9511 38.7729 89.9014 38.8475 89.9014 39.0214V45.5086C89.9014 45.6826 89.9262 45.782 90.0753 45.782C90.5973 45.782 93.3562 45.782 93.903 45.7323C94.4747 45.6826 94.8226 45.608 95.0463 45.3346C95.2203 45.1358 95.3197 45.0115 95.4192 45.0115C95.5186 45.0115 95.5931 45.0612 95.5931 45.2103C95.5931 45.3595 95.4937 45.782 95.3943 47.0745C95.3695 47.5964 95.2949 48.6155 95.2949 48.7895C95.2949 48.9883 95.2949 49.2866 95.0712 49.2866C94.8972 49.2866 94.8475 49.1871 94.8475 49.0629C94.8226 48.8143 94.8226 48.4664 94.7481 48.1432C94.6238 47.6213 94.3007 47.2485 93.4059 47.149C92.9585 47.0993 90.5973 47.0745 90.0008 47.0745C89.8765 47.0745 89.8516 47.1739 89.8516 47.323V49.3611C89.8516 50.2311 89.8268 52.5923 89.8516 53.3379C89.9014 55.1026 90.2742 55.5003 92.71 55.5003C93.3313 55.5003 94.3255 55.5003 94.9469 55.2021C95.5683 54.9038 95.8666 54.357 96.0157 53.3131C96.0654 53.0397 96.1151 52.9154 96.2891 52.9154C96.4879 52.9154 96.4879 53.1142 96.4879 53.3876C96.4879 53.9842 96.2891 55.724 96.1648 56.246C95.9908 56.9171 95.792 56.9171 94.8724 56.9171C93.0828 56.9171 91.7655 56.8673 90.7464 56.8425C89.7274 56.7928 88.9817 56.7679 88.2609 56.7679C87.9875 56.7679 87.4656 56.7679 86.8939 56.7928C86.3471 56.7928 85.7257 56.8425 85.2535 56.8425C84.9552 56.8425 84.7812 56.7679 84.7812 56.5939C84.7812 56.4697 84.8806 56.3951 85.154 56.3951C85.502 56.3951 85.8003 56.3454 86.024 56.2957C86.4962 56.1963 86.6205 55.6246 86.7199 54.8789C86.8442 53.8102 86.8442 51.7721 86.8442 49.4108V44.8375H86.8939Z" fill="#6E8654"/>
<path d="M120 32.088C120 31.8146 119.851 31.6406 119.205 31.6406H113.538C113.016 31.6406 112.792 31.7649 112.717 31.9637C112.693 32.0135 112.668 32.0632 112.668 32.1626C112.668 32.2869 112.742 32.3614 112.867 32.4111C112.941 32.4608 113.065 32.5105 113.239 32.5354C113.761 32.6845 113.886 33.0574 113.886 33.4302C113.886 33.9024 112.046 37.4318 111.723 38.2023C111.35 39.122 108.591 44.7144 107.473 47.0756C107.374 47.1999 107.2 47.2744 107.001 47.2744C106.827 47.2744 106.653 47.1999 106.553 47.0756C105.286 44.5404 102.104 38.2521 101.731 37.3324C101.508 36.8353 101.359 36.4128 101.359 36.1145C101.359 35.8411 101.508 35.5429 101.806 35.4683C101.93 35.4186 102.03 35.3937 102.104 35.3689H102.179C102.825 35.3689 102.974 35.17 102.974 34.9215C102.974 34.6729 102.825 34.4741 102.179 34.4741H94.3744C93.7281 34.4741 93.5293 34.6729 93.5293 34.9215C93.5293 35.17 93.7281 35.3689 94.3744 35.3689H94.4489C94.4986 35.3689 94.5732 35.3937 94.6229 35.3937C94.9957 35.3937 95.5177 35.6174 95.9402 35.866C96.5368 36.2637 97.3073 37.1584 98.1026 38.4758C99.1962 40.3399 103.372 48.1941 103.596 48.7657C103.993 49.8096 104.316 50.5801 104.316 52.5188V55.4517C104.316 56.0234 104.316 56.8685 104.217 58.3846C104.167 59.1054 104.018 59.7019 103.72 60.0499C103.62 60.1493 103.446 60.2239 103.297 60.2239H102.477C101.781 60.2239 101.557 60.4227 101.557 60.6961C101.557 60.7956 101.607 60.895 101.682 60.9695C101.781 61.1187 102.005 61.1435 102.328 61.1435H102.427H102.452H110.804H110.828H111.002C111.35 61.1435 111.574 61.0441 111.624 60.8701C111.649 60.8204 111.673 60.7458 111.673 60.6713C111.673 60.4227 111.499 60.199 110.828 60.199H109.561C109.287 60.199 109.039 60.0996 108.865 59.9753C108.517 59.6274 108.368 59.0557 108.343 58.3598C108.243 56.8685 108.243 55.9985 108.243 55.4269V52.494C108.243 51.3258 108.243 50.2073 108.716 48.9149C109.287 47.3738 115.352 36.04 116.396 34.6232C117.067 33.6539 117.415 33.2313 118.086 32.8834C118.384 32.6845 118.732 32.5851 119.031 32.5106H119.254C119.826 32.5106 120 32.3366 120 32.088ZM109.014 60.0748L108.89 60.0002L108.865 59.9753L109.014 60.0748Z" fill="#6E8654"/>
<path d="M65.5187 38.302C65.5187 38.1032 65.1956 37.9292 64.7979 37.9292H60.3986C60.0009 37.9292 59.6778 38.1032 59.6778 38.302C59.6778 38.4263 59.8021 38.5257 59.9761 38.6003C60.0506 38.65 60.1749 38.6749 60.2992 38.6997C60.6969 38.7991 60.7963 39.0477 60.7963 39.2962C60.7963 39.5945 60.6969 40.017 60.4732 40.539C60.1998 41.1355 58.2114 44.6152 57.3166 46.2805C57.242 46.4545 57.068 46.5539 56.8443 46.5539C56.6952 46.5539 56.5461 46.4793 56.4715 46.3799C55.4525 44.6401 53.1161 40.5638 52.8178 39.9673C52.6438 39.6442 49.9595 35.0709 49.9595 34.872C49.9595 34.7975 49.9844 34.7229 50.0341 34.6483C50.0838 34.5986 50.1583 34.5738 50.2329 34.5738H50.4566C50.9537 34.5738 51.078 34.3998 51.078 34.201C51.078 33.9773 50.9537 33.8281 50.4566 33.8281H44.4665C43.9694 33.8281 43.8203 34.0021 43.8203 34.201C43.8203 34.3998 43.9694 34.5738 44.4665 34.5738H45.2122C45.585 34.5738 45.9081 34.7478 46.1318 35.046C47.0763 36.1893 49.5121 39.9673 50.0341 40.7378C50.8791 41.9806 54.0854 47.2498 54.2346 47.6227C54.5577 48.3186 54.7814 48.8406 54.7814 50.133V52.0966C54.7814 52.4694 54.7814 57.5647 54.7068 58.5589C54.682 58.8323 54.6322 59.0808 54.5577 59.2797C54.4831 59.4288 54.334 59.5779 54.1351 59.5779H53.3646C52.8178 59.5779 52.6438 59.7519 52.6438 60.0005C52.6438 60.0999 52.6936 60.1993 52.7681 60.2739C52.8178 60.3484 52.9421 60.3981 53.1161 60.3981C53.1907 60.3981 53.2652 60.423 53.3398 60.423H59.9015C60.4483 60.423 60.5726 60.249 60.5726 60.0005C60.5726 59.7768 60.4483 59.5779 59.9015 59.5779H58.4599C58.3108 59.5779 58.1865 59.5034 58.0871 59.4288C58.0374 59.3294 57.9877 59.2299 57.9628 59.1305C57.9131 58.9565 57.8882 58.7826 57.8634 58.5837C57.7888 57.5895 57.7888 52.4942 57.7888 52.1214V50.1579C57.7888 49.3625 57.7888 48.6417 58.1368 47.7718C58.5593 46.7527 61.9148 41.1355 62.7101 40.1662C63.2321 39.5199 63.5055 39.2465 64.0026 38.998C64.3506 38.7991 64.8228 38.6997 65.0465 38.6997C65.3199 38.6997 65.4939 38.6251 65.4939 38.4512C65.4939 38.4263 65.4939 38.4014 65.469 38.4014C65.5187 38.3766 65.5187 38.3269 65.5187 38.302Z" fill="#6E8654"/>
<path d="M37.9531 39.1467H30.422C30.1735 39.1467 29.9746 38.9479 29.9746 38.6993C29.9746 38.4508 30.1735 38.252 30.422 38.252H37.9531C38.2016 38.252 38.4005 38.4508 38.4005 38.6993C38.4005 38.9479 38.2016 39.1467 37.9531 39.1467Z" fill="#6E8654"/>
</g>
<defs>
<clipPath id="clip0_1101_128">
<rect width="120" height="69.5443" fill="white"/>
</clipPath>
</defs>
</svg>
