<svg fill="none" height="60" viewBox="0 0 64 60" width="64" xmlns="http://www.w3.org/2000/svg"><path d="m61.4726 9.6231c-1.6618-.4177-3.1129-1.742-4.0842-2.85189-.5985-.68397-1.1015-1.44259-1.566-2.22378-2.035-3.4233-6.495-4.675173-10.0682-2.61606-1.2816.73868-2.2641 1.81767-2.8929 3.06405l9.9027 9.90618c.5321.5324 1.1768.9337 1.8796 1.2036.0033.0013.0065.0025.0097.0038 3.5282 1.361 6.2636-1.2746 7.9059-3.6453.7376-1.0649.1698-2.52473-1.0866-2.8406z" fill="#fbc072"/><path d="m40.5616 59.0662h-17.3001l-5.7478-5.4566c1.7293-6.5882 6.1478-9.5981 6.1478-9.5981h16.4999s4.4185 3.0099 6.1478 9.5981z" fill="#9ae0eb"/><path d="m19.9333 55.8011c0-5.2815 2.8368-9.8174 6.8908-11.7896h-3.1626s-4.4185 3.0099-6.1478 9.5981l2.4208 2.2982c-.0003-.0356-.0012-.071-.0012-.1067z" fill="#64d1e1"/><path d="m23.26 53.6094v5.4566h-6.4319c0-2.0358.2615-3.8527.6841-5.4566z" fill="#ffd8d2"/><path d="m46.9924 59.066h-6.4319v-5.4566h5.7478c.4226 1.6037.6841 3.4207.6841 5.4566z" fill="#ffd8d2"/><path d="m25.5215 44.0115v3.3856c0 1.7645 1.4304 3.1948 3.1948 3.1948s3.1948-1.4303 3.1948-3.1948v-3.3856z" fill="#fff"/><path d="m38.2998 44.0115v3.3856c0 1.7645-1.4304 3.1948-3.1948 3.1948-1.7645 0-3.1948-1.4303-3.1948-3.1948v-3.3856z" fill="#fff"/><path d="m9.11711 30.0459s1.92649 5.927-.38405 11.5457c-.72635 1.7663 1.02114 3.5558 2.81424 2.8984 2.7364-1.0035 4.4602-3.1548 5.0028-7.7542v-6.6899z" fill="#fbc072"/><path d="m54.7044 30.0459s-1.9264 5.927.3841 11.5457c.7263 1.7663-1.0212 3.5558-2.8143 2.8984-2.7363-1.0035-4.4601-3.1548-5.0027-7.7542v-6.6899z" fill="#fbc072"/><path d="m7.71875 25.7322c0-13.34 10.85285-24.19289 24.19295-24.19289 13.34 0 24.1929 10.85289 24.1929 24.19289z" fill="#fccb88"/><path d="m51.9604 32.577c3.1267 0 5.6615-2.5348 5.6615-5.6616 0-3.1267-2.5348-5.6615-5.6615-5.6615-3.1268 0-5.6616 2.5348-5.6616 5.6615 0 3.1268 2.5348 5.6616 5.6616 5.6616z" fill="#ffcabd"/><path d="m26.5683 2.13443c-2.1077.47704-4.1113 1.23105-5.9719 2.21979-.6193-.97403-1.4717-1.81418-2.5277-2.42285-3.5731-2.059113-8.0332-.80724-10.06822 2.61606-.46445.78131-.96742 1.53981-1.56599 2.22378-.97116 1.10989-2.42235 2.43419-4.0842 2.85189-1.25648.31587-1.824271 1.7755-1.08658 2.8406 1.64228 2.3707 4.37775 5.0063 7.90588 3.6453l.00972-.0038c.23335-.0896.45934-.1951.67785-.3136-1.37291 3.0339-2.13864 6.399-2.13864 9.9399h8.00198c-.0199-.4357-.0314-.8738-.0314-1.3144 0-9.0529 4.2576-17.11089 10.8792-22.28267z" fill="#fbc072"/><path d="m51.4638 21.2757c0-.0002-3.6785-4.7181-10.4313-4.7181-4.1927 0-6.6952-2.1026-7.9901-3.6969-.5821-.7166-1.6799-.7166-2.2619 0-1.2949 1.5943-3.7974 3.6969-7.9902 3.6969-6.7527 0-10.4312 4.7181-10.4313 4.7181-.3314 1.4605-.5042 2.9814-.4975 4.5438.0476 11.0533 9.3237 20.1356 20.3756 19.9596 10.9232-.1739 19.7246-9.083 19.7246-20.0475-.0001-1.5316-.1725-3.0228-.4979-4.4559z" fill="#ffd8d2"/><path d="m23.4502 43.8696c-4.8099-5.0666-7.7617-11.9144-7.7617-19.4521 0-2.1654.2445-4.2736.7057-6.2993-2.6422 1.374-4.0357 3.158-4.0357 3.158-.0003.001-.0004.0019-.0006.0027-.1568-.0155-.3214-.0248-.4971-.0248-3.1268 0-5.66158 2.5348-5.66158 5.6616 0 3.1267 2.53478 5.6615 5.66158 5.6615.4533 0 .84-.0548 1.1729-.1554 1.8183 5.0361 5.6147 9.1714 10.4165 11.4478z" fill="#ffcabd"/><path d="m20.1002 33.5278c2.4069 0 4.3581-1.5539 4.3581-3.4706s-1.9512-3.4705-4.3581-3.4705c-2.4068 0-4.358 1.5538-4.358 3.4705s1.9512 3.4706 4.358 3.4706z" fill="#ff9db0"/><path d="m43.7213 33.5278c2.4069 0 4.3581-1.5539 4.3581-3.4706s-1.9512-3.4705-4.3581-3.4705c-2.4068 0-4.358 1.5538-4.358 3.4705s1.9512 3.4706 4.358 3.4706z" fill="#ff9db0"/><path d="m19.9318 55.8007c0-.7472.0575-1.4792.1664-2.1916h-2.586c-.4226 1.6038-.6841 3.4207-.6841 5.4566h3.4768c-.2432-1.0425-.3731-2.1366-.3731-3.265z" fill="#ffcabd"/><g fill="#000"><path d="m22.64 23.999c-.5163 0-.9349.4186-.9349.9349v1.7815c0 .5163.4186.9349.9349.9349s.9348-.4186.9348-.9349v-1.7815c.0002-.5163-.4184-.9349-.9348-.9349z"/><path d="m41.1829 23.999c-.5163 0-.9349.4186-.9349.9349v1.7815c0 .5163.4186.9349.9349.9349s.9349-.4186.9349-.9349v-1.7815c0-.5163-.4186-.9349-.9349-.9349z"/><path d="m34.9691 25.9569c-.3893-.3392-.9798-.2987-1.3191.0906-.4391.504-1.0731.7929-1.7395.7929-.6662 0-1.3003-.2889-1.7395-.7929-.3393-.3892-.9298-.4298-1.3191-.0906-.3892.3392-.4298.9298-.0906 1.319.7944.9115 1.9422 1.4343 3.1492 1.4343s2.3548-.5228 3.1491-1.4343c.3393-.3892.2986-.9797-.0905-1.319z"/><path d="m31.9116 53.5938c.414 0 .7496-.3356.7496-.7495 0-.414-.3356-.7496-.7496-.7496-.4139 0-.7495.3356-.7495.7496 0 .4139.3356.7495.7495.7495z"/><path d="m31.9116 55.4521c-.4139 0-.7495.3356-.7495.7496 0 .4139.3356.7495.7495.7495.414 0 .7496-.3356.7496-.7495 0-.414-.3356-.7496-.7496-.7496z"/><path d="m61.7002 8.71536c-1.4492-.36423-2.7621-1.59367-3.6085-2.56084-.4808-.54959-.9467-1.21248-1.466-2.08591-2.962-4.982814-10.0484-5.50847-13.6898-.9132-3.4059-1.66796-7.1694-2.552982-11.0251-2.552982-3.8345 0-7.6088.888892-11.0219 2.557092-3.6359-4.59452-10.727-4.080081-13.69305.90909-.51929.87355-.98512 1.53632-1.4659 2.08591-.84638.96717-2.15933 2.19661-3.60853 2.56084-1.890207.47529-2.73447 2.68114-1.627193 4.27964 1.858803 2.6834 4.510003 4.8676 7.731123 4.3362-.58586 1.6512-.99833 3.3686-1.22819 5.1316-2.91273 3.1792-2.03568 8.2215 1.73938 10.2599.32671 2.266.39427 5.4431-.86794 8.5124-1.03449 2.516 1.44034 5.0706 4.0008 4.1317 2.4222-.8881 4.0067-2.5597 4.8977-5.1978 1.5921 1.6636 3.3521 2.9917 5.222 4.0133-4.2572 3.9428-5.3209 9.0685-5.3802 9.188 0 .0002-.0001.0005-.0001.0007-.3817 1.3142-.7149 3.5051-.7149 5.6941 0 .5163.4186.9349.9349.9349h30.1642c.5163 0 .9349-.4186.9349-.9349 0-3.2333-.6435-5.3235-.7148-5.6939-.0001-.0003-.0001-.0004-.0002-.0007 0 0 0-.0001 0-.0002-.0931-.2984-.4182-1.6904-1.2626-3.4809-.2203-.4669-.7772-.6671-1.2444-.4467-.4671.2202-.6671.7773-.4469 1.2444.3022.6405.5684 1.3053.7962 1.9865h-4.4943c-.5171 0-.9349.4193-.9349.935v4.5218h-15.4306c-.0395-4.676.089-4.5959-.1128-4.9674-.1583-.2914-.4671-.4894-.8221-.4894h-4.4939c1.4491-4.3267 4.0862-6.8068 5.0527-7.6046.2538.108.5092.2112.7669.3088v2.0182c0 2.2771 1.8526 4.1297 4.1297 4.1297 1.2863 0 2.4368-.5913 3.1948-1.5161.758.9249 1.9085 1.5161 3.1948 1.5161 2.2771 0 4.1297-1.8526 4.1297-4.1297v-1.989c.2674-.0994.532-.2053.7949-.3157.5088.4215 1.4405 1.2746 2.4138 2.5748.3092.4135.8953.4976 1.3086.1883.4133-.3094.4976-.8953.1883-1.3088-.7596-1.0147-1.4972-1.7877-2.0779-2.3308 1.8758-1.0128 3.6326-2.3299 5.213-3.9811.8946 2.6007 2.4722 4.2515 4.8762 5.133 2.5591.9384 5.0359-1.6146 4.0008-4.1317-1.2622-3.0693-1.1946-6.2464-.8679-8.5124 3.7889-2.0459 4.6424-7.0919 1.7388-10.2607-.2299-1.7603-.6446-3.4796-1.2325-5.1325 3.2125.5315 5.8646-1.6329 7.736-4.3345 1.1055-1.5957.2663-3.8035-1.6271-4.27954zm-20.2043 49.41484v-3.5868h4.0782c.2569 1.152.4124 2.3528.4643 3.5868zm-23.7128 0c.052-1.2339.2076-2.4348.4643-3.5868h4.0782v3.5868zm-15.7518-46.2c-.36498-.527-.08002-1.2442.54597-1.4014 1.91751-.482 3.53811-1.97524 4.55987-3.1431.55769-.63747 1.08709-1.38787 1.66597-2.36177 2.20939-3.7166 7.50299-4.261824 10.40459-.96667-1.1511.67773-2.2848 1.47949-3.2389 2.26467-.3986.32808-.4558.91718-.1278 1.31594.3325.40262.921.45448 1.317.12864 4.2371-3.48712 9.4953-5.29419 14.753-5.29419 10.9178 0 20.461 7.65308 22.7501 18.42038-.8724-.3918-1.8567-.5886-2.788-.5742-2.585-2.8312-6.6184-4.6968-10.841-4.6968-3.0792 0-5.5521-1.2432-7.2646-3.3515-.9537-1.174-2.7545-1.1806-3.7133 0-1.7174 2.1144-4.1882 3.3515-7.2646 3.3515-4.0174 0-8.0022 1.636-10.8454 4.6967-.9213-.014-1.9046.1792-2.78484.5749.83242-3.935 2.71254-7.6332 5.43344-10.6673.3015-.33668.3144-.83142.0548-1.18069-.3551-.47891-1.0551-.50721-1.4483-.06844-1.6646 1.85753-3.026 3.91953-4.06051 6.12863-2.88505 1.3427-5.29581-.5598-7.10749-3.1753zm5.10235 14.9841c0-2.378 1.77217-4.3684 4.08325-4.6824-.5048 3.1872-.361 6.2893.5661 9.4072-2.56281-.0405-4.64935-2.1362-4.64935-4.7248zm4.09205 16.6971c-1.04.3814-2.04291-.6558-1.62782-1.6651 1.24822-3.0352 1.34562-6.1298 1.10562-8.5367.5423.0964 1.1394.1273 1.7252.0765.7165 1.7727 1.6816 3.4493 2.8766 4.9889-.6387 2.7477-1.9088 4.3403-4.0796 5.1364zm17.4903 6.0444c-1.2461 0-2.2599-1.0138-2.2599-2.2599v-1.4099c1.5156.4139 3.0471.642 4.5198.708v.7019c0 1.2461-1.0137 2.2599-2.2599 2.2599zm8.6496-2.2598c0 1.2462-1.0138 2.2599-2.26 2.2599-1.246 0-2.2598-1.0137-2.2598-2.2599v-.7005c1.5027-.0667 3.0355-.2961 4.5198-.6932zm-5.144-2.5523c-11.9937.1898-21.6149-10.9999-18.998-23.1438.2644-.3012.7027-.7341 1.2151-1.1593 2.2968-1.9041 5.1961-3.0492 8.3509-3.0492 3.574 0 6.5871-1.4212 8.716-4.0424.1685-.2074.4485-.2396.6525-.131.3615.1927 2.8112 4.1733 8.874 4.1733 3.7626 0 7.5072 1.8483 9.5659 4.2085 2.5176 11.6949-6.0779 22.8073-18.3764 23.1439zm20.8964-11.4342c-.2398 2.4069-.1425 5.5015 1.1057 8.5366.4159 1.0115-.5894 2.0458-1.6279 1.6651-2.1544-.7899-3.4196-2.3609-4.0637-5.0659 1.2026-1.5542 2.1702-3.255 2.8865-5.057.5651.0469 1.1729.0148 1.6994-.0788zm-1.063-1.7709c.8856-3.0335 1.0758-6.2746.5498-9.4068 2.2751.3058 4.0832 2.2719 4.0832 4.6824-.0001 2.5686-2.0612 4.6743-4.633 4.7244zm9.7354-19.7084c-1.8116 2.6151-4.2322 4.5219-7.114 3.1725-2.1586-4.6092-5.6719-8.45992-10.0625-11.04544 2.9038-3.297148 8.1966-2.74781 10.4047.96667.5788.9739 1.1082 1.7243 1.6659 2.36177 1.0218 1.16773 2.6425 2.6609 4.5599 3.143.627.1576.9104.8753.546 1.4015z"/></g></svg>