<svg fill="none" height="111" viewBox="0 0 105 111" width="105" xmlns="http://www.w3.org/2000/svg"><path d="m83.8412 52.7314c-4.2583 14.0441-21.1957 21.3297-32.9179 21.3297-9.7605 0-22.009-3.499-26.3152-15.482-4.2104-11.6474-1.0526-22.7197 5.5502-31.6829 8.1337-11.0723 17.655-12.9416 29.4729-12.1268 6.507.4794 12.8705 2.7801 17.1288 9.2509 5.3587 8.0046 9.9041 19.4603 7.0812 28.7111zm6.7462-11.3119c-.0957-2.1569-1.0526-3.9783-1.866-5.9435-.5263-1.3421-1.4832-2.3966-2.2009-3.5949-.6698-1.0545-.7655-1.9173-1.1004-3.0197-.8612-2.7321-2.7272-5.656-4.354-8.0046-1.6267-2.3966-3.5406-3.6908-5.7415-5.4642-1.1483-.9107-2.2966-1.8694-3.7319-2.3008-.957-.2876-2.0574-.3355-3.1579-.2876-1.0047 0-2.0095.0959-2.9185.0959-2.0096 0-3.6842-.0959-5.598-.7669-1.1961-.4314-2.4401-1.3421-3.6841-1.39-1.9617-.0959-3.5884 1.0065-5.3587 1.6776-1.5789.6231-3.4928.3355-5.1674.6231-2.2487.3355-4.3061 1.1504-6.507 1.4859-1.6268.2876-3.732 1.0545-4.8803 2.3486-.6698.767-1.1483 1.7256-1.6267 2.5884-.7656 1.4379-1.9617 1.4379-3.5885 1.4859-1.4832.0479-4.6888-.2876-5.5022 1.342-.7177 1.3901-.2392 3.7387-.5263 5.2725-.2871 1.4859-.8134 2.828-1.4832 4.218-.5263 1.0066-.8613 1.1025-1.7225 1.5818-1.1961.6231-.7177.719-.4784 2.2049.4784 2.9238-.1914 5.7038-.4785 8.6277-.3349 3.4031.0478 6.5666.0478 9.9698 0 1.6776-.6698 5.2246.2393 6.8063.4306.719 1.3397.9107 1.9617 1.3421.909.5752 1.4832 1.438 2.153 2.3007 1.1005 1.438 2.2009 2.7801 3.2057 4.266 2.153 3.1635 5.885 4.0262 9.2342 5.3683 2.6315 1.0545 5.263 2.2528 7.6075 3.8346 2.0573 1.39 3.9233 1.8214 6.0764.5272 2.3923-1.4379 4.9281-1.4379 7.6553-1.4379 4.1147 0 8.9472-.4314 12.9184-1.6776 1.9138-.5752 3.2056-2.109 4.5453-3.4991 1.9138-2.0131 4.019-3.7386 5.9329-5.7518 1.4353-1.5338 1.7224-3.1156 2.6315-4.8411 1.0526-1.9173 3.397-2.3966 4.3539-4.3618 1.1962-2.5404.2871-5.4642 1.0048-8.0525.3349-1.1983 1.0526-1.8215 1.6746-2.828.7177-1.3421.4785-3.2594.4306-4.7453z" fill="#800000"/><g fill="#be1e2d"><path d="m78.7683 46.6437c-.622 8.436-7.3204 16.0092-14.1623 18.5976-6.0286 2.2528-14.3537 2.9238-20.6215 1.5338-5.6458-1.2942-9.1386-6.7105-11.8658-12.0788-13.014-25.4039 26.2673-45.19974 39.9034-25.1163 3.8755 5.7039 7.2725 9.2508 6.7462 17.0637zm-49.9031 9.4905c3.1578 6.1832 7.129 12.4144 13.636 13.9002 7.1769 1.6297 16.6982.8628 23.6358-1.7255 7.8467-2.9718 15.5499-11.6954 16.2197-21.3297.622-8.9632-3.2535-12.9895-7.7031-19.6041-15.6456-23.05518-60.6684-.3834-45.7884 28.7591z"/><path d="m70.7314 48.944c-2.3923 7.9567-12.0093 12.0788-18.6598 12.0788-5.5501 0-12.4399-1.9652-14.8801-8.7715-2.3923-6.6146-.5741-12.8937 3.1579-17.9265 4.5931-6.2791 9.9997-7.3336 16.6981-6.8543 3.6841.2397 7.2726 1.5818 9.7127 5.2246 3.0143 4.5056 5.598 10.9764 3.9712 16.2489zm-8.5165-22.7197c-7.7989-2.5404-14.5451-2.0611-21.1 3.5949-5.3109 4.6014-8.8515 11.9829-7.3204 19.7479 1.5789 7.9567 7.3682 11.8391 13.7796 13.1812 7.751 1.6297 19.7124-1.1503 24.0185-9.2029 2.8229-5.2725 3.11-12.5102.4785-18.214-2.1052-4.5536-5.6937-7.765-9.8562-9.1071z"/><path d="m65.2273 47.3144c-1.6267 5.4163-8.1338 8.1963-12.6313 8.1963-3.7798 0-8.4208-1.3421-10.0954-5.9436-1.6268-4.4576-.4306-8.7235 2.1052-12.1746 3.11-4.266 6.7941-4.9849 11.2916-4.6494 2.488.1917 4.9281 1.0545 6.6027 3.5469 2.0574 3.0677 3.8277 7.4774 2.7272 11.0244zm-5.5022-16.0093c-5.5502-1.8214-10.3347-1.4379-14.9758 2.5883-3.7798 3.2594-6.3156 8.5319-5.2152 14.0441 1.1005 5.6559 5.2152 8.436 9.8084 9.3946 5.5023 1.1504 14.0188-.8148 17.081-6.5187 2.0095-3.7866 2.2487-8.9153.3349-12.9416-1.5311-3.3073-4.0669-5.5601-7.0333-6.5667z"/><path d="m57.8579 44.1032c-.6699 2.9238-3.3014 3.8825-3.732 3.8345-.5741-.0479-3.8276-1.4379-4.0669-4.0262-.0957-1.438.4785-2.4446 1.7703-2.7801.9569-.2397 1.5789.0479 2.0095.8149-.2392-.1438.5742-1.1504 1.5311-1.1504 2.2009 0 2.8708 1.7255 2.488 3.3073zm-11.8179 3.6428c.9569 1.9173 2.2009 3.8345 4.2104 4.2659 2.2009.4794 5.1195.2876 7.2726-.5272 2.4401-.9107 4.7845-3.5949 4.9759-6.5667.1914-2.7321-1.0047-4.0262-2.3923-6.0394-4.7845-7.0939-18.6598-.0958-14.0666 8.8674z"/></g><g fill="#800000"><path d="m13.2669 92.9464c.4306 0 .8612-.0479 1.244-.0958.3827-.048.7655-.2397 1.1483-.4793.3349-.2397.5741-.5752.7177-.9108.1435-.3355.2392-.7669.2392-1.1503 0-.3835-.0957-.7669-.2392-1.1504-.1436-.3355-.3828-.671-.7177-.9107-.2871-.2396-.622-.3834-.9569-.4314-.335-.0479-.6699-.0479-1.0527-.0479h-1.9138v5.1766zm-4.21045-5.3683h-1.53106v-2.3008h6.41131c.7177 0 1.3875.048 2.0095.1918s1.1962.4314 1.7703.9107c.5742.4793 1.0048 1.0545 1.2919 1.6776.287.671.4306 1.3421.4306 2.0611 0 .5272-.0957 1.0545-.2393 1.5338-.1913.4793-.3827.9586-.7176 1.3421-.2871.3834-.6699.7189-1.1483 1.0065-.4306.2397-.9091.4314-1.4833.4314l2.2488 2.8759h1.6268v2.3008h-3.3492l-4.5454-6.4708v4.17h1.244v2.3008h-5.50226v-2.3008h1.53106v-9.7301z"/><path d="m29.0556 93.3288c-.2393-.767-.622-1.3901-1.244-1.8694-.622-.4314-1.3397-.671-2.1531-.671-.3827 0-.7177.0479-1.0526.1917s-.6698.3355-.9569.5272c-.2871.2397-.5263.4794-.7177.8149-.1914.2876-.3349.6231-.4306 1.0066zm1.8659 3.1634c-.1913.5273-.4784.9587-.8133 1.3901s-.7177.7669-1.1962 1.1024c-.4306.2876-.909.5273-1.4353.719-.5263.1438-1.0526.2396-1.6268.2396-.8134 0-1.5311-.1437-2.2009-.4313s-1.2918-.6711-1.7703-1.1983c-.5263-.4794-.9091-1.1025-1.1961-1.7735-.2871-.6711-.4306-1.438-.4306-2.2049s.1435-1.5338.4306-2.2528c.287-.7189.6698-1.2941 1.1961-1.8214.5263-.5272 1.1005-.9107 1.7703-1.2462.6698-.2876 1.4354-.4314 2.2009-.4314s1.4832.1438 2.2009.4793c.7177.2876 1.3397.719 1.8181 1.2462.5263.5752.9091 1.1983 1.1483 1.8694.2393.671.335 1.39.335 2.1569l-.0957.8628h-8.708c.0957.3835.2393.719.4307 1.0545.1913.3355.4306.5752.7176.8148.2871.2397.622.3835.957.5273.3349.1438.7176.1917 1.1004.1917.5263 0 1.0048-.0959 1.4832-.3355.4306-.1917.8134-.5273 1.1483-.9587z"/><path d="m37.6194 97.5475c.4306 0 .8612-.0959 1.2918-.2397.3828-.1917.7177-.4314 1.0526-.7189.2871-.2876.5264-.6711.6699-1.0546.1435-.3834.2392-.8148.2392-1.2941 0-.4314-.0957-.8628-.2392-1.2462-.1914-.3835-.4306-.719-.7177-1.0066s-.622-.5273-1.0048-.671c-.3827-.1438-.8133-.2397-1.2439-.2397-.4785 0-.8613.0959-1.2919.2397-.3827.1917-.7655.3834-1.0526.7189-.2871.2876-.5263.6231-.7177 1.0545-.1914.3835-.2392.8149-.2392 1.2942 0 .4314.0957.8628.2392 1.2462.1914.3835.3828.719.7177 1.0066.2871.2876.622.5272 1.0526.719.3828.0958.8134.1917 1.244.1917zm3.2057.4793c-.3828.6231-.9091 1.0545-1.5311 1.3421s-1.2918.4314-2.0095.4314c-.7655 0-1.4354-.1438-2.1052-.4314-.6699-.2876-1.244-.719-1.7225-1.1983-.4784-.5273-.909-1.1024-1.1961-1.7735-.2871-.671-.4306-1.39-.4306-2.109 0-.7669.1435-1.4859.4306-2.1569s.6698-1.2462 1.1483-1.7735c.4784-.5272 1.0526-.9107 1.7224-1.1983.6699-.2876 1.3876-.4314 2.1531-.4314.6698 0 1.3397.1438 1.9617.4314s1.1483.719 1.5789 1.2942v-2.9239h-1.3875v-2.3007h3.8754v12.0788h1.3876v2.3007h-3.8277v-1.5817z"/><path d="m57.8598 99.6562h-2.3445l-1.9616-6.327-2.3445 6.327h-2.2487l-2.5837-8.4839h-1.3397v-2.3007h4.9281v2.3007h-1.1483l1.5311 5.0808 2.2966-6.9501h2.0095l2.0574 6.9501h.0478l1.6268-5.0808h-1.1962v-2.3007h5.0238v2.3007h-1.3875z"/><path d="m68.4319 97.4988c.4306 0 .8613-.0958 1.244-.2396.3828-.1918.7177-.3835 1.0526-.6711.2871-.2876.5263-.6231.7177-1.0545.1914-.3834.2392-.8148.2392-1.2462s-.0956-.8628-.2392-1.2462c-.1435-.3835-.3827-.767-.6698-1.0545-.2871-.2876-.622-.5273-1.0048-.719-.3827-.1917-.8134-.2397-1.244-.2397s-.8612.0959-1.244.2397c-.3827.1438-.7176.3834-1.0526.671-.287.2876-.5263.6231-.7177 1.0066-.1913.3834-.2392.8148-.2392 1.2462s.0957.8628.2392 1.2463c.1436.3834.3828.7669.6699 1.0544.2871.2876.622.5273 1.0048.719.3827.2397.7655.2876 1.2439.2876zm0 2.4445c-.8133 0-1.531-.1437-2.2009-.4313-.6698-.2876-1.2918-.719-1.7703-1.2463-.5263-.5272-.909-1.1503-1.1961-1.8214-.2871-.671-.4306-1.4379-.4306-2.2048s.1435-1.5339.4306-2.2049c.2871-.6711.7177-1.2942 1.244-1.8214.5263-.5273 1.1004-.9107 1.8181-1.1983.6699-.2876 1.4354-.4314 2.2009-.4314.7656 0 1.4832.1438 2.2009.4793.6699.2876 1.244.719 1.7703 1.1983.4785.5273.9091 1.1024 1.1962 1.7735.287.671.4306 1.39.4306 2.1569 0 .8149-.1436 1.5338-.4306 2.2528-.2871.6711-.7177 1.2942-1.1962 1.8214-.5263.5273-1.1004.9107-1.7703 1.2463-.7655.2876-1.531.4313-2.2966.4313z"/><path d="m80.1077 97.4988c.4306 0 .8612-.0958 1.244-.2396.3828-.1918.7177-.3835 1.0526-.6711.2871-.2876.5263-.6231.6699-1.0545.1435-.3834.2392-.8148.2392-1.2462s-.0957-.8628-.2392-1.2462c-.1436-.3835-.3828-.767-.6699-1.0545-.2871-.2876-.622-.5273-1.0047-.719-.3828-.1917-.8134-.2397-1.244-.2397-.4307 0-.8613.0959-1.244.2397-.3828.1438-.7656.3834-1.0526.671-.2871.2876-.5263.6231-.7177 1.0066-.1914.3834-.2392.8148-.2392 1.2462s.0956.8628.2392 1.2463c.1435.3834.3827.7669.6698 1.0544.2871.2876.622.5273 1.0048.719.3827.2397.8134.2876 1.2918.2876zm0 2.4445c-.7655 0-1.531-.1437-2.2009-.4313-.6698-.2876-1.244-.719-1.7703-1.2463-.5263-.5272-.9091-1.1503-1.1961-1.8214-.2871-.671-.4306-1.4379-.4306-2.2048s.1435-1.5339.4306-2.2049c.287-.6711.7177-1.2942 1.244-1.8214.5263-.5273 1.1004-.9107 1.8181-1.1983.6698-.2876 1.4354-.4314 2.2009-.4314s1.4832.1438 2.2009.4793c.6699.2876 1.244.719 1.7703 1.1983.4785.5273.9091 1.1024 1.1962 1.7735.287.671.4306 1.39.4306 2.1569 0 .8149-.1436 1.5338-.4306 2.2528-.2871.6711-.7177 1.2942-1.1962 1.8214-.4784.5273-1.1004.9107-1.7703 1.2463-.7655.2876-1.531.4313-2.2966.4313z"/><path d="m91.9261 97.5475c.4306 0 .8612-.0959 1.2918-.2397.3828-.1917.7655-.4314 1.0526-.7189.2871-.2876.5263-.6711.6698-1.0546.1914-.3834.2393-.8148.2393-1.2941 0-.4314-.0957-.8628-.2393-1.2462-.1913-.3835-.3827-.719-.6698-1.0066s-.622-.5273-1.0048-.671c-.3827-.1438-.8133-.2397-1.2439-.2397-.4307 0-.8613.0959-1.2919.2397-.3828.1917-.7655.3834-1.0526.7189-.2871.2876-.5263.6231-.7177 1.0545-.1435.3835-.2392.8149-.2392 1.2942 0 .4314.0957.8628.2392 1.2462.1436.3835.3828.719.7177 1.0066.2871.2876.622.5272 1.0526.719.3349.0958.7655.1917 1.1962.1917zm3.2056.4793c-.3827.6231-.909 1.0545-1.531 1.3421s-1.2919.4314-2.0096.4314c-.7655 0-1.4353-.1438-2.1052-.4314-.6698-.2876-1.244-.719-1.7224-1.1983-.4785-.5273-.9091-1.1024-1.1962-1.7735-.287-.671-.4306-1.39-.4306-2.109 0-.7669.1436-1.4859.4306-2.1569.2871-.671.6699-1.2462 1.1483-1.7735.4785-.5272 1.0526-.9107 1.7225-1.1983.6698-.2876 1.3875-.4314 2.153-.4314.6699 0 1.3397.1438 1.9617.4314s1.1483.719 1.5789 1.2942v-2.9239h-1.3875v-2.3007h3.8755v12.0788h1.3875v2.3007h-3.8276v-1.5817z"/></g></svg>