<svg fill="none" height="94" viewBox="0 0 89 94" width="89" xmlns="http://www.w3.org/2000/svg"><g fill="#fff"><path d="m71.0651 44.6551c-3.6094 11.8932-17.9658 18.063-27.9018 18.063-8.2732 0-18.6553-2.9631-22.3052-13.1109-3.5688-9.8636-.8922-19.2401 4.7044-26.8306 6.8943-9.3765 14.9647-10.9595 24.9818-10.2695 5.5155.4059 10.9093 2.3543 14.5187 7.8341 4.5422 6.7787 8.3949 16.4799 6.0021 24.3139zm5.7183-9.5794c-.0811-1.8266-.8922-3.3691-1.5817-5.0333-.4461-1.1365-1.2572-2.0295-1.8655-3.0443-.5678-.893-.6489-1.6236-.9328-2.5572-.7299-2.3137-2.3116-4.7898-3.6904-6.7787-1.3789-2.0296-3.0011-3.1255-4.8666-4.6274-.9734-.7712-1.9467-1.583-3.1633-1.9484-.8111-.2435-1.7439-.2841-2.6767-.2435-.8516 0-1.7033.0812-2.4738.0812-1.7033 0-3.1227-.0812-4.7449-.6495-1.0139-.36529-2.0684-1.13652-3.1228-1.17711-1.6627-.08118-3.0416.85241-4.5421 1.42071-1.3383.5277-2.9606.2841-4.38.5277-1.9061.2841-3.6499.9741-5.5154 1.2583-1.3789.2435-3.1633.893-4.1367 1.9889-.5677.6495-.9733 1.4613-1.3788 2.1919-.6489 1.2178-1.6628 1.2178-3.0416 1.2584-1.2572.0406-3.9744-.2436-4.6639 1.1365-.6083 1.1771-.2027 3.1661-.4461 4.465-.2433 1.2583-.6894 2.3949-1.2572 3.572-.4461.8524-.73.9336-1.46 1.3395-1.0138.5277-.6083.6089-.4055 1.8672.4055 2.476-.1622 4.8303-.4055 7.3064-.2839 2.8819.0405 5.5609.0405 8.4429 0 1.4206-.5678 4.4244.2028 5.7639.365.6088 1.1355.7712 1.6627 1.1365.7706.4871 1.2572 1.2177 1.825 1.9484.9328 1.2177 1.8655 2.3543 2.7172 3.6126 1.825 2.679 4.9882 3.4096 7.8271 4.5461 2.2305.893 4.461 1.9078 6.4482 3.2473 1.7439 1.1772 3.3255 1.5425 5.1505.4465 2.0278-1.2177 4.1772-1.2177 6.4888-1.2177 3.4877 0 7.5838-.3653 10.9499-1.4207 1.6222-.4871 2.7171-1.786 3.8527-2.9631 1.6222-1.7048 3.4066-3.1661 5.0288-4.8709 1.2166-1.2989 1.46-2.6384 2.2305-4.0997.8922-1.6236 2.8794-2.0296 3.6905-3.6938 1.0139-2.1513.2433-4.6273.8517-6.8193.2839-1.0147.8922-1.5424 1.4194-2.3948.6083-1.1366.4055-2.7602.365-4.0185z"/><path d="m66.7657 39.4997c-.5272 7.144-6.2049 13.5574-12.0042 15.7493-5.11 1.9077-12.1665 2.476-17.4792 1.2989-4.7855-1.096-7.746-5.6827-10.0576-10.2289-11.031-21.5132 22.2646-38.27725 33.8228-21.2697 3.2849 4.8304 6.1643 7.8341 5.7182 14.4504zm-42.2988 8.037c2.6767 5.2362 6.0427 10.513 11.5582 11.7714 6.0832 1.3801 14.1537.7306 20.0341-1.4613 6.6511-2.5166 13.1804-9.9042 13.7482-18.063.5272-7.5905-2.7578-11.0001-6.5294-16.6016-13.2615-19.52427-51.4237-.3248-38.8111 24.3545z"/><path d="m59.9525 41.4484c-2.0277 6.7381-10.1793 10.2289-15.8164 10.2289-4.7044 0-10.5443-1.6642-12.6126-7.4281-2.0278-5.6015-.4867-10.919 2.6766-15.181 3.8933-5.3174 8.476-6.2104 14.1537-5.8045 3.1227.2029 6.1644 1.3395 8.2327 4.4244 2.5549 3.8156 4.7449 9.2953 3.366 13.7603zm-7.2188-19.2401c-6.6104-2.1513-12.3287-1.7454-17.8847 3.0444-4.5016 3.8967-7.5027 10.1477-6.2049 16.7234 1.3383 6.7381 6.2455 10.026 11.6798 11.1625 6.5699 1.3801 16.7087-.9742 20.3586-7.7934 2.3928-4.465 2.6361-10.5943.4056-15.4246-1.7845-3.8561-4.8261-6.5757-8.3544-7.7123z"/><path d="m55.2884 40.0682c-1.3789 4.5867-6.8944 6.941-10.7065 6.941-3.2039 0-7.1377-1.1365-8.5571-5.0333-1.3789-3.7749-.365-7.3875 1.7844-10.3101 2.636-3.6125 5.7588-4.2214 9.5709-3.9373 2.1089.1624 4.1772.893 5.5966 3.0038 1.7439 2.5978 3.2444 6.3321 2.3117 9.3359zm-4.6639-13.5574c-4.7043-1.5425-8.7598-1.2177-12.6937 2.1919-3.2038 2.7602-5.3532 7.2252-4.4205 11.8931.9328 4.7898 4.4205 7.144 8.3138 7.9559 4.6638.9742 11.8826-.6901 14.4781-5.5204 1.7033-3.2067 1.9061-7.5499.2839-10.9595-1.2977-2.8008-3.4472-4.7086-5.9616-5.561z"/><path d="m49.042 37.3487c-.5677 2.476-2.7983 3.2879-3.1633 3.2473-.4866-.0406-3.2443-1.2178-3.4471-3.4097-.0811-1.2177.4055-2.0701 1.5005-2.3542.8111-.203 1.3383.0406 1.7033.69-.2028-.1218.4867-.9742 1.2978-.9742 1.8655 0 2.4333 1.4613 2.1088 2.8008zm-10.017 3.0849c.8111 1.6236 1.8655 3.2473 3.5688 3.6126 1.8655.4059 4.3394.2435 6.1644-.4465 2.0683-.7712 4.0554-3.0443 4.2177-5.561.1622-2.3136-.8517-3.4096-2.0278-5.1144-4.0555-6.0075-15.8164-.0812-11.9231 7.5093z"/><path d="m11.2455 78.7109c.365 0 .73-.0406 1.0544-.0812.3245-.0406.6489-.203.9733-.4059.2839-.203.4867-.4871.6084-.7713.1216-.2841.2027-.6494.2027-.9741 0-.3248-.0811-.6495-.2027-.9742-.1217-.2842-.3245-.5683-.6084-.7713-.2433-.2029-.5272-.3247-.811-.3653-.2839-.0406-.5678-.0406-.8923-.0406h-1.62216v4.3839zm-3.56884-4.5462h-1.29775v-1.9484h5.43439c.6083 0 1.1761.0406 1.7033.1624.5272.1217 1.0139.3653 1.5005.7712.4867.4059.8517.893 1.095 1.4207.2433.5683.365 1.1365.365 1.7454 0 .4465-.0811.893-.2028 1.2989-.1622.4059-.3244.8118-.6083 1.1365-.2433.3248-.5678.6089-.9733.8525-.365.2029-.7706.3653-1.2572.3653l1.9061 2.4354h1.3788v1.9484h-2.8388l-3.8527-5.4798v3.5314h1.0544v1.9484h-4.66384v-1.9484h1.29776v-8.2399z"/><path d="m24.6281 79.0351c-.2027-.6494-.5272-1.1771-1.0544-1.583-.5272-.3654-1.1355-.5683-1.825-.5683-.3244 0-.6083.0406-.8922.1623-.2839.1218-.5678.2842-.8111.4465-.2433.203-.4461.406-.6083.6901-.1622.2435-.2839.5277-.365.8524zm1.5817 2.679c-.1623.4465-.4056.8118-.6895 1.1771-.2838.3654-.6083.6495-1.0138.9336-.365.2436-.7706.4465-1.2167.6089-.4461.1218-.8922.203-1.3789.203-.6894 0-1.2977-.1218-1.8655-.3654-.5678-.2435-1.095-.5682-1.5005-1.0147-.4461-.4059-.7706-.9336-1.0139-1.5019s-.365-1.2177-.365-1.8672c0-.6494.1217-1.2989.365-1.9078.2433-.6088.5678-1.0959 1.0139-1.5424s.9327-.7712 1.5005-1.0554c.5678-.2435 1.2167-.3653 1.8655-.3653.6489 0 1.2572.1218 1.8656.4059.6083.2436 1.1355.6089 1.5411 1.0554.4461.4871.7705 1.0147.9733 1.583s.2839 1.1772.2839 1.8266l-.0811.7307h-7.3811c.0812.3247.2028.6088.365.8929.1623.2842.365.4871.6084.6901.2433.203.5272.3247.8111.4465s.6083.1624.9327.1624c.4461 0 .8517-.0812 1.2572-.2842.365-.1623.6895-.4465.9734-.8118z"/><path d="m31.8876 82.6074c.365 0 .73-.0812 1.095-.2029.3244-.1624.6083-.3654.8922-.6089.2433-.2436.4461-.5683.5678-.893s.2028-.6901.2028-1.096c0-.3653-.0811-.7306-.2028-1.0553-.1622-.3248-.365-.6089-.6083-.8524-.2434-.2436-.5273-.4465-.8517-.5683s-.6894-.203-1.0544-.203c-.4056 0-.73.0812-1.095.203-.3245.1624-.6489.3247-.8922.6089-.2433.2435-.4461.5276-.6083.893-.1623.3247-.2028.69-.2028 1.0959 0 .3653.0811.7306.2028 1.0554.1622.3247.3244.6088.6083.8524.2433.2435.5272.4465.8922.6088.3244.0812.6894.1624 1.0544.1624zm2.7172.4059c-.3244.5277-.7705.893-1.2978 1.1366-.5272.2435-1.0949.3653-1.7033.3653-.6488 0-1.2166-.1218-1.7844-.3653-.5678-.2436-1.0544-.6089-1.46-1.0148-.4055-.4465-.7705-.9336-1.0138-1.5019-.2434-.5682-.365-1.1771-.365-1.786 0-.6494.1216-1.2583.365-1.8266.2433-.5682.5677-1.0553.9733-1.5018.4055-.4465.8922-.7713 1.46-1.0148.5677-.2435 1.1761-.3653 1.8249-.3653.5678 0 1.1356.1218 1.6628.3653s.9733.6089 1.3383 1.096v-2.4761h-1.1761v-1.9484h3.285v10.229h1.1761v1.9483h-3.2444v-1.3395z"/><path d="m49.0426 84.3935h-1.9872l-1.6628-5.358-1.9872 5.358h-1.9061l-2.1899-7.1846h-1.1356v-1.9484h4.1772v1.9484h-.9733l1.2977 4.3026 1.9467-5.8857h1.7033l1.7438 5.8857h.0406l1.3789-4.3026h-1.0139v-1.9484h4.2583v1.9484h-1.1761z"/><path d="m58.0047 82.5665c.365 0 .73-.0812 1.0544-.2029.3245-.1624.6083-.3248.8922-.5683.2434-.2436.4461-.5277.6084-.893.1622-.3247.2027-.6901.2027-1.0554s-.0811-.7306-.2027-1.0553c-.1217-.3248-.3245-.6495-.5678-.893-.2433-.2436-.5272-.4465-.8517-.6089-.3244-.1624-.6894-.203-1.0544-.203s-.73.0812-1.0544.203c-.3245.1218-.6083.3247-.8922.5683-.2434.2435-.4461.5276-.6084.8524-.1622.3247-.2027.69-.2027 1.0553 0 .3654.0811.7307.2027 1.0554.1217.3247.3245.6495.5678.893s.5272.4465.8517.6089c.3244.2029.6488.2435 1.0544.2435zm0 2.0702c-.6894 0-1.2978-.1218-1.8655-.3654-.5678-.2435-1.095-.6088-1.5006-1.0553-.4461-.4465-.7705-.9742-1.0138-1.5425-.2434-.5683-.365-1.2177-.365-1.8672 0-.6494.1216-1.2989.365-1.8671.2433-.5683.6083-1.096 1.0544-1.5425s.9327-.7712 1.5411-1.0148c.5677-.2435 1.2166-.3653 1.8655-.3653s1.2572.1218 1.8655.4059c.5678.2436 1.0545.6089 1.5006 1.0148.4055.4465.7705.9336 1.0138 1.5019.2434.5682.365 1.1771.365 1.8265 0 .6901-.1216 1.299-.365 1.9078-.2433.5683-.6083 1.096-1.0138 1.5425-.4461.4465-.9328.7712-1.5006 1.0553-.6488.2436-1.2977.3654-1.9466.3654z"/><path d="m67.9012 82.5665c.365 0 .73-.0812 1.0544-.2029.3244-.1624.6083-.3248.8922-.5683.2433-.2436.4461-.5277.5678-.893.1217-.3247.2028-.6901.2028-1.0554s-.0811-.7306-.2028-1.0553c-.1217-.3248-.3245-.6495-.5678-.893-.2433-.2436-.5272-.4465-.8516-.6089-.3245-.1624-.6895-.203-1.0545-.203s-.7299.0812-1.0544.203c-.3244.1218-.6489.3247-.8922.5683-.2433.2435-.4461.5276-.6083.8524-.1622.3247-.2028.69-.2028 1.0553 0 .3654.0811.7307.2028 1.0554.1216.3247.3244.6495.5677.893.2434.2435.5273.4465.8517.6089.3244.2029.6894.2435 1.095.2435zm0 2.0702c-.6489 0-1.2978-.1218-1.8655-.3654-.5678-.2435-1.0545-.6088-1.5006-1.0553s-.7705-.9742-1.0139-1.5425c-.2433-.5683-.365-1.2177-.365-1.8672 0-.6494.1217-1.2989.365-1.8671.2434-.5683.6084-1.096 1.0545-1.5425s.9327-.7712 1.5411-1.0148c.5677-.2435 1.2166-.3653 1.8655-.3653s1.2572.1218 1.8655.4059c.5678.2436 1.0545.6089 1.5006 1.0148.4055.4465.7705.9336 1.0138 1.5019.2434.5682.365 1.1771.365 1.8265 0 .6901-.1216 1.299-.365 1.9078-.2433.5683-.6083 1.096-1.0138 1.5425-.4056.4465-.9328.7712-1.5006 1.0553-.6489.2436-1.2977.3654-1.9466.3654z"/><path d="m77.9189 82.6074c.365 0 .73-.0812 1.095-.2029.3244-.1624.6488-.3654.8922-.6089.2433-.2436.4461-.5683.5677-.893.1623-.3247.2028-.6901.2028-1.096 0-.3653-.0811-.7306-.2028-1.0553-.1622-.3248-.3244-.6089-.5677-.8524-.2434-.2436-.5272-.4465-.8517-.5683-.3244-.1218-.6894-.203-1.0544-.203s-.73.0812-1.095.203c-.3244.1624-.6489.3247-.8922.6089-.2433.2435-.4461.5276-.6083.893-.1217.3247-.2028.69-.2028 1.0959 0 .3653.0811.7306.2028 1.0554.1216.3247.3244.6088.6083.8524.2433.2435.5272.4465.8922.6088.2839.0812.6489.1624 1.0139.1624zm2.7172.4059c-.3245.5277-.7706.893-1.2978 1.1366-.5272.2435-1.095.3653-1.7033.3653-.6489 0-1.2167-.1218-1.7844-.3653-.5678-.2436-1.0545-.6089-1.46-1.0148-.4056-.4465-.7705-.9336-1.0139-1.5019-.2433-.5682-.365-1.1771-.365-1.786 0-.6494.1217-1.2583.365-1.8266.2434-.5682.5678-1.0553.9733-1.5018.4056-.4465.8923-.7713 1.46-1.0148.5678-.2435 1.1761-.3653 1.825-.3653.5678 0 1.1355.1218 1.6627.3653.5273.2435.9734.6089 1.3384 1.096v-2.4761h-1.1761v-1.9484h3.2849v10.229h1.1761v1.9483h-3.2444v-1.3395z"/></g></svg>