<svg fill="none" height="65" viewBox="0 0 48 65" width="48" xmlns="http://www.w3.org/2000/svg"><path d="m42.3793 36.4634c2.5297 0 4.5804-2.0507 4.5804-4.5805 0-2.5297-2.0507-4.5804-4.5804-4.5804s-4.5805 2.0507-4.5805 4.5804c0 2.5298 2.0508 4.5805 4.5805 4.5805z" fill="#ffcebf"/><path d="m5.53163 36.4634c2.52971 0 4.58047-2.0507 4.58047-4.5805 0-2.5297-2.05076-4.5804-4.58047-4.5804-2.52972 0-4.580458 2.0507-4.580458 4.5804 0 2.5298 2.050738 4.5805 4.580458 4.5805z" fill="#f9bcaf"/><path d="m29.1229 49.5723c-.3222-.1155-.6488-.2194-.9801-.3131-1.331-.3781-2.7353-.5815-4.1865-.5815-8.4733 0-15.37036 6.8985-15.37036 15.3704h30.74076c-.0001-6.6044-4.2124-12.3308-10.2038-14.4758z" fill="#ffcebf"/><path d="m27.1292 49.0084c-1.0239-.2164-2.0853-.3307-3.1729-.3307-8.4733 0-15.37036 6.8985-15.37036 15.3704h6.34746c-.0001-7.3842 5.2397-13.5721 12.1958-15.0397z" fill="#f9bcaf"/><path d="m23.9565 50.2899c10.1662 0 18.4076-8.2414 18.4076-18.4077 0-10.1662-8.2414-18.4076-18.4076-18.4076-10.1663 0-18.40767 8.2414-18.40767 18.4076 0 10.1663 8.24137 18.4077 18.40767 18.4077z" fill="#ffdfcf"/><path d="m11.8963 31.8822c0-9.0838 6.5801-16.63 15.2339-18.1341-1.0311-.1793-2.0914-.2735-3.1737-.2735-10.1663 0-18.40767 8.2414-18.40767 18.4076 0 10.1663 8.24137 18.4077 18.40767 18.4077 1.0823 0 2.1426-.0943 3.1737-.2735-8.6536-1.5041-15.2339-9.0503-15.2339-18.1342z" fill="#ffcebf"/><path d="m13.8575 41.0701c2.0581 0 3.7265-1.3286 3.7265-2.9676 0-1.6391-1.6684-2.9677-3.7265-2.9677-2.0582 0-3.7266 1.3286-3.7266 2.9677 0 1.639 1.6684 2.9676 3.7266 2.9676z" fill="#fda0c1"/><path d="m34.0567 41.0701c2.0581 0 3.7266-1.3286 3.7266-2.9676 0-1.6391-1.6685-2.9677-3.7266-2.9677-2.0582 0-3.7266 1.3286-3.7266 2.9677 0 1.639 1.6684 2.9676 3.7266 2.9676z" fill="#fda0c1"/><g fill="#000"><path d="m16.0283 36.1983c-.5258 0-.9521-.4262-.9521-.9522v-1.5234c0-.526.4263-.9522.9521-.9522.5259 0 .9522.4262.9522.9522v1.5234c0 .5258-.4262.9522-.9522.9522z"/><path d="m31.8838 36.1983c-.5258 0-.9522-.4262-.9522-.9522v-1.5234c0-.526.4264-.9522.9522-.9522s.9521.4262.9521.9522v1.5234c0 .5258-.4263.9522-.9521.9522z"/><path d="m23.9564 37.1046c-1.0763 0-2.0998-.466-2.808-1.2786-.3455-.3965-.3042-.9978.0923-1.3434.3964-.3454.9979-.3042 1.3433.0923.3465.3976.8467.6256 1.3724.6256s1.0258-.228 1.3723-.6256c.3455-.3965.9468-.4376 1.3434-.0923.3964.3456.4377.9469.0923 1.3434-.7083.8126-1.7318 1.2786-2.808 1.2786z"/></g><path d="m32.6881 6.49878c-4.6493 0-8.7313 7.96812-8.7313 7.96812s-4.0821-7.96812-8.7313-7.96812c-1.8521 0-3.786 4.29572-3.786 8.59142h12.5173 12.5173c0-4.2957-1.934-8.59142-3.786-8.59142z" fill="#fc90b4"/><path d="m15.2253 28.0682c4.6493 0 8.7313-7.9681 8.7313-7.9681s4.0821 7.9681 8.7314 7.9681c1.852 0 3.786-4.2957 3.786-8.5914h-12.5174-12.5171c0 4.2957 1.9339 8.5914 3.7858 8.5914z" fill="#fc90b4"/><path d="m35.4656 9.64844c-3.9941 0-11.5085 5.65836-11.5085 5.65836s-7.5143-5.65836-11.5084-5.65836c-3.99409 0-3.99409 15.26946 0 15.26946 3.9941 0 11.5084-5.6584 11.5084-5.6584s7.5144 5.6584 11.5085 5.6584 3.9941-15.26946 0-15.26946z" fill="#fda0c1"/><path d="m23.9555 22.3231c2.7833 0 5.0395-2.2562 5.0395-5.0395 0-2.7832-2.2562-5.0395-5.0395-5.0395-2.7832 0-5.0395 2.2563-5.0395 5.0395 0 2.7833 2.2563 5.0395 5.0395 5.0395z" fill="#fdb3cd"/><path d="m42.5102 37.4123c2.9907-.0696 5.4026-2.5222 5.4026-5.5293 0-3.0084-2.4141-5.462-5.4066-5.5294-.6828-2.2896-1.7848-4.4493-3.2619-6.3491.1149-.9005.1681-1.8274.1681-2.721 0-3.6369-.8728-7.83102-3.2706-8.49382-.5344-1.20564-1.1647-2.09784-1.8528-2.63763.1147-2.42815-1.3075-4.69318-3.5959-5.628035-1.7313-.707488-3.6343-.698221-5.3586.025644-1.7244.723991-3.0635 2.076131-3.7709 3.807461-.5637 1.37943-.7429 2.86004-.5602 4.29419-1.6452-1.73375-3.626-3.10455-5.7781-3.10455-1.3079 0-2.5256 1.14788-3.4539 3.24254-.8383.23574-1.78964.98424-2.46882 2.9319-.51719 1.4829-.80193 3.4582-.80193 5.5623 0 .8936.05319 1.8207.1682 2.7211-1.47692 1.8997-2.5791 4.0594-3.26183 6.349-2.9927.0673-5.40702 2.5208-5.40702 5.5294 0 3.0072 2.41216 5.46 5.40296 5.5293 1.64221 5.5002 5.66804 9.9814 10.87424 12.24-1.3616.7309-2.627 1.6556-3.7307 2.7357-.3758.3677-.3822.9706-.0145 1.3464.1865.1905.4335.2861.6805.2861.2402 0 .4806-.0903.666-.2716 1.4189-1.3888 3.1389-2.4875 4.984-3.1881 1.6239.4433 3.3315.6815 5.0941.6815 1.7615 0 3.4682-.2379 5.0913-.6807 5.2892 2.0033 8.9225 6.9401 9.2953 12.5342h-28.77364c.15323-2.3186.86474-4.566 2.08074-6.5516.2745-.4484.1336-1.0347-.3148-1.3093-.4483-.2744-1.0346-.1334-1.3092.3147-1.56513 2.556-2.39246 5.4947-2.39246 8.4983 0 .5259.42629.9521.95212.9521h30.74074c.5258 0 .9521-.4262.9521-.9521 0-6.0611-3.3931-11.5862-8.6418-14.3962 5.2057-2.2585 9.2311-6.7396 10.8732-12.2394zm3.4984-5.5293c0 1.7951-1.3107 3.289-3.0251 3.5773.2176-1.1599.3327-2.3555.3327-3.5777 0-1.2051-.1145-2.4029-.336-3.5774 1.716.2868 3.0284 1.7816 3.0284 3.5778zm-8.5004-14.5995c0 1.8687-.2537 3.6675-.6958 4.9354-.3815 1.094-.8854 1.7473-1.3477 1.7473-1.4865 0-3.9309-.9919-6.9459-2.8051.8903-1.0459 1.4292-2.3996 1.4292-3.8775s-.5391-2.8316-1.4294-3.8775c.472-.2839.9344-.5515 1.3793-.7956.461-.2529.6297-.8317.3768-1.2928-.253-.4612-.8317-.6297-1.2927-.3767-.6412.3517-1.3134.7467-2.0019 1.1731-.1037-.0609-.2096-.1187-.3172-.1734 1.4484-1.99274 3.7224-4.4897 6.0246-4.4897.2591 0 .799.40129 1.3638 1.41028-.4567.09673-.9441.2346-1.4615.41626-.4961.17418-.7572.71752-.583 1.21376.1743.4963.7179.7578 1.2139.583.8945-.3141 1.6496-.4734 2.244-.4734.9666.0001 2.0435 2.7445 2.0435 6.6826zm-16.5748 5.1701c.1035.0607.209.1182.3162.1728-1.444 1.9862-3.7207 4.4897-6.0245 4.4897-.2611 0-.7999-.4014-1.3635-1.409 1.8427-.3898 4.2117-1.4791 7.0718-3.2535zm-1.0645-5.1701c0-2.2539 1.8337-4.0874 4.0874-4.0874 2.2538 0 4.0874 1.8335 4.0874 4.0874 0 2.2538-1.8336 4.0875-4.0874 4.0875-2.2537 0-4.0874-1.8337-4.0874-4.0875zm7.1105 5.1701c2.8605 1.7745 5.2296 2.8637 7.0723 3.2536-.5631 1.0075-1.1015 1.409-1.3639 1.409-2.3038 0-4.5806-2.5034-6.0245-4.4897.1071-.0547.2126-.1122.3161-.1729zm-3.6532-17.37617c.515-1.26048 1.4898-2.24497 2.7452-2.77194 1.2556-.52709 2.641-.53356 3.9013-.01878 1.3754.562 2.2819 1.83949 2.4021 3.26983-1.843.11298-3.5521 1.21122-5.0222 2.64562-.4083-.58498-.5136-1.35849-.2329-2.04528.1541-.37742.4459-.67194.8217-.82974.4848-.20363.7128-.76157.5093-1.24639s-.7616-.71282-1.2464-.50932c-.8447.35457-1.5008 1.01712-1.8473 1.86514-.5834 1.4278-.2834 3.05478.6925 4.18628-.4699.56705-.9044 1.15125-1.2992 1.72325-.2533-.0337-.511-.0529-.773-.0537-1.235-1.82227-1.4895-4.16296-.6511-6.21497zm-8.1012 2.37357c2.3022 0 4.5763 2.49696 6.0246 4.4897-.1072.0546-.2128.1121-.3163.1729-2.86-1.7743-5.229-2.86348-7.0715-3.25334.5645-1.0081 1.1039-1.40926 1.3632-1.40926zm-2.777 3.15c1.4866 0 3.9309.9918 6.9459 2.8051-.8903 1.0459-1.4292 2.3996-1.4292 3.8775s.539 2.8317 1.4292 3.8777c-3.015 1.8132-5.4589 2.805-6.9459 2.805-.9666 0-2.0435-2.7444-2.0435-6.6827 0-3.9382 1.0769-6.6826 2.0435-6.6826zm-10.54414 21.282c0-1.7964 1.31252-3.2913 3.02888-3.5779-.22166 1.1746-.33616 2.3724-.33616 3.5775 0 1.2222.11514 2.4178.33273 3.5777-1.71458-.288-3.02545-1.782-3.02545-3.5773zm22.05244 17.4551c-9.625 0-17.45548-7.8306-17.45548-17.4555 0-3.3086.95072-6.5564 2.70503-9.3328.51567 1.6334 1.34175 2.889 2.56435 3.2275.928 2.0959 2.145 3.243 3.4548 3.243 3.2099 0 6.0394-3.0506 7.9373-5.7993.26.0347.5246.0542.794.0542s.5341-.0197.7941-.0542c1.8979 2.7487 4.7273 5.7993 7.9372 5.7993 1.3112 0 2.5271-1.147 3.4546-3.243 1.2228-.3384 2.0488-1.594 2.5645-3.2275 1.7544 2.7765 2.705 6.0239 2.705 9.3328.0001 9.6251-7.8303 17.4555-17.4554 17.4555z" fill="#000"/></svg>