<svg enable-background="new 0 0 283.46 283.46" viewBox="0 0 283.46 283.46" xmlns="http://www.w3.org/2000/svg"><path d="m0 0h283.46v283.46h-283.46z" fill="#03a9f4"/><path d="m249.21 75.39c-7.96 3.49-16.44 5.8-25.27 6.93 9.09-5.43 16.03-13.96 19.3-24.24-8.48 5.05-17.84 8.63-27.82 10.62-8.05-8.57-19.52-13.88-32.04-13.88-24.29 0-43.84 19.71-43.84 43.88 0 3.48.29 6.82 1.02 10-36.47-1.78-68.74-19.26-90.41-45.88-3.78 6.57-6 14.08-6 22.17 0 15.19 7.82 28.66 19.48 36.45-7.05-.13-13.96-2.18-19.82-5.4v.48c0 21.32 15.2 39.02 35.14 43.1-3.57.98-7.46 1.44-11.5 1.44-2.81 0-5.64-.16-8.3-.75 5.68 17.37 21.81 30.14 40.99 30.56-14.92 11.67-33.87 18.71-54.39 18.71-3.6 0-7.05-.16-10.5-.6 19.43 12.53 42.46 19.68 67.29 19.68 80.72 0 124.85-66.86 124.85-124.82 0-1.94-.07-3.81-.16-5.67 8.7-6.18 16.01-13.9 21.98-22.78z" fill="#fff"/></svg>