<svg enable-background="new 0 0 283.46 283.46" viewBox="0 0 283.46 283.46" xmlns="http://www.w3.org/2000/svg"><path d="m0 0h283.46v283.46h-283.46z" fill="#ed4338"/><path d="m244.42 91.13c-2.46-9.15-9.68-16.36-18.82-18.83-16.71-4.57-83.57-4.57-83.57-4.57s-66.85 0-83.57 4.4c-8.97 2.46-16.36 9.85-18.82 19-4.4 16.71-4.4 51.37-4.4 51.37s0 34.83 4.4 51.37c2.46 9.15 9.68 16.36 18.82 18.82 16.89 4.57 83.57 4.57 83.57 4.57s66.85 0 83.56-4.4c9.15-2.46 16.36-9.68 18.83-18.82 4.4-16.71 4.4-51.37 4.4-51.37s.17-34.83-4.4-51.54zm-123.68 83.39v-64.04l55.59 32.02zm0 0" fill="#fff"/></svg>